<svg width="1198" height="186" viewBox="0 0 1198 186" fill="none" xmlns="http://www.w3.org/2000/svg">
<path d="M126.512 154.56L127.462 154.246L127.235 153.56H126.512V154.56ZM62.512 154.56V153.56H61.7893L61.5625 154.246L62.512 154.56ZM52.784 184V185H53.5067L53.7335 184.314L52.784 184ZM0.0480001 184L-0.891521 183.658L-1.38091 185H0.0480001V184ZM65.84 3.51999V2.51999H65.1402L64.9005 3.1775L65.84 3.51999ZM123.696 3.51999L124.636 3.17867L124.397 2.51999H123.696V3.51999ZM189.232 184V185H190.659L190.172 183.659L189.232 184ZM136.24 184L135.29 184.314L135.517 185H136.24V184ZM113.968 116.16V117.16H115.355L114.917 115.844L113.968 116.16ZM94.512 57.792L95.4607 57.4758L94.5057 54.6109L93.5621 57.4795L94.512 57.792ZM75.312 116.16L74.3621 115.848L73.9303 117.16H75.312V116.16ZM126.512 153.56H62.512V155.56H126.512V153.56ZM61.5625 154.246L51.8345 183.686L53.7335 184.314L63.4615 154.874L61.5625 154.246ZM52.784 183H0.0480001V185H52.784V183ZM0.987521 184.342L66.7795 3.86248L64.9005 3.1775L-0.891521 183.658L0.987521 184.342ZM65.84 4.51999H123.696V2.51999H65.84V4.51999ZM122.756 3.86131L188.292 184.341L190.172 183.659L124.636 3.17867L122.756 3.86131ZM189.232 183H136.24V185H189.232V183ZM137.19 183.686L127.462 154.246L125.562 154.874L135.29 184.314L137.19 183.686ZM114.917 115.844L95.4607 57.4758L93.5633 58.1082L113.019 116.476L114.917 115.844ZM93.5621 57.4795L74.3621 115.848L76.2619 116.472L95.4619 58.1045L93.5621 57.4795ZM75.312 117.16H113.968V115.16H75.312V117.16ZM255.762 3.51999H256.762V2.51999H255.762V3.51999ZM255.762 184V185H256.762V184H255.762ZM205.586 184H204.586V185H205.586V184ZM205.586 3.51999V2.51999H204.586V3.51999H205.586ZM254.762 3.51999V184H256.762V3.51999H254.762ZM255.762 183H205.586V185H255.762V183ZM206.586 184V3.51999H204.586V184H206.586ZM205.586 4.51999H255.762V2.51999H205.586V4.51999ZM395.184 74.432H396.184V73.432H395.184V74.432ZM395.184 116.16V117.16H396.184V116.16H395.184ZM279.216 116.16H278.216V117.16H279.216V116.16ZM279.216 74.432V73.432H278.216V74.432H279.216ZM394.184 74.432V116.16H396.184V74.432H394.184ZM395.184 115.16H279.216V117.16H395.184V115.16ZM280.216 116.16V74.432H278.216V116.16H280.216ZM279.216 75.432H395.184V73.432H279.216V75.432ZM599.504 184V185H600.504V184H599.504ZM549.328 184L548.494 184.552L548.791 185H549.328V184ZM482.512 83.136L483.346 82.5837L481.512 79.8157V83.136H482.512ZM482.512 184V185H483.512V184H482.512ZM432.336 184H431.336V185H432.336V184ZM432.336 3.51999V2.51999H431.336V3.51999H432.336ZM482.512 3.51999L483.349 2.97257L483.053 2.51999H482.512V3.51999ZM549.328 105.664L548.491 106.211L550.328 109.019V105.664H549.328ZM549.328 3.51999V2.51999H548.328V3.51999H549.328ZM599.504 3.51999H600.504V2.51999H599.504V3.51999ZM599.504 183H549.328V185H599.504V183ZM550.162 183.448L483.346 82.5837L481.678 83.6882L548.494 184.552L550.162 183.448ZM481.512 83.136V184H483.512V83.136H481.512ZM482.512 183H432.336V185H482.512V183ZM433.336 184V3.51999H431.336V184H433.336ZM432.336 4.51999H482.512V2.51999H432.336V4.51999ZM481.675 4.06741L548.491 106.211L550.165 105.117L483.349 2.97257L481.675 4.06741ZM550.328 105.664V3.51999H548.328V105.664H550.328ZM549.328 4.51999H599.504V2.51999H549.328V4.51999ZM598.504 3.51999V184H600.504V3.51999H598.504ZM668.022 174.016L667.529 174.886L667.537 174.891L668.022 174.016ZM634.23 140.992L633.364 141.493L633.368 141.499L633.372 141.505L634.23 140.992ZM634.23 45.504L633.369 44.9956L633.367 44.9988L634.23 45.504ZM761.206 12.48L760.717 13.3521L760.721 13.3547L761.206 12.48ZM794.742 45.504L793.876 46.0046L793.879 46.0092L794.742 45.504ZM794.742 140.992L795.605 141.497L795.608 141.493L794.742 140.992ZM761.206 174.016L761.691 174.891L761.699 174.886L761.206 174.016ZM744.822 126.656L744.078 125.988L744.07 125.996L744.822 126.656ZM744.822 59.328L744.07 59.9876L744.078 59.9957L744.085 60.0037L744.822 59.328ZM684.15 59.328L684.895 59.9953L684.902 59.9876L684.15 59.328ZM684.15 126.912L683.398 127.572L683.405 127.579L684.15 126.912ZM714.614 184.792C697.88 184.792 682.517 180.906 668.507 173.141L667.537 174.891C681.857 182.827 697.556 186.792 714.614 186.792V184.792ZM668.515 173.146C654.5 165.21 643.362 154.325 635.088 140.479L633.372 141.505C641.823 155.648 653.213 166.779 667.529 174.886L668.515 173.146ZM635.096 140.491C626.999 126.491 622.942 110.709 622.942 93.12H620.942C620.942 111.03 625.077 127.162 633.364 141.493L635.096 140.491ZM622.942 93.12C622.942 75.5309 626.999 59.8363 635.093 46.0092L633.367 44.9988C625.077 59.161 620.942 75.2104 620.942 93.12H622.942ZM635.091 46.0124C643.365 31.998 654.5 21.1175 668.507 13.3547L667.537 11.6053C653.214 19.5438 641.821 30.6794 633.369 44.9956L635.091 46.0124ZM668.507 13.3547C682.517 5.58981 697.88 1.70399 714.614 1.70399V-0.296005C697.556 -0.296005 681.857 3.66885 667.537 11.6053L668.507 13.3547ZM714.614 1.70399C731.521 1.70399 746.881 5.59064 760.717 13.3521L761.695 11.6078C747.542 3.66801 731.841 -0.296005 714.614 -0.296005V1.70399ZM760.721 13.3547C774.726 21.1165 785.774 31.9945 793.876 46.0046L795.608 45.0034C787.326 30.6829 776.016 19.5448 761.691 11.6053L760.721 13.3547ZM793.879 46.0092C801.973 59.8363 806.03 75.5309 806.03 93.12H808.03C808.03 75.2104 803.895 59.161 795.605 44.9988L793.879 46.0092ZM806.03 93.12C806.03 110.709 801.973 126.491 793.876 140.491L795.608 141.493C803.895 127.162 808.03 111.03 808.03 93.12H806.03ZM793.879 140.487C785.776 154.329 774.726 165.211 760.713 173.146L761.699 174.886C776.017 166.778 787.324 155.645 795.605 141.497L793.879 140.487ZM760.721 173.141C746.711 180.906 731.348 184.792 714.614 184.792V186.792C731.672 186.792 747.371 182.827 761.691 174.891L760.721 173.141ZM714.614 140.2C727.654 140.2 738.016 135.928 745.574 127.316L744.07 125.996C736.951 134.109 727.174 138.2 714.614 138.2V140.2ZM745.566 127.324C753.278 118.736 757.086 107.298 757.086 93.12H755.086C755.086 106.931 751.385 117.851 744.078 125.988L745.566 127.324ZM757.086 93.12C757.086 78.6087 753.282 67.0773 745.559 58.6523L744.085 60.0037C751.381 67.9627 755.086 78.9593 755.086 93.12H757.086ZM745.574 58.6684C738.016 50.0558 727.654 45.784 714.614 45.784V47.784C727.174 47.784 736.951 51.8749 744.07 59.9876L745.574 58.6684ZM714.614 45.784C701.408 45.784 690.959 50.0527 683.398 58.6684L684.902 59.9876C692.018 51.8779 701.879 47.784 714.614 47.784V45.784ZM683.405 58.6607C675.857 67.0861 672.142 78.6143 672.142 93.12H674.142C674.142 78.9537 677.765 67.9539 684.895 59.9952L683.405 58.6607ZM672.142 93.12C672.142 107.46 675.86 118.981 683.398 127.572L684.902 126.252C677.763 118.118 674.142 107.111 674.142 93.12H672.142ZM683.405 127.579C690.968 136.021 701.415 140.2 714.614 140.2V138.2C701.872 138.2 692.009 134.187 684.895 126.245L683.405 127.579ZM1005.2 3.51999L1006.15 3.84586L1006.6 2.51999H1005.2V3.51999ZM942.994 184V185H943.707L943.939 184.326L942.994 184ZM878.738 184L877.793 184.327L878.026 185H878.738V184ZM816.274 3.51999V2.51999H814.87L815.329 3.84705L816.274 3.51999ZM870.034 3.51999L870.988 3.22011L870.768 2.51999H870.034V3.51999ZM910.994 133.824L910.04 134.124L910.997 137.168L911.948 134.122L910.994 133.824ZM951.698 3.51999V2.51999H950.963L950.744 3.22182L951.698 3.51999ZM1004.26 3.19412L942.049 183.674L943.939 184.326L1006.15 3.84586L1004.26 3.19412ZM942.994 183H878.738V185H942.994V183ZM879.683 183.673L817.219 3.19292L815.329 3.84705L877.793 184.327L879.683 183.673ZM816.274 4.51999H870.034V2.51999H816.274V4.51999ZM869.08 3.81987L910.04 134.124L911.948 133.524L870.988 3.22011L869.08 3.81987ZM911.948 134.122L952.653 3.81816L950.744 3.22182L910.039 133.526L911.948 134.122ZM951.698 4.51999H1005.2V2.51999H951.698V4.51999ZM1135.01 154.56L1135.96 154.246L1135.73 153.56H1135.01V154.56ZM1071.01 154.56V153.56H1070.29L1070.06 154.246L1071.01 154.56ZM1061.28 184V185H1062.01L1062.23 184.314L1061.28 184ZM1008.55 184L1007.61 183.658L1007.12 185H1008.55V184ZM1074.34 3.51999V2.51999H1073.64L1073.4 3.1775L1074.34 3.51999ZM1132.2 3.51999L1133.14 3.17867L1132.9 2.51999H1132.2V3.51999ZM1197.73 184V185H1199.16L1198.67 183.659L1197.73 184ZM1144.74 184L1143.79 184.314L1144.02 185H1144.74V184ZM1122.47 116.16V117.16H1123.86L1123.42 115.844L1122.47 116.16ZM1103.01 57.792L1103.96 57.4758L1103.01 54.6109L1102.06 57.4795L1103.01 57.792ZM1083.81 116.16L1082.86 115.848L1082.43 117.16H1083.81V116.16ZM1135.01 153.56H1071.01V155.56H1135.01V153.56ZM1070.06 154.246L1060.33 183.686L1062.23 184.314L1071.96 154.874L1070.06 154.246ZM1061.28 183H1008.55V185H1061.28V183ZM1009.49 184.342L1075.28 3.86248L1073.4 3.1775L1007.61 183.658L1009.49 184.342ZM1074.34 4.51999H1132.2V2.51999H1074.34V4.51999ZM1131.26 3.86131L1196.79 184.341L1198.67 183.659L1133.14 3.17867L1131.26 3.86131ZM1197.73 183H1144.74V185H1197.73V183ZM1145.69 183.686L1135.96 154.246L1134.06 154.874L1143.79 184.314L1145.69 183.686ZM1123.42 115.844L1103.96 57.4758L1102.06 58.1082L1121.52 116.476L1123.42 115.844ZM1102.06 57.4795L1082.86 115.848L1084.76 116.472L1103.96 58.1045L1102.06 57.4795ZM1083.81 117.16H1122.47V115.16H1083.81V117.16Z" fill="#B49657" fill-opacity="0.8"/>
</svg>
