<svg xmlns="http://www.w3.org/2000/svg" width="43" height="42" viewBox="0 0 43 42" fill="none">
  <path d="M31.1072 21.4403C30.9887 24.5215 29.8309 27.0789 27.4986 29.0568C25.5231 30.7313 23.2063 31.517 20.6252 31.427C17.9724 31.3569 15.4542 30.2439 13.6166 28.3294C11.779 26.4149 10.7701 23.8531 10.8088 21.1997C10.8475 18.5463 11.9306 16.0151 13.8232 14.1549C15.7158 12.2948 18.2654 11.2557 20.9191 11.2629C20.9191 11.1954 20.9298 11.1267 20.9298 11.0591C20.9298 7.74801 20.9298 4.43691 20.9298 1.12582C20.9392 1.06912 20.9295 1.01089 20.902 0.960408C20.8745 0.909928 20.8309 0.870116 20.7781 0.847327C20.6869 0.798982 20.6161 0.719547 20.5785 0.623439C20.5408 0.527332 20.5389 0.420922 20.5731 0.323525C20.6045 0.229726 20.6644 0.1481 20.7445 0.0900848C20.8247 0.0320692 20.9209 0.000570139 21.0198 0C21.1162 0.000804487 21.21 0.0314224 21.2883 0.0876509C21.3666 0.143879 21.4256 0.222962 21.4571 0.314045C21.4943 0.410378 21.4951 0.516966 21.4593 0.613832C21.4235 0.710697 21.3537 0.791188 21.2628 0.840217C21.1111 0.913692 21.1028 1.01561 21.104 1.15189C21.104 4.48274 21.104 7.81358 21.104 11.1444C21.104 11.4395 21.104 11.4395 20.8042 11.4478C18.4481 11.479 16.1844 12.369 14.4379 13.9507C12.6603 15.5268 11.5784 17.5059 11.2382 19.8523C10.7915 22.9241 11.6044 25.6485 13.6605 27.9725C15.1564 29.7001 17.2304 30.8237 19.4946 31.1331C22.8448 31.6189 25.7388 30.6412 28.1243 28.245C29.5577 26.8092 30.4909 24.9502 30.786 22.943C30.8619 22.469 30.8808 21.995 30.914 21.5209C30.9306 21.2839 30.9282 21.2673 31.1724 21.2685C34.5143 21.2685 37.8558 21.2685 41.1969 21.2685C41.3415 21.2685 41.4481 21.2685 41.5228 21.1002C41.572 21.0134 41.6506 20.9469 41.7445 20.9128C41.8383 20.8787 41.9412 20.8792 42.0347 20.9142C42.129 20.944 42.2113 21.0033 42.2695 21.0832C42.3277 21.1632 42.3588 21.2597 42.3583 21.3586C42.3541 21.454 42.3219 21.5461 42.2656 21.6233C42.2093 21.7004 42.1315 21.7592 42.0418 21.7923C41.9447 21.8269 41.8384 21.8262 41.7418 21.7902C41.6451 21.7542 41.5642 21.6853 41.5133 21.5956C41.4925 21.5423 41.4541 21.4977 41.4046 21.4691C41.3551 21.4404 41.2973 21.4295 41.2407 21.438C37.932 21.438 34.6233 21.438 31.3146 21.438L31.1072 21.4403Z" fill="white"/>
  <path d="M21.0103 30.4835C19.2066 30.4814 17.444 29.9448 15.9451 28.9415C14.4462 27.9381 13.2783 26.5131 12.5888 24.8464C11.8994 23.1796 11.7194 21.3459 12.0715 19.5769C12.4237 17.8079 13.2922 16.183 14.5674 14.9073C15.8425 13.6317 17.4671 12.7625 19.236 12.4097C21.0049 12.0569 22.8386 12.2362 24.5056 12.9249C26.1726 13.6137 27.5981 14.7811 28.602 16.2796C29.6059 17.7781 30.1432 19.5405 30.1461 21.3442C30.1479 22.5447 29.9129 23.7336 29.4545 24.8431C28.9961 25.9525 28.3233 26.9606 27.4746 27.8096C26.626 28.6586 25.6182 29.3318 24.5089 29.7906C23.3996 30.2495 22.2107 30.4849 21.0103 30.4835ZM29.973 21.3585C29.9726 19.5875 29.447 17.8564 28.4628 16.384C27.4787 14.9117 26.08 13.7642 24.4438 13.0866C22.8075 12.409 21.0071 12.2318 19.2701 12.5773C17.5332 12.9229 15.9377 13.7756 14.6853 15.0278C13.4329 16.28 12.5799 17.8755 12.2342 19.6124C11.8884 21.3493 12.0654 23.1497 12.7427 24.7861C13.4201 26.4224 14.5674 27.8212 16.0396 28.8056C17.5119 29.7899 19.2429 30.3157 21.0139 30.3164C23.3902 30.3158 25.669 29.3714 27.3491 27.6908C29.0292 26.0103 29.973 23.7312 29.973 21.3549V21.3585Z" fill="white"/>
  <path d="M32.0232 22.4026C31.4307 26.4888 29.4007 29.5581 25.6547 31.3132C21.9086 33.0683 18.2693 32.6583 14.7709 30.4611C14.7295 30.5168 14.6738 30.5867 14.6228 30.659C14.0326 31.4989 13.4433 32.3414 12.8547 33.1868C12.8263 33.2333 12.7864 33.2717 12.7389 33.2983C12.6914 33.3248 12.6378 33.3387 12.5833 33.3385C12.0927 33.3685 11.6032 33.408 11.115 33.457C11.0344 33.4682 10.9605 33.5077 10.9064 33.5684C9.95836 34.6942 9.0103 35.82 8.06224 36.9506C8.0296 36.9809 8.00795 37.0212 8.00066 37.0652C7.99336 37.1091 8.00085 37.1543 8.02195 37.1935C8.06408 37.2871 8.07197 37.3925 8.04424 37.4913C8.01651 37.5901 7.95493 37.676 7.87026 37.7339C7.78977 37.791 7.69321 37.8209 7.59456 37.8194C7.49591 37.818 7.4003 37.7851 7.32157 37.7256C7.24616 37.6619 7.19193 37.5768 7.1661 37.4815C7.14027 37.3863 7.14407 37.2854 7.17699 37.1923C7.2126 37.0957 7.2817 37.015 7.37173 36.965C7.46176 36.915 7.56675 36.899 7.66761 36.9198C7.72672 36.9344 7.78896 36.9298 7.84524 36.9065C7.90152 36.8833 7.9489 36.8427 7.98047 36.7906C8.90246 35.6837 9.83037 34.5804 10.7524 33.4724C10.7922 33.4178 10.8437 33.3729 10.9032 33.3409C10.9627 33.3089 11.0286 33.2907 11.096 33.2875C11.5345 33.2638 11.9706 33.2141 12.4079 33.1927C12.485 33.1944 12.5611 33.1758 12.6287 33.1388C12.6963 33.1018 12.753 33.0476 12.7931 32.9818C13.3939 32.1072 14.0078 31.2421 14.611 30.3746C14.7046 30.2395 14.7709 30.2277 14.906 30.3201C16.4244 31.3887 18.2028 32.0281 20.054 32.1712C23.5488 32.4331 26.5209 31.2765 28.9361 28.7475C30.4637 27.1287 31.3821 25.1958 31.7341 22.9952C31.7673 22.789 31.7933 22.5804 31.8147 22.373C31.8265 22.2545 31.8692 22.2095 31.9901 22.2213C32.8113 22.2948 33.6337 22.3683 34.455 22.4358C34.6114 22.4477 34.602 22.5674 34.6221 22.6598C34.7845 23.3945 34.9409 24.1305 35.0961 24.8664C35.2028 25.3653 35.3059 25.8654 35.422 26.362C35.4331 26.403 35.4527 26.4413 35.4794 26.4743C35.5061 26.5074 35.5395 26.5345 35.5773 26.5539C37.0871 27.1097 38.6004 27.6561 40.1102 28.213C40.2287 28.2581 40.2868 28.1882 40.3638 28.1301C40.4137 28.0927 40.4708 28.066 40.5316 28.0517C40.5923 28.0374 40.6553 28.0357 40.7167 28.0468C40.7781 28.058 40.8365 28.0816 40.8883 28.1163C40.9402 28.151 40.9843 28.1961 41.0179 28.2486C41.0508 28.3031 41.0723 28.3636 41.0813 28.4266C41.0902 28.4896 41.0864 28.5538 41.07 28.6153C41.0537 28.6767 41.0251 28.7343 40.986 28.7845C40.9469 28.8347 40.8981 28.8765 40.8425 28.9075C40.6055 29.026 40.2678 28.9336 40.2299 28.68C40.1836 28.3576 39.9561 28.3244 39.7404 28.251C38.3326 27.739 36.9259 27.2247 35.5168 26.7199C35.4521 26.7028 35.3938 26.6669 35.3495 26.6167C35.3052 26.5665 35.2768 26.5042 35.268 26.4378C35.008 25.2148 34.7434 23.9934 34.474 22.7736C34.4586 22.706 34.3732 22.6076 34.3128 22.6017C33.5543 22.5271 32.7923 22.4654 32.0232 22.4026Z" fill="white"/>
  <path d="M13.1521 29.135C9.64551 25.0785 9.06483 20.6997 11.3911 15.8942C11.3651 15.8776 11.3082 15.8385 11.2489 15.8042C10.6031 15.4297 9.95956 15.0528 9.31014 14.6854C9.24818 14.6594 9.19687 14.6131 9.16459 14.5541C9.13231 14.4951 9.12096 14.427 9.13238 14.3607C9.23785 12.9754 9.33147 11.59 9.43813 10.2059C9.4522 10.1043 9.44108 10.0007 9.40575 9.90445C9.37041 9.80815 9.31194 9.72201 9.23548 9.65362C8.36919 8.8063 7.51712 7.94356 6.66269 7.0832C6.63368 7.04123 6.59094 7.0107 6.54183 6.99685C6.49273 6.98301 6.44033 6.98672 6.39367 7.00736C6.29774 7.04341 6.19211 7.04412 6.0957 7.00938C5.99928 6.97464 5.91839 6.9067 5.8675 6.81774C5.81174 6.7319 5.7874 6.6294 5.79864 6.52766C5.80987 6.42591 5.85598 6.33118 5.92913 6.25958C5.99716 6.18779 6.08689 6.14033 6.18451 6.12448C6.28214 6.10864 6.38227 6.12529 6.46952 6.17188C6.56172 6.21734 6.63502 6.29375 6.6766 6.38776C6.71819 6.48177 6.72543 6.5874 6.69705 6.6862C6.67559 6.73641 6.67213 6.79249 6.68724 6.84496C6.70236 6.89743 6.73512 6.94308 6.78001 6.97417C7.6854 7.87483 8.58724 8.78141 9.49383 9.68207C9.53873 9.72281 9.573 9.7739 9.59366 9.8309C9.61431 9.88791 9.62072 9.9491 9.61233 10.0091C9.53293 11.0485 9.46183 12.0878 9.38954 13.1271C9.3611 13.5193 9.33977 13.9116 9.3054 14.3027C9.29558 14.3568 9.30487 14.4126 9.33168 14.4606C9.35849 14.5086 9.40114 14.5457 9.45235 14.5658C10.1184 14.9438 10.7808 15.3278 11.4433 15.7105C11.6696 15.8421 11.672 15.8444 11.5487 16.0661C10.4134 18.1091 9.96856 20.4643 10.2806 22.7807C10.5926 25.0971 11.6447 27.2507 13.2801 28.9205C13.4081 29.0509 13.3832 29.1208 13.2683 29.2358C11.7948 30.7021 10.3246 32.17 8.85744 33.6395C8.80946 33.6714 8.77409 33.719 8.75744 33.7742C8.74078 33.8293 8.74388 33.8886 8.76619 33.9417C8.79671 34.0361 8.79381 34.1382 8.758 34.2308C8.72218 34.3234 8.65561 34.4008 8.56947 34.4501C8.48351 34.499 8.38439 34.5199 8.286 34.5097C8.1876 34.4995 8.09487 34.4588 8.02078 34.3932C7.94668 34.3275 7.89597 34.2395 7.8763 34.1424C7.85663 34.0454 7.86907 33.9445 7.91175 33.8552C7.94909 33.7628 8.01864 33.687 8.10753 33.6419C8.19642 33.5968 8.29863 33.5854 8.39526 33.6099C8.58369 33.6668 8.6785 33.5862 8.79345 33.4712C10.1895 32.0681 11.5878 30.6669 12.9886 29.2678C13.0404 29.2203 13.095 29.176 13.1521 29.135Z" fill="white"/>
  <path d="M21.9774 11.3116C22.2938 11.3614 22.6043 11.4028 22.91 11.4621C24.8686 11.835 26.6718 12.7829 28.0895 14.1848C29.5072 15.5867 30.4752 17.3791 30.8702 19.3333C30.9318 19.6272 30.9733 19.9259 31.01 20.2257C31.0242 20.3442 31.0491 20.3999 31.1866 20.3869C32.7374 20.2462 34.2891 20.1084 35.8415 19.9733C35.9257 19.9662 36.011 19.9638 36.0963 19.9579C36.2765 19.9437 36.4424 19.9401 36.5218 19.7114C36.581 19.5372 36.8133 19.4744 36.9899 19.5135C37.0855 19.5355 37.1715 19.5876 37.2354 19.6621C37.2992 19.7366 37.3374 19.8297 37.3444 19.9276C37.3515 20.0254 37.3269 20.123 37.2744 20.2059C37.2219 20.2887 37.1442 20.3526 37.0527 20.3881C36.965 20.4282 36.8659 20.4359 36.773 20.4099C36.6802 20.3838 36.5995 20.3257 36.5455 20.2458C36.5137 20.1901 36.4645 20.1463 36.4054 20.1212C36.3463 20.0962 36.2806 20.0912 36.2184 20.1072C35.1123 20.2067 34.0039 20.3051 32.8931 20.4023C32.2804 20.4568 31.6677 20.5089 31.055 20.5682C30.9022 20.5824 30.882 20.4912 30.8713 20.3774C30.7848 19.3241 30.5145 18.2941 30.0726 17.3341C28.6118 14.2032 26.1852 12.2952 22.7927 11.6102C22.5295 11.5583 22.2636 11.5211 21.9963 11.4988C21.8494 11.487 21.8043 11.4372 21.8174 11.2926C21.8695 10.7392 21.9122 10.1834 21.9596 9.63352C21.9928 9.25548 22.039 8.87744 22.0556 8.49822C22.0517 8.42818 22.0737 8.35916 22.1174 8.3043C22.1611 8.24944 22.2235 8.21259 22.2926 8.20076C23.5144 7.81324 24.7315 7.41506 25.9533 7.02754C26.0211 7.00938 26.0829 6.97362 26.1324 6.92388C26.182 6.87414 26.2175 6.81219 26.2353 6.74431C26.771 5.25586 27.313 3.76859 27.8613 2.28251C27.8841 2.24081 27.8923 2.1926 27.8843 2.1457C27.8764 2.0988 27.8528 2.05597 27.8174 2.02416C27.7426 1.94865 27.6981 1.84837 27.6922 1.74226C27.6863 1.63615 27.7195 1.53155 27.7854 1.44822C27.8468 1.36634 27.9335 1.30691 28.0319 1.27907C28.1304 1.25124 28.2354 1.25654 28.3305 1.29416C28.425 1.33285 28.5039 1.40178 28.5549 1.49013C28.606 1.57849 28.6262 1.68129 28.6126 1.78241C28.6014 1.8842 28.5541 1.97863 28.4793 2.04861C28.4046 2.1186 28.3072 2.15953 28.2049 2.164C28.0568 2.17111 28.0414 2.26829 28.0058 2.36309C27.4607 3.86221 26.9132 5.36133 26.3764 6.86637C26.3545 6.93992 26.3138 7.00649 26.2583 7.05949C26.2028 7.11249 26.1344 7.15009 26.0599 7.16856C24.8381 7.5549 23.6199 7.95071 22.3993 8.34179C22.295 8.37497 22.2156 8.4046 22.2049 8.54443C22.135 9.41191 22.0544 10.2794 21.9786 11.1516C21.9738 11.1978 21.9774 11.25 21.9774 11.3116Z" fill="white"/>
  <path d="M16.9965 32.644C16.7346 33.3681 16.4822 34.0661 16.2286 34.7688C16.1373 35.0213 16.0544 35.2772 15.9501 35.5237C15.9313 35.5615 15.9049 35.595 15.8724 35.6219C15.84 35.6488 15.8022 35.6687 15.7617 35.6802C15.3327 35.7679 14.8989 35.8319 14.4699 35.9172C14.4258 35.928 14.3844 35.9475 14.3479 35.9745C14.3115 36.0016 14.2808 36.0357 14.2578 36.0748C13.6783 37.299 13.1095 38.5291 12.5311 39.7544C12.4743 39.873 12.5193 39.9429 12.5774 40.0341C12.6124 40.0857 12.6364 40.144 12.6478 40.2053C12.6592 40.2666 12.6577 40.3297 12.6434 40.3904C12.6292 40.4511 12.6024 40.5082 12.565 40.5581C12.5275 40.6079 12.48 40.6494 12.4257 40.68C12.3731 40.7167 12.3134 40.742 12.2505 40.7543C12.1875 40.7666 12.1227 40.7655 12.0602 40.7513C11.9977 40.737 11.9389 40.7099 11.8875 40.6715C11.8361 40.6332 11.7933 40.5845 11.7618 40.5286C11.7303 40.4727 11.7109 40.4109 11.7048 40.3471C11.6986 40.2832 11.7059 40.2188 11.7261 40.158C11.7463 40.0971 11.779 40.0412 11.8222 39.9937C11.8653 39.9463 11.9179 39.9084 11.9765 39.8824C12.0109 39.8635 12.0524 39.8338 12.0844 39.8398C12.3427 39.886 12.3937 39.6952 12.4743 39.521C13.0241 38.3359 13.5787 37.1508 14.1334 35.9598C14.1554 35.9028 14.1929 35.8531 14.2417 35.8162C14.2905 35.7794 14.3486 35.7569 14.4095 35.7513C14.8089 35.6873 15.2059 35.6043 15.6076 35.5474C15.6682 35.5444 15.7262 35.5217 15.7728 35.4828C15.8194 35.4439 15.8521 35.3909 15.8659 35.3318C16.1764 34.4489 16.4952 33.5695 16.814 32.689C16.9088 32.4236 16.91 32.42 17.1814 32.5148C18.6633 33.0356 20.2366 33.2454 21.8032 33.1311C24.3242 32.9595 26.7242 31.9856 28.652 30.3521C30.5798 28.7185 31.9343 26.5109 32.5174 24.0522C32.5396 23.9993 32.5432 23.9404 32.5277 23.8851C32.5122 23.8298 32.4785 23.7814 32.4321 23.7477C32.3575 23.6828 32.3069 23.5946 32.2884 23.4975C32.2699 23.4003 32.2846 23.2998 32.3302 23.212C32.3723 23.1239 32.4418 23.0517 32.5283 23.0063C32.6147 22.9608 32.7136 22.9444 32.8101 22.9596C32.9066 22.9748 32.9956 23.0207 33.0639 23.0905C33.1323 23.1603 33.1762 23.2503 33.1893 23.3471C33.2107 23.4482 33.1938 23.5536 33.1419 23.6429C33.09 23.7322 33.0068 23.7991 32.9085 23.8306C32.7414 23.8768 32.7094 23.9788 32.6715 24.1174C31.7649 27.6726 29.6993 30.3248 26.4439 32.023C25.0278 32.7484 23.4809 33.1832 21.8942 33.3016C20.3075 33.4201 18.7132 33.2199 17.2051 32.7127C17.1446 32.6867 17.0818 32.6701 16.9965 32.644Z" fill="white"/>
  <path d="M31.5504 28.8459C29.211 31.9698 26.1275 33.7936 22.2298 34.225C22.2653 34.6587 22.2961 35.0759 22.3329 35.493C22.3921 36.1709 22.4597 36.8487 22.513 37.5278C22.5084 37.5816 22.5252 37.6351 22.5598 37.6766C22.5944 37.7181 22.6441 37.7443 22.6979 37.7494C23.6317 37.9781 24.5632 38.2234 25.497 38.445C25.5603 38.4543 25.619 38.4838 25.6643 38.529C25.7095 38.5743 25.739 38.6329 25.7482 38.6963C25.9402 39.4298 26.1417 40.161 26.3408 40.8946C26.3465 40.9456 26.3693 40.9933 26.4054 41.0298C26.4415 41.0664 26.4889 41.0897 26.5399 41.096C26.64 41.1172 26.7296 41.173 26.7926 41.2536C26.8557 41.3343 26.8883 41.4346 26.8847 41.5369C26.8831 41.6325 26.8521 41.7253 26.7959 41.8027C26.7398 41.8801 26.6611 41.9383 26.5707 41.9694C26.4729 42.001 26.3674 41.9988 26.2711 41.9631C26.1748 41.9274 26.0933 41.8603 26.0398 41.7727C25.9808 41.6883 25.9547 41.5853 25.9662 41.483C25.9778 41.3806 26.0263 41.286 26.1026 41.2169C26.1488 41.183 26.1818 41.1341 26.1959 41.0785C26.21 41.0229 26.2042 40.9642 26.1796 40.9124C25.9868 40.2013 25.7972 39.4938 25.6108 38.7899C25.6035 38.7388 25.5798 38.6915 25.5432 38.6552C25.5067 38.6188 25.4592 38.5954 25.4081 38.5884C24.4672 38.3597 23.5298 38.1203 22.59 37.8916C22.5264 37.8867 22.4672 37.8573 22.4249 37.8095C22.3827 37.7617 22.3607 37.6993 22.3637 37.6356C22.2724 36.5252 22.1705 35.4172 22.065 34.3079C22.0461 34.1124 22.1077 34.0579 22.302 34.0366C25.056 33.771 27.6444 32.6004 29.6625 30.7077C30.3059 30.119 30.8844 29.4631 31.388 28.7511C31.4828 28.6172 31.5563 28.6326 31.6736 28.7156C32.4589 29.2686 33.249 29.8216 34.0437 30.3747C34.1349 30.4345 34.2417 30.4658 34.3507 30.4647C35.1364 30.4517 35.9209 30.4233 36.7078 30.4091C36.8047 30.411 36.8994 30.4379 36.9827 30.4873C37.5231 30.793 38.0615 31.1039 38.598 31.4199C38.6354 31.4495 38.6818 31.4656 38.7295 31.4656C38.7773 31.4656 38.8236 31.4495 38.8611 31.4199C38.9472 31.3574 39.0536 31.3294 39.1593 31.3414C39.2651 31.3535 39.3625 31.4048 39.4323 31.4851C39.4978 31.5587 39.5395 31.6503 39.552 31.748C39.5645 31.8457 39.5471 31.9449 39.5022 32.0326C39.4511 32.1171 39.3748 32.1836 39.2841 32.2227C39.1934 32.2618 39.0927 32.2716 38.9962 32.2507C38.8925 32.2282 38.8006 32.1686 38.7379 32.083C38.6752 31.9973 38.6461 31.8917 38.6561 31.7861C38.6608 31.7381 38.6499 31.6899 38.6249 31.6486C38.5999 31.6074 38.5622 31.5754 38.5174 31.5574C37.9889 31.2564 37.4651 30.9471 36.933 30.6496C36.8416 30.6017 36.7398 30.5772 36.6367 30.5785C35.8711 30.5904 35.1044 30.6176 34.3388 30.6235C34.1986 30.6229 34.0616 30.5817 33.9442 30.505C33.1869 29.9895 32.438 29.4598 31.6866 28.9348C31.6487 28.9016 31.5978 28.8756 31.5504 28.8459Z" fill="white"/>
  <path d="M42.0359 17.7357C42.0375 17.8263 42.0102 17.9151 41.958 17.9892C41.9058 18.0634 41.8314 18.119 41.7456 18.1481C41.662 18.1892 41.5666 18.1998 41.476 18.1782C41.3854 18.1566 41.3051 18.104 41.249 18.0296C41.1507 17.8945 41.0488 17.9028 40.9113 17.9265C39.2396 18.2243 37.5658 18.5194 35.8901 18.8117C34.596 19.0409 33.3019 19.2704 32.0078 19.5003C31.7305 19.5489 31.7258 19.5512 31.6713 19.2822C31.2424 17.053 30.123 15.0152 28.4716 13.4576C27.6695 12.6905 26.7492 12.0574 25.7459 11.5828C25.5634 11.4963 25.5492 11.4216 25.6333 11.2439C26.4475 9.51603 27.2498 7.78108 28.0627 6.05206C28.122 5.92526 28.0568 5.86482 28.0023 5.77831C27.9376 5.67821 27.9145 5.5568 27.938 5.43993C27.9614 5.32306 28.0296 5.21996 28.1279 5.15259C28.2277 5.08745 28.3483 5.06225 28.4658 5.08201C28.5833 5.10177 28.689 5.16505 28.7619 5.25925C28.8334 5.35459 28.8646 5.47415 28.8489 5.59226C28.8331 5.71036 28.7717 5.81758 28.6778 5.89089C28.6195 5.94273 28.5458 5.97396 28.468 5.97977C28.2796 5.95963 28.231 6.07339 28.1623 6.21679C27.3896 7.88537 26.6134 9.55198 25.8336 11.2166C25.7673 11.3588 25.7933 11.4121 25.9272 11.4821C29.0961 13.1293 31.0645 15.697 31.8325 19.185C31.8645 19.3308 31.9249 19.3486 32.0458 19.3261C34.2287 18.9382 36.4112 18.5518 38.5933 18.1671C39.366 18.0308 40.1339 17.8945 40.9113 17.763C40.9685 17.7627 41.024 17.7433 41.0689 17.7079C41.1137 17.6724 41.1455 17.623 41.159 17.5674C41.1901 17.4658 41.2576 17.3793 41.3486 17.3244C41.4396 17.2695 41.5476 17.2501 41.652 17.27C41.7618 17.2873 41.8615 17.3442 41.9323 17.43C42.003 17.5158 42.0399 17.6246 42.0359 17.7357Z" fill="white"/>
  <path d="M27.0897 11.0329C28.5395 11.8945 29.7951 13.0468 30.7777 14.4175L32.1559 13.454C32.7034 13.0701 33.2521 12.6885 33.7961 12.3009C33.8154 12.2821 33.8383 12.2673 33.8635 12.2576C33.8887 12.248 33.9156 12.2436 33.9426 12.2447C33.9696 12.2458 33.9961 12.2524 34.0204 12.2641C34.0447 12.2758 34.0664 12.2924 34.084 12.3128C34.7619 12.8804 35.4481 13.4374 36.1259 14.0051C36.169 14.0523 36.2271 14.0833 36.2903 14.0928C36.3535 14.1023 36.4181 14.0897 36.4731 14.0572C37.4291 13.6029 38.389 13.1546 39.3529 12.7122C39.4643 12.6612 39.4773 12.5937 39.4856 12.4834C39.4955 12.3713 39.5458 12.2667 39.6271 12.1889C39.7084 12.111 39.8152 12.0654 39.9276 12.0604C40.0437 12.0595 40.1561 12.1012 40.2435 12.1776C40.3309 12.2541 40.3872 12.36 40.4017 12.4751C40.4137 12.5839 40.3854 12.6932 40.322 12.7824C40.2586 12.8716 40.1646 12.9343 40.058 12.9587C39.9255 12.9773 39.7906 12.9506 39.6752 12.8828C39.6355 12.8521 39.5873 12.8341 39.5372 12.8314C39.487 12.8286 39.4372 12.8412 39.3944 12.8674C38.4013 13.3414 37.4046 13.7977 36.4115 14.2682C36.365 14.2961 36.3103 14.3071 36.2566 14.2996C36.2029 14.292 36.1535 14.2663 36.1164 14.2267C35.4362 13.6614 34.7489 13.1056 34.071 12.5391C34.0537 12.5186 34.0324 12.5018 34.0083 12.4899C33.9842 12.478 33.9579 12.4712 33.9311 12.47C33.9042 12.4688 33.8774 12.4731 33.8524 12.4828C33.8273 12.4924 33.8045 12.5072 33.7854 12.5261C32.8302 13.1945 31.8691 13.8522 30.9152 14.523C30.7623 14.6296 30.69 14.6047 30.5881 14.4613C29.6486 13.1453 28.4445 12.0401 27.053 11.2166C26.8883 11.1182 26.8729 11.0436 26.9665 10.8812C28.0117 9.08228 29.0538 7.28058 30.0927 5.47611C30.4127 4.92031 30.7303 4.36332 31.0585 3.817C31.0978 3.76604 31.119 3.70354 31.119 3.63924C31.119 3.57494 31.0978 3.51245 31.0585 3.46148C31.0291 3.4088 31.0107 3.35062 31.0047 3.29055C30.9987 3.23048 31.0051 3.16981 31.0236 3.11234C31.042 3.05486 31.0721 3.00179 31.112 2.95645C31.1519 2.91111 31.2006 2.87447 31.2553 2.8488C31.3653 2.79568 31.4919 2.78844 31.6072 2.82867C31.7226 2.86889 31.8172 2.95329 31.8703 3.0633C31.9234 3.1733 31.9307 3.2999 31.8905 3.41525C31.8502 3.53059 31.7658 3.62523 31.6558 3.67835C31.6223 3.69893 31.5838 3.70999 31.5444 3.71035C31.3074 3.65465 31.2363 3.82886 31.1439 3.99121C29.8213 6.28393 28.4972 8.57784 27.1715 10.8729C27.1454 10.918 27.1253 10.9642 27.0897 11.0329Z" fill="white"/>
  <path d="M8.49362 18.0867C7.97811 17.9468 7.45668 17.8425 6.9625 17.6624C6.51336 17.4989 6.14243 17.5712 5.75017 17.8105C5.35791 18.0499 4.94077 18.2384 4.52955 18.441C4.45576 18.4759 4.37343 18.4887 4.29253 18.4777C3.22597 18.2917 2.1594 18.0997 1.09284 17.9089C1.04438 17.8911 0.991256 17.8906 0.942451 17.9074C0.893646 17.9242 0.852159 17.9574 0.825011 18.0013C0.765314 18.0874 0.676205 18.1486 0.574481 18.1735C0.472757 18.1984 0.365442 18.1852 0.272766 18.1364C0.179579 18.0953 0.102821 18.0243 0.054715 17.9345C0.00660902 17.8447 -0.0100786 17.7414 0.00731006 17.6411C0.0264699 17.5407 0.0775483 17.4492 0.152932 17.3802C0.228317 17.3113 0.323971 17.2685 0.425641 17.2583C0.527794 17.25 0.629676 17.2773 0.713944 17.3356C0.798213 17.394 0.859658 17.4797 0.887819 17.5783C0.89776 17.6253 0.923063 17.6678 0.959747 17.6989C0.996431 17.73 1.04242 17.748 1.09047 17.7501C2.14637 17.9362 3.20227 18.1234 4.25935 18.3035C4.34898 18.3121 4.43916 18.2944 4.51888 18.2526C5.06283 17.9776 5.59967 17.692 6.14362 17.423C6.23851 17.3731 6.34715 17.3556 6.45292 17.3733C7.12486 17.5451 7.79087 17.7359 8.46162 17.9101C8.63938 17.9575 8.69864 18.0179 8.64886 18.2206C7.95678 21.1133 8.18431 23.9303 9.42627 26.6405C9.73083 27.303 10.1373 27.9228 10.5059 28.5532C10.5936 28.7014 10.5853 28.7689 10.4442 28.8661C9.47012 29.5404 8.50073 30.2242 7.52778 30.9009C7.47615 30.9266 7.43418 30.9682 7.40813 31.0197C7.38208 31.0711 7.37334 31.1296 7.3832 31.1865C7.3988 31.2881 7.37652 31.3919 7.32059 31.4782C7.26466 31.5645 7.17898 31.6273 7.07982 31.6546C6.98555 31.6843 6.88421 31.683 6.79075 31.6508C6.69729 31.6186 6.61666 31.5572 6.56076 31.4756C6.5069 31.3927 6.48033 31.2949 6.4848 31.1961C6.48926 31.0973 6.52452 31.0023 6.58565 30.9246C6.65416 30.8498 6.74426 30.7982 6.84344 30.7769C6.94262 30.7557 7.04595 30.7659 7.13908 30.8061C7.21503 30.8371 7.30015 30.8371 7.37609 30.8061C8.35496 30.127 9.32909 29.4385 10.3032 28.7535C10.3273 28.7393 10.3527 28.7274 10.3791 28.718C8.21157 25.427 7.59178 21.899 8.49362 18.0867Z" fill="white"/>
  <path d="M11.7727 29.0023C11.4172 28.4809 11.0616 27.9903 10.7464 27.47C9.8347 25.9553 9.27875 24.2535 9.12048 22.4927C8.93414 20.5812 9.21517 18.6531 9.93937 16.8743C9.96348 16.8331 9.97287 16.785 9.96597 16.7378C9.95908 16.6907 9.93632 16.6472 9.90144 16.6147C9.83321 16.5382 9.79414 16.44 9.79111 16.3375C9.78807 16.235 9.82127 16.1347 9.88485 16.0542C9.94282 15.9781 10.0228 15.9216 10.114 15.8926C10.2052 15.8635 10.3031 15.8633 10.3944 15.8918C10.4883 15.9233 10.5693 15.9845 10.6252 16.0662C10.681 16.1479 10.7086 16.2457 10.7037 16.3445C10.7087 16.4468 10.6748 16.5471 10.6088 16.6253C10.5429 16.7036 10.4498 16.754 10.3482 16.7664C10.1657 16.7854 10.1112 16.8849 10.0614 17.0271C9.29306 18.971 9.05451 21.084 9.37016 23.1503C9.6858 25.2166 10.5443 27.162 11.858 28.7878C12.0369 29.0094 12.0369 29.0082 11.813 29.1955C9.73909 30.9336 7.66521 32.6717 5.59133 34.4098C5.49653 34.4892 5.42779 34.5567 5.47283 34.7049C5.49423 34.8014 5.48249 34.9023 5.43948 34.9913C5.39648 35.0803 5.32473 35.1523 5.23581 35.1955C5.14379 35.2406 5.03942 35.2539 4.93902 35.2334C4.83863 35.2128 4.74787 35.1596 4.68096 35.082C4.61405 35.0044 4.57475 34.9067 4.56922 34.8044C4.56369 34.7021 4.59223 34.6008 4.65039 34.5164C4.70672 34.435 4.78839 34.3745 4.88269 34.3443C4.977 34.314 5.07864 34.3158 5.17182 34.3494C5.21824 34.3768 5.27242 34.3882 5.32598 34.3818C5.37954 34.3754 5.42948 34.3515 5.46809 34.3138C7.54591 32.5607 9.62651 30.8107 11.7099 29.0639C11.7312 29.039 11.7537 29.0189 11.7727 29.0023Z" fill="white"/>
  <path d="M17.1707 11.0175L16.8057 10.0078C16.7038 9.72461 16.6078 9.439 16.4952 9.15932C16.47 9.11071 16.4614 9.05515 16.4709 9.0012C16.4803 8.94725 16.5072 8.89788 16.5474 8.86069C17.2845 8.04457 18.0192 7.22529 18.7516 6.40284C18.9886 6.1445 19.2256 5.89089 19.4425 5.62425C19.5057 5.54494 19.5393 5.446 19.5373 5.34457C19.4863 4.6596 19.4188 3.97463 19.3607 3.28966C19.3638 3.24217 19.3508 3.19502 19.324 3.15572C19.2971 3.11643 19.2579 3.08723 19.2126 3.07279C19.1162 3.03761 19.0353 2.96967 18.9839 2.88085C18.9326 2.79203 18.9141 2.68798 18.9317 2.58691C18.9478 2.48581 18.9977 2.39316 19.0733 2.32407C19.1488 2.25498 19.2456 2.21354 19.3477 2.2065C19.4499 2.19426 19.5533 2.21811 19.6398 2.27394C19.7264 2.32976 19.7907 2.41405 19.8217 2.51225C19.8524 2.60938 19.851 2.71381 19.8177 2.81007C19.7844 2.90634 19.721 2.98932 19.6368 3.04672C19.6073 3.07079 19.583 3.10067 19.5655 3.13451C19.548 3.16835 19.5376 3.20542 19.5349 3.24344C19.5871 3.95448 19.6471 4.66553 19.7151 5.37657C19.7242 5.43352 19.7198 5.49181 19.7023 5.54677C19.6849 5.60172 19.6547 5.6518 19.6143 5.69299C18.6568 6.75955 17.7052 7.83441 16.7465 8.90098C16.7067 8.93768 16.68 8.98634 16.6704 9.03959C16.6607 9.09283 16.6687 9.14777 16.6931 9.19606C16.9088 9.76608 17.1091 10.3408 17.3248 10.9085C17.384 11.0661 17.3556 11.1325 17.1932 11.1953C15.4985 11.8315 13.9927 12.8872 12.8167 14.2634C12.6982 14.4056 12.6153 14.4139 12.4743 14.2883C12.0761 13.9387 11.6625 13.6057 11.2596 13.2597C11.229 13.2229 11.1865 13.198 11.1394 13.1896C11.0924 13.1811 11.0438 13.1896 11.0024 13.2135C10.9091 13.2563 10.8038 13.2652 10.7047 13.2386C10.6056 13.212 10.5189 13.1515 10.4596 13.0677C10.4038 12.9866 10.374 12.8906 10.374 12.7922C10.374 12.6938 10.4038 12.5977 10.4596 12.5166C10.5193 12.4333 10.6054 12.3726 10.7039 12.3444C10.8025 12.3162 10.9077 12.3222 11.0024 12.3614C11.1004 12.3936 11.1831 12.4609 11.2345 12.5504C11.2859 12.6399 11.3024 12.7452 11.2809 12.8461C11.2655 12.9075 11.27 12.9722 11.2939 13.0308C11.3178 13.0894 11.3597 13.1388 11.4136 13.172C11.8189 13.5026 12.2183 13.8415 12.6402 14.1947C13.8604 12.7729 15.4183 11.6804 17.1707 11.0175Z" fill="white"/>
  <path d="M28.532 10.7629L30.9021 12.9257C30.8855 12.9352 30.9211 12.9257 30.9495 12.8972C31.5823 12.3675 32.2164 11.839 32.8456 11.2998C32.9355 11.2188 32.998 11.112 33.0246 10.994C33.168 10.3019 33.2924 9.6063 33.4334 8.91421C33.458 8.82091 33.5076 8.73609 33.5768 8.6689C34.1385 8.10007 34.7034 7.53439 35.2715 6.97188C35.3497 6.89366 35.4007 6.83204 35.3532 6.70405C35.3185 6.60753 35.3194 6.50173 35.3559 6.40584C35.3925 6.30996 35.4621 6.23034 35.5523 6.18144C35.6403 6.12908 35.7431 6.10731 35.8447 6.11953C35.9463 6.13175 36.041 6.17727 36.1141 6.24899C36.1844 6.32278 36.2291 6.41728 36.2415 6.51846C36.2538 6.61965 36.2333 6.72214 36.1828 6.81071C36.1333 6.90062 36.0534 6.96993 35.9574 7.0062C35.8614 7.04248 35.7556 7.04333 35.659 7.00862C35.6123 6.98798 35.5599 6.98427 35.5108 6.99811C35.4617 7.01196 35.419 7.04249 35.39 7.08446C34.8366 7.64382 34.2772 8.19606 33.7309 8.75897C33.6533 8.84401 33.6001 8.94841 33.5768 9.06116C33.437 9.74732 33.3126 10.4358 33.1739 11.122C33.1531 11.2159 33.1034 11.3009 33.0317 11.3649C32.355 11.9444 31.67 12.5133 30.9922 13.0928C30.8737 13.1935 30.812 13.1852 30.7113 13.0679C30.0497 12.2873 29.2933 11.5922 28.4597 10.9988C28.3021 10.8874 28.2961 10.808 28.404 10.6563C29.038 9.7651 29.6613 8.86563 30.2918 7.97208C30.3736 7.85357 30.4269 7.76232 30.3404 7.60708C30.2976 7.5139 30.2894 7.40848 30.3175 7.30983C30.3455 7.21118 30.4078 7.12579 30.4933 7.06906C30.5735 7.01059 30.6707 6.97991 30.7699 6.98166C30.8692 6.98341 30.9652 7.01751 31.0434 7.07876C31.1215 7.14002 31.1775 7.2251 31.203 7.32109C31.2284 7.41708 31.2218 7.51873 31.1842 7.61063C31.1437 7.70764 31.0722 7.78845 30.9808 7.84036C30.8894 7.89228 30.7834 7.91235 30.6793 7.89742C30.6471 7.89516 30.6148 7.8998 30.5846 7.91104C30.5543 7.92228 30.5268 7.93986 30.5039 7.9626C29.8308 8.90355 29.1707 9.84924 28.532 10.7629Z" fill="white"/>
  <path d="M20.9321 34.2925C20.4984 34.2606 20.0919 34.2511 19.6925 34.1954C19.1 34.1124 18.5075 33.9998 17.9149 33.8932C17.8047 33.873 17.7526 33.8778 17.7194 34.001C17.0976 36.3261 16.4743 38.6505 15.8493 40.974C15.8447 41.012 15.8483 41.0506 15.8597 41.0872C15.8712 41.1238 15.8902 41.1575 15.9157 41.1861C15.9958 41.2598 16.0489 41.3582 16.0665 41.4656C16.0841 41.573 16.0652 41.6832 16.0129 41.7787C15.9602 41.8644 15.8811 41.9308 15.7875 41.9677C15.6938 42.0046 15.5907 42.0101 15.4937 41.9834C15.3966 41.9567 15.3109 41.8991 15.2494 41.8195C15.1878 41.7398 15.1538 41.6423 15.1525 41.5416C15.1525 41.3224 15.303 41.1612 15.54 41.0818C15.5773 41.0642 15.6103 41.0388 15.6369 41.0073C15.6635 40.9758 15.683 40.939 15.6941 40.8993C16.2345 38.9052 16.7709 36.9096 17.3034 34.9123C17.3994 34.5568 17.4978 34.193 17.5879 33.8316C17.621 33.6976 17.6874 33.6668 17.813 33.7012C18.8262 33.9683 19.8689 34.1072 20.9167 34.1148C21.0838 34.1148 21.1087 34.1859 21.1075 34.3281C21.1075 35.5926 21.1075 36.8582 21.1075 38.1203C21.1075 38.2495 21.1075 38.3479 21.2604 38.4166C21.3515 38.4646 21.4222 38.544 21.4593 38.6401C21.4963 38.7362 21.4972 38.8425 21.4619 38.9392C21.4326 39.0315 21.3751 39.1122 21.2975 39.1699C21.2198 39.2276 21.126 39.2595 21.0293 39.2609C20.9325 39.2624 20.8378 39.2333 20.7584 39.1779C20.6791 39.1225 20.6192 39.0436 20.5873 38.9523C20.5508 38.8561 20.5496 38.7501 20.5839 38.6531C20.6182 38.5561 20.6857 38.4744 20.7745 38.4225C20.8327 38.3965 20.8804 38.3519 20.9103 38.2956C20.9401 38.2394 20.9503 38.1748 20.9392 38.112C20.9392 36.9127 20.9392 35.7135 20.9392 34.5142L20.9321 34.2925Z" fill="white"/>
  <path d="M31.6037 30.3356C31.2352 30.7113 30.8927 31.0822 30.5288 31.4282C28.7439 33.1353 26.5274 34.3235 24.1176 34.865C23.9707 34.8981 23.8676 34.9349 23.8213 35.1138C23.7692 35.32 23.5618 35.4077 23.3319 35.3781C23.2412 35.365 23.1569 35.3235 23.0912 35.2597C23.0254 35.1958 22.9815 35.1129 22.9657 35.0226C22.9458 34.9256 22.9581 34.8248 23.0009 34.7355C23.0437 34.6463 23.1146 34.5735 23.2027 34.5284C23.2896 34.4801 23.3904 34.4633 23.4882 34.4808C23.5861 34.4983 23.6748 34.549 23.7396 34.6244C23.8391 34.763 23.941 34.75 24.0738 34.718C26.3845 34.1938 28.5161 33.0697 30.2539 31.4591C30.6616 31.0822 31.0384 30.6698 31.4165 30.2621C31.5279 30.1436 31.599 30.1353 31.721 30.2384C33.3319 31.5878 34.9413 32.9372 36.549 34.2866C36.5851 34.3312 36.6352 34.3622 36.6912 34.3745C36.7472 34.3868 36.8057 34.3796 36.8571 34.3542C36.9514 34.314 37.0569 34.3087 37.1548 34.3391C37.2527 34.3695 37.3366 34.4336 37.3916 34.5201C37.4449 34.6033 37.4714 34.7008 37.4676 34.7996C37.4638 34.8983 37.4298 34.9935 37.3703 35.0723C37.3061 35.1474 37.2201 35.2005 37.1243 35.2243C37.0285 35.2481 36.9276 35.2414 36.8358 35.2051C36.7418 35.1712 36.663 35.1048 36.6139 35.0178C36.5647 34.9308 36.5485 34.829 36.568 34.731C36.5856 34.6641 36.581 34.5933 36.5549 34.5292C36.5288 34.4651 36.4827 34.4112 36.4234 34.3755C34.8504 33.0601 33.2806 31.7423 31.7139 30.4221C31.6796 30.3937 31.6487 30.3664 31.6037 30.3356Z" fill="white"/>
  <path d="M7.60834 24.8592C7.22144 23.3446 7.08375 21.7772 7.20067 20.2184L6.03575 20.1106L4.31502 19.9601C4.14674 19.9447 3.99387 19.9162 3.88365 20.1201C3.79596 20.2824 3.54591 20.3132 3.36815 20.2386C3.28295 20.1999 3.21151 20.1363 3.16334 20.0561C3.11517 19.9759 3.09254 19.8829 3.09846 19.7896C3.10437 19.6962 3.13855 19.6068 3.19646 19.5334C3.25437 19.4599 3.33326 19.4058 3.42266 19.3782C3.62886 19.3249 3.8564 19.3889 3.92869 19.5773C4.00098 19.7657 4.1337 19.7847 4.28421 19.7989C5.24886 19.8807 6.21351 19.9648 7.17934 20.0359C7.34644 20.049 7.38554 20.1141 7.37251 20.2729C7.24381 21.7764 7.37205 23.2909 7.75173 24.7513C7.79914 24.9398 7.77543 25.0227 7.57516 25.0606C7.30022 25.1151 7.03121 25.204 6.75627 25.2621C6.68663 25.2718 6.62183 25.3032 6.57117 25.352C6.5205 25.4007 6.48657 25.4643 6.47423 25.5335C6.19573 26.5147 5.90183 27.4924 5.62216 28.4736C5.60715 28.5334 5.57768 28.5885 5.53635 28.6342C5.49502 28.6799 5.44309 28.7147 5.38514 28.7355C5.05095 28.886 4.72269 29.0484 4.38968 29.2013C4.34373 29.2155 4.30359 29.2442 4.2752 29.283C4.24681 29.3219 4.23169 29.3688 4.23207 29.417C4.23292 29.5168 4.19724 29.6134 4.13175 29.6887C4.06626 29.764 3.97549 29.8128 3.87654 29.8258C3.77648 29.8477 3.67196 29.835 3.58005 29.7898C3.48814 29.7446 3.41427 29.6696 3.37052 29.5769C3.32969 29.4871 3.31836 29.3867 3.33816 29.29C3.35796 29.1934 3.40787 29.1055 3.48073 29.0389C3.55581 28.969 3.65301 28.9277 3.75542 28.922C3.85784 28.9164 3.95899 28.9469 4.04127 29.0081C4.08193 29.044 4.13341 29.0652 4.18753 29.0684C4.24164 29.0716 4.29528 29.0567 4.33991 29.0259C4.65158 28.8742 4.97037 28.7379 5.27967 28.5803C5.3621 28.5359 5.42505 28.4624 5.45625 28.3741C5.75094 27.3834 6.03851 26.3911 6.31898 25.3972C6.32949 25.3242 6.36334 25.2566 6.41546 25.2045C6.46758 25.1524 6.53518 25.1185 6.60814 25.108C6.9447 25.0429 7.26348 24.9492 7.60834 24.8592Z" fill="white"/>
  <path d="M30.5146 32.7944C29.8036 33.2685 29.1411 33.7591 28.4301 34.1703C27.7191 34.5815 26.9642 34.9145 26.2045 35.2938C26.2116 35.334 26.2219 35.3737 26.2353 35.4123C26.4984 36.1383 26.7615 36.8644 27.0246 37.5904C27.0637 37.7006 27.104 37.7777 27.2486 37.7883C27.3498 37.8049 27.4421 37.856 27.5099 37.9329C27.5777 38.0098 27.6169 38.1078 27.6207 38.2102C27.6251 38.3098 27.5971 38.408 27.5408 38.4903C27.4846 38.5725 27.4031 38.6342 27.3088 38.6662C27.2144 38.6981 27.1122 38.6986 27.0176 38.6674C26.9229 38.6363 26.841 38.5752 26.784 38.4935C26.7237 38.4145 26.6928 38.3169 26.6967 38.2176C26.7006 38.1183 26.739 38.0235 26.8054 37.9495C26.851 37.9098 26.8813 37.8553 26.891 37.7956C26.9008 37.7359 26.8893 37.6746 26.8587 37.6224C26.5853 36.8798 26.3147 36.1359 26.0469 35.3909C25.958 35.148 25.9592 35.1539 26.201 35.0567C27.6925 34.4941 29.0796 33.6862 30.3049 32.6664C30.4554 32.5396 30.5419 32.5385 30.6604 32.6973C30.914 33.022 31.1937 33.3265 31.4497 33.6453C31.4876 33.6973 31.539 33.7379 31.5983 33.763C31.6576 33.788 31.7225 33.7965 31.7862 33.7875C32.31 33.7603 32.8326 33.7378 33.3564 33.7295C33.4568 33.7321 33.553 33.7703 33.6278 33.8373C33.8648 34.0494 34.0782 34.2758 34.2974 34.5021C34.3255 34.5411 34.3661 34.5693 34.4123 34.5823C34.4586 34.5952 34.5079 34.592 34.5522 34.5732C34.6528 34.5408 34.7617 34.5451 34.8595 34.5852C34.9573 34.6253 35.0378 34.6987 35.0867 34.7925C35.134 34.8832 35.1503 34.9869 35.1329 35.0878C35.1156 35.1886 35.0656 35.281 34.9907 35.3506C34.9188 35.4188 34.8264 35.4614 34.7279 35.4719C34.6294 35.4824 34.5302 35.4602 34.4455 35.4087C34.3536 35.3567 34.2832 35.2735 34.2472 35.1742C34.2111 35.0749 34.2117 34.966 34.2488 34.8671C34.2676 34.827 34.2721 34.7817 34.2618 34.7387C34.2515 34.6956 34.2268 34.6573 34.1919 34.6301C33.9739 34.4215 33.7689 34.1999 33.5472 33.9961C33.4763 33.9346 33.3863 33.8994 33.2925 33.8966C32.7556 33.906 32.2188 33.9262 31.6819 33.9523C31.621 33.958 31.5597 33.9475 31.5041 33.9219C31.4486 33.8963 31.4007 33.8565 31.3655 33.8065C31.0823 33.4628 30.7884 33.1203 30.5146 32.7944Z" fill="white"/>
  <path d="M14.0789 11.5745L12.959 9.96995C12.4458 9.23521 11.9339 8.49809 11.4184 7.7669C11.3842 7.72474 11.3634 7.67329 11.3588 7.61921C11.3541 7.56513 11.3658 7.5109 11.3923 7.46352C11.589 7.00016 11.7739 6.53205 11.9742 6.06988C11.9983 6.02093 12.0088 5.96639 12.0047 5.91198C12.0005 5.85757 11.9818 5.80528 11.9505 5.76057C11.5807 5.12853 11.2153 4.49333 10.8543 3.85497C10.8353 3.80381 10.7992 3.76077 10.7521 3.73314C10.705 3.7055 10.6499 3.69495 10.5959 3.70328C10.4902 3.71456 10.3841 3.68538 10.2991 3.62162C10.214 3.55786 10.1562 3.46425 10.1373 3.35961C10.1151 3.26312 10.1245 3.16204 10.1642 3.07133C10.2039 2.98062 10.2718 2.9051 10.3577 2.85596C10.4418 2.81209 10.537 2.79387 10.6314 2.80356C10.7257 2.81325 10.8152 2.85042 10.8886 2.91047C10.971 2.97751 11.026 3.07236 11.0432 3.17715C11.0605 3.28193 11.0388 3.38941 10.9823 3.47931C10.9495 3.52274 10.9327 3.57614 10.9346 3.63052C10.9365 3.6849 10.9571 3.73695 10.9929 3.77794C11.3591 4.40485 11.7146 5.03886 12.0879 5.66103C12.1373 5.73252 12.166 5.81621 12.1711 5.90294C12.1761 5.98968 12.1572 6.07612 12.1164 6.15283C11.9315 6.56405 11.7727 6.98238 11.5914 7.40071C11.56 7.45949 11.5469 7.52627 11.5537 7.59255C11.5604 7.65882 11.5868 7.72158 11.6293 7.77283C12.4841 8.9816 13.3346 10.1927 14.1808 11.4063C14.3396 11.6326 14.3337 11.6279 14.1168 11.7961C13.8004 12.0403 13.4934 12.2963 13.1818 12.5451C13.1236 12.5783 13.0785 12.6303 13.0539 12.6926C13.0294 12.7549 13.0268 12.8237 13.0467 12.8876C13.074 12.9974 13.0568 13.1136 12.9989 13.2108C12.941 13.308 12.847 13.3784 12.7374 13.4067C12.6324 13.4368 12.5201 13.4285 12.4207 13.383C12.3214 13.3376 12.2416 13.2581 12.1958 13.159C12.145 13.0619 12.1334 12.949 12.1634 12.8436C12.1934 12.7382 12.2627 12.6483 12.357 12.5925C12.4755 12.5333 12.6295 12.5522 12.7682 12.5368C12.8274 12.5309 12.9056 12.5534 12.9436 12.5226C13.3192 12.2109 13.6925 11.8981 14.0789 11.5745Z" fill="white"/>
  <path d="M6.40667 23.8412C6.36638 23.5082 6.32253 23.1929 6.28816 22.8753C6.25379 22.5577 6.2372 22.2757 6.22061 21.9747C6.22482 21.9304 6.21494 21.886 6.19238 21.8477C6.16982 21.8094 6.13574 21.7791 6.09499 21.7614C6.00235 21.7162 5.92767 21.6412 5.88303 21.5483C5.83839 21.4554 5.82641 21.3502 5.84904 21.2497C5.87167 21.1491 5.92758 21.0592 6.00771 20.9944C6.08784 20.9296 6.18749 20.8938 6.29053 20.8927C6.39265 20.8903 6.49269 20.9218 6.57503 20.9822C6.65736 21.0427 6.71734 21.1287 6.7456 21.2269C6.77538 21.329 6.76789 21.4383 6.72447 21.5353C6.68105 21.6324 6.60453 21.7108 6.50858 21.7566C6.46357 21.7731 6.42638 21.8058 6.40443 21.8484C6.38247 21.891 6.37735 21.9403 6.39008 21.9865C6.45644 22.598 6.50858 23.2095 6.58561 23.8198C6.6022 23.9561 6.55599 23.9893 6.43748 24.0106C5.42069 24.1872 4.40508 24.3662 3.38829 24.551C2.62273 24.6861 1.85717 24.8177 1.09162 24.9516C1.04257 24.9533 0.995574 24.9717 0.958479 25.0038C0.921384 25.036 0.896431 25.0798 0.887783 25.1282C0.860793 25.2275 0.798477 25.3137 0.712517 25.3704C0.626557 25.4271 0.522859 25.4506 0.420863 25.4363C0.32147 25.4291 0.227177 25.3895 0.152461 25.3236C0.0777449 25.2576 0.026738 25.169 0.00727324 25.0713C-0.0100473 24.974 0.00348871 24.8737 0.0459867 24.7844C0.0884846 24.6952 0.157818 24.6214 0.244288 24.5735C0.333649 24.5226 0.438333 24.5055 0.539264 24.5253C0.640196 24.5451 0.730656 24.6005 0.794162 24.6814C0.886597 24.8082 0.977848 24.7999 1.11176 24.7809C2.78982 24.4823 4.46868 24.1868 6.14832 23.8945C6.23483 23.8803 6.31542 23.8601 6.40667 23.8412Z" fill="white"/>
  <path d="M32.611 18.1554L34.3638 17.6813C35.3806 17.4088 36.3962 17.1338 37.4141 16.8636C37.5327 16.8316 37.6192 16.7996 37.6441 16.648C37.6676 16.5514 37.7232 16.4657 37.8018 16.4047C37.8803 16.3438 37.9772 16.3113 38.0766 16.3126C38.1723 16.3154 38.265 16.3469 38.3427 16.4028C38.4205 16.4588 38.4796 16.5367 38.5127 16.6266C38.5434 16.7209 38.5432 16.8224 38.5123 16.9166C38.4815 17.0108 38.4214 17.0926 38.3409 17.1504C38.1726 17.2689 37.9273 17.2832 37.8005 17.1279C37.6737 16.9727 37.5267 17.0023 37.3679 17.0449C35.7965 17.4692 34.2227 17.8887 32.6525 18.3165C32.4878 18.3604 32.4309 18.3165 32.374 18.1601C32.1441 17.5142 31.8941 16.8755 31.6523 16.2332C31.6402 16.1861 31.6112 16.1451 31.5707 16.1182C31.5302 16.0913 31.4812 16.0803 31.4331 16.0874C31.3272 16.0913 31.2235 16.0567 31.1412 15.99C31.0588 15.9234 31.0034 15.8291 30.9851 15.7248C30.9643 15.6251 30.9761 15.5214 31.0188 15.429C31.0615 15.3366 31.1328 15.2604 31.2221 15.2116C31.3137 15.1656 31.4179 15.1515 31.5184 15.1714C31.6189 15.1914 31.7098 15.2443 31.7768 15.3219C31.8435 15.403 31.8824 15.5035 31.8877 15.6085C31.8931 15.7135 31.8645 15.8174 31.8064 15.9049C31.7768 15.9523 31.7436 16.0234 31.7614 16.0708C32.0387 16.7593 32.3195 17.4408 32.611 18.1554Z" fill="white"/>
  <path d="M8.62753 28.354C8.61805 28.0541 8.75908 27.8515 8.95698 27.7958C9.05583 27.7684 9.1609 27.7738 9.25642 27.8112C9.35193 27.8486 9.43274 27.9159 9.48671 28.0032C9.53887 28.0912 9.56053 28.1939 9.54831 28.2955C9.5361 28.3971 9.4907 28.4918 9.41916 28.5649C9.34789 28.6387 9.25346 28.6857 9.15165 28.6983C9.04984 28.7108 8.94682 28.6879 8.85981 28.6336C8.81911 28.6037 8.7699 28.5876 8.71938 28.5876C8.66885 28.5876 8.61965 28.6037 8.57895 28.6336C6.90325 29.607 5.22637 30.5775 3.54831 31.5454C3.44639 31.6046 3.37766 31.6485 3.39425 31.7966C3.39895 31.8996 3.36683 32.0008 3.30363 32.0823C3.24044 32.1637 3.15031 32.22 3.0494 32.241C2.95345 32.2649 2.85235 32.2572 2.76116 32.219C2.66997 32.1807 2.59358 32.1141 2.54337 32.0289C2.49547 31.9424 2.47578 31.8432 2.48704 31.7451C2.4983 31.6469 2.53995 31.5547 2.60618 31.4814C2.673 31.403 2.76615 31.3519 2.86808 31.3375C2.97002 31.3231 3.0737 31.3464 3.15961 31.4032C3.28759 31.492 3.36699 31.4506 3.47365 31.3889C5.14539 30.4219 6.81753 29.4561 8.49007 28.4914C8.54295 28.4533 8.58937 28.4068 8.62753 28.354Z" fill="white"/>
  <path d="M8.35853 15.2153C8.35739 15.3354 8.31124 15.4508 8.22917 15.5385C8.14711 15.6263 8.03511 15.6801 7.91531 15.6893C7.79925 15.6946 7.68564 15.6547 7.59836 15.5781C7.51107 15.5014 7.45689 15.3939 7.4472 15.2781C7.4472 15.1276 7.37254 15.0814 7.25759 15.028C5.73359 14.317 4.21196 13.6059 2.69269 12.8949C2.56707 12.8356 2.47108 12.8048 2.33717 12.9067C2.25464 12.9683 2.15231 12.9973 2.04976 12.9881C1.94721 12.9789 1.85165 12.9322 1.78137 12.857C1.70871 12.7897 1.65993 12.7005 1.6424 12.603C1.62487 12.5055 1.63954 12.405 1.68419 12.3166C1.72852 12.2282 1.79985 12.1561 1.88785 12.111C1.97585 12.0658 2.07594 12.0498 2.17363 12.0653C2.27882 12.08 2.37482 12.1332 2.44294 12.2147C2.51106 12.2962 2.54643 12.4001 2.54219 12.5062C2.54219 12.6591 2.63344 12.6934 2.73298 12.7432L6.02156 14.2743C6.46596 14.4805 6.91155 14.6855 7.3524 14.8989C7.39172 14.9261 7.4394 14.9387 7.48706 14.9344C7.53473 14.9301 7.57936 14.9091 7.61311 14.8751C7.67715 14.8188 7.75687 14.7834 7.8416 14.7737C7.92632 14.7639 8.01199 14.7803 8.08714 14.8206C8.16419 14.8552 8.23025 14.9103 8.2781 14.9799C8.32596 15.0495 8.35378 15.1309 8.35853 15.2153Z" fill="white"/>
  <path d="M16.8697 6.13029C16.8412 6.03594 16.8175 5.94022 16.7986 5.8435C16.7725 5.66455 16.7192 5.54486 16.5035 5.50338C16.2487 5.4548 16.129 5.14786 16.2286 4.90492C16.2523 4.84555 16.2882 4.7918 16.334 4.74714C16.3798 4.70247 16.4344 4.66786 16.4943 4.64554C16.5542 4.62322 16.6182 4.61368 16.682 4.61753C16.7458 4.62138 16.8081 4.63854 16.865 4.66791C17.102 4.78642 17.2205 5.11468 17.0439 5.29955C16.8448 5.50813 16.9337 5.69063 16.987 5.89209C17.1055 6.32346 17.0984 6.24761 16.7239 6.35901C15.7072 6.65606 14.7223 7.05302 13.7838 7.54408C13.736 7.56127 13.6954 7.59394 13.6683 7.63688C13.6413 7.67983 13.6293 7.73059 13.6345 7.78109C13.6407 7.88333 13.61 7.98441 13.548 8.06597C13.4861 8.14752 13.3969 8.20412 13.2967 8.2255C13.1968 8.2497 13.0917 8.23946 12.9983 8.19644C12.905 8.15343 12.8289 8.08015 12.7824 7.98848C12.7401 7.89979 12.7256 7.80037 12.7408 7.7033C12.756 7.60622 12.8003 7.51601 12.8677 7.44453C12.9451 7.37824 13.0409 7.33707 13.1423 7.32649C13.2437 7.31591 13.3459 7.33641 13.4354 7.38528C13.4683 7.40396 13.5047 7.41588 13.5424 7.42036C13.58 7.42483 13.6182 7.42177 13.6546 7.41135C14.645 6.89222 15.6858 6.4753 16.7607 6.16703C16.7915 6.15873 16.8211 6.14688 16.8697 6.13029Z" fill="white"/>
  <path d="M29.1992 35.7868C28.8851 35.7868 28.7026 35.6506 28.6457 35.4313C28.6243 35.3348 28.6341 35.234 28.6737 35.1435C28.7133 35.0529 28.7807 34.9774 28.8662 34.9277C28.9558 34.8785 29.059 34.8597 29.1602 34.8741C29.2615 34.8884 29.3554 34.935 29.4279 35.0071C29.504 35.0809 29.5507 35.1799 29.5594 35.2855C29.5681 35.3912 29.5382 35.4965 29.4753 35.5818C29.4445 35.6185 29.4277 35.6649 29.4277 35.7128C29.4277 35.7607 29.4445 35.807 29.4753 35.8437C30.056 36.8463 30.6347 37.8497 31.2114 38.8538C31.2288 38.9009 31.2618 38.9406 31.305 38.9663C31.3481 38.9919 31.3988 39.002 31.4484 38.9948C31.5512 38.9886 31.6528 39.0189 31.7353 39.0806C31.8178 39.1422 31.8757 39.2311 31.8988 39.3314C31.9248 39.429 31.9179 39.5324 31.8792 39.6256C31.8404 39.7189 31.772 39.7967 31.6845 39.8471C31.5969 39.8975 31.4952 39.9176 31.3951 39.9043C31.295 39.8909 31.2021 39.8449 31.1308 39.7734C31.0538 39.7053 31.0041 39.6115 30.991 39.5095C30.9779 39.4075 31.0023 39.3042 31.0597 39.2188C31.0934 39.1768 31.1117 39.1245 31.1117 39.0707C31.1117 39.0168 31.0934 38.9646 31.0597 38.9225C30.4814 37.9271 29.909 36.9269 29.3307 35.9314C29.2953 35.8762 29.2508 35.8273 29.1992 35.7868Z" fill="white"/>
  <path d="M39.2854 23.4124C39.1973 23.404 39.1133 23.3711 39.0429 23.3175C38.9726 23.2639 38.9186 23.1917 38.8872 23.109C38.8699 23.079 38.8465 23.0529 38.8186 23.0325C38.7906 23.0121 38.7587 22.9978 38.7248 22.9905C37.9119 22.9115 37.0977 22.8419 36.2824 22.7819C36.2448 22.7841 36.2082 22.794 36.1747 22.8112C36.1412 22.8283 36.1117 22.8522 36.088 22.8814C36.0316 22.9703 35.9469 23.0375 35.8475 23.0721C35.7481 23.1068 35.6399 23.1068 35.5405 23.0722C35.4407 23.0378 35.3557 22.9702 35.2996 22.8807C35.2436 22.7913 35.2199 22.6853 35.2324 22.5804C35.2462 22.4795 35.2921 22.3857 35.3634 22.3129C35.4347 22.2401 35.5276 22.1922 35.6282 22.1763C35.7327 22.1651 35.8379 22.1884 35.928 22.2425C36.0181 22.2966 36.088 22.3787 36.1271 22.4761C36.1443 22.5071 36.1676 22.5342 36.1958 22.5556C36.224 22.577 36.2563 22.5923 36.2907 22.6006C37.1096 22.6812 37.9296 22.757 38.7509 22.821C38.8137 22.821 38.899 22.7463 38.95 22.6859C39.0136 22.602 39.1033 22.5416 39.205 22.5144C39.3068 22.4871 39.4147 22.4945 39.5117 22.5354C39.6114 22.58 39.6922 22.6582 39.74 22.7563C39.7879 22.8544 39.7998 22.9663 39.7736 23.0722C39.7433 23.1762 39.6783 23.2666 39.5895 23.3285C39.5007 23.3903 39.3933 23.4199 39.2854 23.4124Z" fill="white"/>
  <path d="M29.973 21.355C29.9716 23.1258 29.4453 24.8565 28.4605 26.3282C27.4758 27.7999 26.0768 28.9467 24.4405 29.6235C22.8041 30.3004 21.0039 30.4769 19.2672 30.1308C17.5306 29.7848 15.9355 28.9316 14.6836 27.6792C13.4317 26.4269 12.5792 24.8314 12.2338 23.0946C11.8884 21.3579 12.0657 19.5577 12.7432 17.9216C13.4207 16.2855 14.568 14.887 16.0401 13.9029C17.5122 12.9187 19.2431 12.393 21.0139 12.3923C22.191 12.3914 23.3567 12.6226 24.4443 13.0727C25.5319 13.5229 26.5201 14.1831 27.3523 15.0156C28.1845 15.8481 28.8443 16.8365 29.294 17.9243C29.7437 19.0121 29.9744 20.1779 29.973 21.355ZM12.2396 21.534C12.3972 26.4757 16.4099 30.3035 21.3113 30.1293C23.0431 30.0721 24.7193 29.504 26.129 28.4965C27.5387 27.4889 28.6189 26.087 29.2337 24.4669C29.8485 22.8469 29.9704 21.0813 29.5841 19.3922C29.1979 17.703 28.3206 16.1659 27.0628 14.9741C25.805 13.7824 24.2228 12.9892 22.5153 12.6946C20.8078 12.3999 19.0513 12.6168 17.4668 13.318C15.8823 14.0192 14.5405 15.1734 13.6104 16.6353C12.6803 18.0973 12.2034 19.8016 12.2396 21.534Z" fill="white"/>
  <path d="M12.2396 21.5339C12.2039 19.8022 12.681 18.0986 13.6111 16.6374C14.5411 15.1762 15.8825 14.0227 17.4665 13.322C19.0505 12.6213 20.8064 12.4046 22.5132 12.6993C24.22 12.994 25.8015 13.7869 27.0589 14.9782C28.3162 16.1695 29.1931 17.706 29.5794 19.3944C29.9656 21.0829 29.8439 22.8479 29.2296 24.4673C28.6153 26.0868 27.5357 27.4884 26.1268 28.4958C24.7178 29.5033 23.0424 30.0716 21.3113 30.1292C16.4099 30.2987 12.3972 26.4756 12.2396 21.5339ZM29.5974 21.2969C29.7289 18.2654 27.5436 13.8522 22.6232 12.89C21.4905 12.6773 20.3266 12.6942 19.2006 12.9397C18.0745 13.1852 17.0092 13.6542 16.0678 14.319C15.1263 14.9837 14.3279 15.8307 13.7199 16.8098C13.1118 17.7888 12.7065 18.8799 12.5279 20.0185C12.3493 21.1571 12.401 22.3199 12.6801 23.4381C12.9592 24.5563 13.4599 25.607 14.1526 26.5281C14.8453 27.4493 15.7158 28.2219 16.7126 28.8004C17.7094 29.3789 18.8122 29.7513 19.9556 29.8958C24.6165 30.4788 28.3116 27.2993 29.2407 23.8258C29.1216 23.7796 28.9975 23.7477 28.8709 23.731C28.1504 23.7227 27.4299 23.731 26.7093 23.731C26.6518 23.7256 26.594 23.7389 26.5446 23.7689C26.3289 23.9882 26.0801 24.1884 25.9189 24.4444C25.0301 25.8535 23.7858 26.7387 22.1575 27.0919C22.0577 27.0962 21.9578 27.0854 21.8612 27.0599C21.9391 27.0065 22.0235 26.9635 22.1124 26.9319C23.5099 26.6565 24.7437 25.8443 25.5492 24.6696C25.784 24.3155 26.0601 23.9904 26.3716 23.7014C26.4521 23.6316 26.5532 23.59 26.6596 23.5829C27.2284 23.5722 27.7984 23.5734 28.3684 23.5829C28.6777 23.5829 28.9871 23.6054 29.3165 23.6184C29.3402 23.5224 29.3769 23.3814 29.4089 23.2451C29.4753 22.9619 29.4208 22.8896 29.1293 22.8612C29.0783 22.8612 29.025 22.8612 28.9728 22.8612H26.5257C26.4671 22.8666 26.4082 22.8642 26.3503 22.854C26.3147 22.8434 26.2898 22.7972 26.2614 22.7675C26.2869 22.7364 26.3174 22.7096 26.3515 22.6881C26.3906 22.6802 26.4309 22.6802 26.47 22.6881C27.4796 22.7047 28.4917 22.6526 29.5369 22.7237C29.5251 22.6478 29.544 22.495 29.4883 22.4582C29.3513 22.3627 29.1915 22.305 29.025 22.2911C28.2322 22.2745 27.4394 22.2757 26.6465 22.2911C26.5449 22.2946 26.4436 22.277 26.3491 22.2392C26.2547 22.2015 26.1691 22.1445 26.0978 22.0719C25.9785 21.969 25.8827 21.8417 25.8169 21.6986C25.751 21.5555 25.7167 21.3999 25.7163 21.2424C25.6522 20.2313 25.2687 19.2668 24.621 18.4878C23.9733 17.7089 23.0948 17.1559 22.1124 16.9085C22.0419 16.8956 21.9722 16.8782 21.9039 16.8564C21.8707 16.8422 21.8505 16.796 21.8245 16.764C21.8636 16.7414 21.9027 16.7023 21.943 16.7C22.0019 16.6994 22.0603 16.7107 22.1148 16.7331C22.5284 16.8943 22.9669 17.0105 23.3473 17.2285C24.8986 18.1126 25.7471 19.4683 25.8964 21.2471C25.9177 21.5114 25.9592 21.7306 26.1796 21.8906C26.2115 21.9136 26.2395 21.9416 26.2626 21.9735C26.3071 22.0296 26.3651 22.0734 26.4313 22.1008C26.4974 22.1282 26.5695 22.1382 26.6406 22.13C27.3078 22.1229 27.9762 22.1217 28.6446 22.13C28.9527 22.13 29.2738 22.0529 29.5926 22.3042C29.6045 22.0257 29.6163 21.7993 29.6234 21.573C29.6215 21.5575 29.616 21.5428 29.6073 21.5298C29.5987 21.5169 29.5872 21.5061 29.5737 21.4983C29.4042 21.4331 29.2359 21.3312 29.0629 21.3229C28.5723 21.2957 28.0805 21.2957 27.5899 21.3229C27.2189 21.3466 26.9357 21.2542 26.7046 20.9579C26.6 20.8438 26.5287 20.7032 26.4984 20.5515C26.4128 20.0008 26.2307 19.4697 25.9604 18.9824C25.0621 17.3494 23.7008 16.3361 21.8766 15.9427C21.8124 15.9168 21.7534 15.8794 21.7024 15.8325C21.7692 15.8039 21.8407 15.7878 21.9134 15.7851C24.165 16.1951 26.2519 18.0652 26.6773 20.5586C26.6995 20.6451 26.7399 20.7259 26.7959 20.7956C26.9961 21.0847 27.2699 21.1843 27.6254 21.1511C27.9016 21.1313 28.1788 21.1313 28.455 21.1511C28.8354 21.1558 29.2359 21.0516 29.5974 21.298V21.2969Z" fill="white"/>
  <path d="M29.5974 21.2981C29.236 21.0516 28.8354 21.1559 28.4503 21.1405C28.1741 21.1207 27.8969 21.1207 27.6207 21.1405C27.2652 21.1784 26.995 21.0788 26.7912 20.7849C26.7352 20.7153 26.6948 20.6345 26.6726 20.5479C26.2472 18.0593 24.1638 16.1845 21.9087 15.7745C21.836 15.7772 21.7645 15.7933 21.6977 15.8219C21.7487 15.8688 21.8077 15.9061 21.8719 15.9321C23.6938 16.3271 25.055 17.3403 25.9557 18.9718C26.2215 19.4552 26.4008 19.9814 26.4854 20.5266C26.5157 20.6784 26.587 20.819 26.6916 20.9331C26.9227 21.2293 27.2059 21.3218 27.5769 21.2981C28.0675 21.2708 28.5593 21.2708 29.0499 21.2981C29.2229 21.3064 29.3912 21.4083 29.5607 21.4735C29.5742 21.4812 29.5857 21.492 29.5943 21.505C29.603 21.5179 29.6085 21.5327 29.6104 21.5481C29.6033 21.7745 29.5915 22.0008 29.5796 22.2793C29.2632 22.0281 28.9421 22.1087 28.6316 22.1051C27.9632 22.0968 27.2948 22.098 26.6276 22.1051C26.5565 22.1134 26.4845 22.1033 26.4183 22.076C26.3521 22.0486 26.2941 22.0048 26.2496 21.9487C26.2265 21.9168 26.1985 21.8888 26.1666 21.8657C25.9462 21.7057 25.9047 21.4865 25.8834 21.2222C25.7341 19.4446 24.8856 18.0877 23.3343 17.2037C22.9539 16.9856 22.5154 16.8695 22.1018 16.7083C22.0474 16.6858 21.9889 16.6745 21.93 16.6751C21.8897 16.6751 21.8506 16.7166 21.8115 16.7391C21.8375 16.7711 21.8577 16.8173 21.8909 16.8315C21.9592 16.8534 22.0289 16.8708 22.0995 16.8837C23.0818 17.131 23.9603 17.6841 24.608 18.463C25.2557 19.2419 25.6392 20.2065 25.7033 21.2175C25.7037 21.375 25.7381 21.5306 25.8039 21.6737C25.8697 21.8169 25.9655 21.9442 26.0848 22.047C26.1561 22.1196 26.2417 22.1766 26.3361 22.2144C26.4306 22.2521 26.5319 22.2698 26.6335 22.2663C27.4264 22.2533 28.2192 22.2521 29.012 22.2663C29.1785 22.2802 29.3383 22.3378 29.4753 22.4334C29.531 22.4701 29.5121 22.623 29.5239 22.6988C28.4787 22.6277 27.4666 22.6799 26.457 22.6633C26.4179 22.6553 26.3776 22.6553 26.3385 22.6633C26.3044 22.6847 26.2739 22.7115 26.2484 22.7427C26.2768 22.7723 26.3017 22.8185 26.3373 22.8292C26.3952 22.8393 26.4541 22.8417 26.5127 22.8363H28.9824C29.0345 22.8363 29.0878 22.8363 29.1388 22.8363C29.4303 22.8636 29.4848 22.937 29.4185 23.2203C29.3865 23.3601 29.3497 23.4976 29.326 23.5936C28.9918 23.5805 28.6825 23.5616 28.378 23.558C27.8079 23.558 27.2379 23.5509 26.6691 23.558C26.5628 23.5651 26.4616 23.6067 26.3811 23.6765C26.0696 23.9656 25.7936 24.2906 25.5587 24.6447C24.7532 25.8194 23.5194 26.6316 22.122 26.907C22.033 26.9387 21.9486 26.9817 21.8707 27.035C21.9673 27.0605 22.0672 27.0713 22.167 27.067C23.7917 26.7115 25.0396 25.8286 25.9284 24.4196C26.0896 24.1636 26.3385 23.9633 26.5541 23.7441C26.6035 23.7141 26.6613 23.7008 26.7189 23.7061C27.4394 23.7061 28.1599 23.7002 28.8804 23.7061C29.007 23.7229 29.1312 23.7547 29.2502 23.801C28.3211 27.2744 24.6284 30.454 19.9651 29.8709C18.8217 29.7265 17.7189 29.354 16.7221 28.7755C15.7253 28.1971 14.8548 27.4244 14.1621 26.5033C13.4695 25.5822 12.9687 24.5314 12.6896 23.4132C12.4106 22.295 12.3588 21.1322 12.5374 19.9936C12.716 18.8551 13.1213 17.7639 13.7294 16.7849C14.3375 15.8059 15.1359 14.9589 16.0773 14.2941C17.0188 13.6293 18.0841 13.1603 19.2101 12.9149C20.3362 12.6694 21.5 12.6525 22.6327 12.8651C27.5437 13.8535 29.7289 18.2667 29.5974 21.2981ZM20.9831 28.834C20.5411 28.7783 20.0623 28.7439 19.5942 28.6562C15.6349 27.9108 13.0088 23.9941 13.8004 20.0277C14.1259 18.3851 15.0028 16.903 16.2857 15.8269C17.5686 14.7507 19.1806 14.1451 20.8548 14.1102C22.5289 14.0754 24.1647 14.6134 25.4913 15.6353C26.8179 16.6571 27.7556 18.1015 28.1492 19.729C28.1848 19.8807 28.2061 20.0372 28.2464 20.1889C28.2571 20.2268 28.314 20.2528 28.3495 20.2837C28.3745 20.2441 28.3952 20.202 28.4111 20.158C28.414 20.1256 28.41 20.0928 28.3993 20.062C28.1266 18.6191 27.437 17.2877 26.4159 16.2323C25.3947 15.177 24.0867 14.4439 22.6536 14.1238C21.2204 13.8037 19.7248 13.9105 18.3516 14.4311C16.9785 14.9517 15.788 15.8632 14.9272 17.0529C14.0664 18.2427 13.5731 19.6586 13.5083 21.1257C13.4434 22.5928 13.8098 24.0467 14.5622 25.3078C15.3146 26.5689 16.4201 27.5819 17.7419 28.2217C19.0637 28.8614 20.5441 29.0998 21.9999 28.9074C23.7958 28.6908 25.4473 27.8154 26.6347 26.4508C27.1855 25.834 27.6265 25.1274 27.9383 24.3615C27.9537 24.2862 27.9565 24.209 27.9466 24.1328C27.8933 24.1837 27.8388 24.2347 27.7866 24.2868C27.7785 24.2976 27.7721 24.3096 27.7677 24.3224C26.4451 27.2092 24.152 28.6384 20.9831 28.834ZM20.9831 28.1229C22.0219 28.1241 23.0466 27.8824 23.9754 27.4172C24.9042 26.952 25.7114 26.2761 26.3325 25.4435C26.3758 25.3603 26.405 25.2707 26.419 25.178C26.3417 25.219 26.2707 25.2709 26.2081 25.3321C24.3452 27.8207 20.9452 28.6657 18.1863 27.3111C17.3867 26.9271 16.6741 26.3834 16.0925 25.7136C15.5109 25.0437 15.0725 24.262 14.8044 23.4163C14.5363 22.5707 14.4442 21.6792 14.5336 20.7966C14.623 19.914 14.8921 19.0591 15.3244 18.2844C16.5806 15.9866 19.2671 14.6107 21.8316 15.0089C24.4329 15.4106 26.1974 16.8695 27.1455 19.3309C27.1822 19.4257 27.1455 19.5868 27.3233 19.5916C27.3285 19.4831 27.3197 19.3743 27.2972 19.2681C26.8949 18.1145 26.1833 17.0937 25.24 16.3174C24.2967 15.541 23.158 15.039 21.9486 14.8662C20.7392 14.6934 19.5056 14.8564 18.3826 15.3375C17.2596 15.8186 16.2905 16.5992 15.5813 17.5939C14.8721 18.5887 14.45 19.7593 14.3613 20.9777C14.2726 22.1962 14.5206 23.4156 15.0782 24.5026C15.6358 25.5896 16.4816 26.5024 17.523 27.1411C18.5644 27.7798 19.7614 28.1199 20.9831 28.1241V28.1229ZM15.8553 22.1276C15.7095 22.2687 15.6029 22.3848 15.4832 22.4832C15.4322 22.5193 15.3957 22.5724 15.3803 22.633C15.3648 22.6936 15.3715 22.7577 15.399 22.8138C15.591 23.2985 15.7332 23.8104 15.9809 24.2655C16.6621 25.5335 17.7968 26.4976 19.1581 26.9651C19.2287 26.9755 19.3005 26.9731 19.3702 26.958C19.3255 26.9061 19.2776 26.8571 19.2268 26.811C19.1924 26.7918 19.1552 26.7778 19.1166 26.7696C17.339 26.0585 16.1717 24.7798 15.6135 22.9465C15.5907 22.8717 15.5863 22.7925 15.6006 22.7156C15.615 22.6387 15.6477 22.5664 15.696 22.5048C15.7443 22.4433 15.8067 22.3943 15.878 22.3621C15.9492 22.3298 16.0272 22.3153 16.1053 22.3196C16.8721 22.3196 17.6388 22.3089 18.4044 22.3267C18.6189 22.3267 18.6414 22.2272 18.6355 22.0767C18.6355 21.906 18.498 21.97 18.4162 21.9688C17.7621 21.9688 17.1044 21.9333 16.4526 21.9783C16.266 22.0011 16.0769 21.9706 15.907 21.8902C15.7371 21.8099 15.5934 21.6831 15.4927 21.5244C15.4535 21.4749 15.4307 21.4145 15.4275 21.3514C15.4367 21.0896 15.4632 20.8287 15.5069 20.5704C15.9418 18.4148 17.185 16.9406 19.2482 16.1643C19.305 16.143 19.3406 16.0695 19.3868 16.0198C19.3246 16.0016 19.2595 15.9951 19.1948 16.0008C16.9515 16.7118 15.2474 19.0464 15.258 21.4095C15.2638 21.4972 15.2984 21.5805 15.3564 21.6465C15.5081 21.81 15.6764 21.9558 15.8589 22.1288L15.8553 22.1276ZM17.6779 21.2448C17.9209 21.2448 18.1626 21.2519 18.4044 21.2448C18.491 21.2295 18.5752 21.2023 18.6544 21.1642C18.5811 21.1212 18.5009 21.0911 18.4174 21.0753C18.052 21.051 17.6854 21.051 17.32 21.0753C17.1533 21.1029 16.9822 21.081 16.8278 21.0124C16.6734 20.9437 16.5425 20.8312 16.4514 20.689C16.4024 20.6202 16.3801 20.5359 16.3886 20.4519C16.5346 19.8134 16.8039 19.2096 17.1814 18.6743C17.211 18.6305 17.1932 18.5558 17.1968 18.4918C17.147 18.5191 17.0783 18.5321 17.0487 18.5736C16.6305 19.1535 16.3401 19.8155 16.1966 20.5159C16.1908 20.552 16.1923 20.5888 16.2011 20.6242C16.2098 20.6597 16.2256 20.693 16.2476 20.7221C16.7038 21.2483 16.705 21.2459 17.4077 21.2459L17.6779 21.2448ZM21.9027 26.2635C21.9774 26.2493 22.0295 26.241 22.0805 26.228C23.3703 25.9194 24.4869 25.1157 25.1889 23.9906C25.3074 23.8152 25.3904 23.6244 25.6167 23.5592C25.6487 23.5509 25.663 23.4822 25.6843 23.4407C25.6345 23.4324 25.5788 23.4051 25.5338 23.4182C25.4492 23.4406 25.3701 23.4801 25.3014 23.5343C25.2327 23.5885 25.1758 23.6563 25.1344 23.7334C24.6654 24.5838 23.9395 25.264 23.0605 25.6769C22.6967 25.8488 22.2997 25.9507 21.9205 26.0905C21.8778 26.1059 21.8506 26.1628 21.815 26.1995L21.9027 26.2635ZM17.3568 24.7727L17.4575 24.7241C17.434 24.6581 17.4054 24.5939 17.3722 24.5321C17.1518 24.1766 16.9254 23.8211 16.7074 23.4656C16.6766 23.4146 16.6481 23.3163 16.6742 23.2866C16.7761 23.1681 16.8591 23.0235 17.0617 23.0295C17.5357 23.0413 18.0181 23.0295 18.4956 23.0295C18.5549 23.0295 18.6141 22.9809 18.6722 22.9548C18.6118 22.9252 18.5537 22.8695 18.4909 22.8683C18.0655 22.8612 17.6376 22.8873 17.2134 22.8576C17.0847 22.8392 16.9534 22.8581 16.8351 22.9121C16.7169 22.9661 16.6166 23.0529 16.5462 23.1622C16.5225 23.1963 16.5064 23.2352 16.499 23.2761C16.4917 23.317 16.4932 23.359 16.5035 23.3992C16.596 23.623 16.707 23.8386 16.8354 24.0439C16.9942 24.2987 17.1814 24.5274 17.3568 24.7727ZM18.2385 20.2694C18.3502 20.2757 18.4622 20.2757 18.5739 20.2694C18.6118 20.2694 18.6438 20.2149 18.6793 20.1853C18.6473 20.1604 18.6189 20.1225 18.5822 20.1118C18.5305 20.1017 18.4774 20.1017 18.4257 20.1118C18.3078 20.1407 18.1836 20.1297 18.0726 20.0807C17.9615 20.0316 17.8699 19.9471 17.8119 19.8404C17.7975 19.8182 17.779 19.7989 17.7573 19.7836C17.7345 19.7703 17.7152 19.7518 17.7009 19.7296C17.6867 19.7075 17.6778 19.6822 17.6752 19.656C17.6725 19.6298 17.6761 19.6033 17.6856 19.5787C17.6952 19.5541 17.7104 19.5321 17.7301 19.5145C17.9197 19.2728 18.1058 19.0283 18.2883 18.781C18.3107 18.7344 18.3247 18.6843 18.3297 18.6329C18.2752 18.6447 18.197 18.6329 18.1697 18.6708C17.9778 18.9078 17.787 19.1353 17.6175 19.3818C17.422 19.6674 17.4303 19.6757 17.6637 19.9352C17.8284 20.1154 17.9529 20.3796 18.2385 20.2694ZM18.754 25.5015C18.6476 25.4909 18.5404 25.4909 18.434 25.5015C18.3605 25.5193 18.248 25.5726 18.2432 25.62C18.2439 25.6618 18.2539 25.7028 18.2726 25.7402C18.2913 25.7775 18.3181 25.8102 18.3511 25.8357C18.5105 25.9379 18.6768 26.0289 18.8488 26.1083C19.1036 26.2268 19.138 26.2078 19.1356 25.9222C19.1332 25.4387 19.1936 25.511 18.754 25.5051V25.5015ZM20.2815 27.5434C20.2815 27.3953 20.2887 27.2649 20.2815 27.1357C20.2815 27.0907 20.227 27.0504 20.1986 27.0066C20.1725 27.0457 20.1251 27.0824 20.1227 27.1251C20.1125 27.2829 20.1125 27.4413 20.1227 27.5991C20.1227 27.6453 20.1808 27.7235 20.2128 27.7247C20.4392 27.7247 20.6667 27.7176 20.8942 27.7117C20.9108 27.5339 20.9274 27.3562 20.9428 27.1772C20.9446 27.171 20.9446 27.1645 20.9428 27.1583C20.9179 27.1192 20.8919 27.0801 20.8658 27.0398C20.8326 27.0789 20.7769 27.1156 20.7734 27.1583C20.7668 27.2889 20.7668 27.4199 20.7734 27.5505L20.2815 27.5434ZM19.3963 16.9631L19.3844 16.8967C19.3292 16.8862 19.2725 16.8862 19.2174 16.8967C18.7058 17.0986 18.231 17.3833 17.8119 17.7393C17.7763 17.7701 17.7704 17.8353 17.7514 17.8839C17.8083 17.878 17.8841 17.8946 17.9209 17.8637C18.3328 17.5295 18.7906 17.2562 19.2802 17.052C19.3221 17.0283 19.3611 16.9996 19.3963 16.9666V16.9631ZM20.1227 15.9333C20.4878 15.9048 20.7935 15.8835 21.0981 15.8539C21.1395 15.8539 21.1751 15.8053 21.2166 15.7792C21.1727 15.7508 21.1277 15.6962 21.0862 15.6974C20.7789 15.714 20.4731 15.7385 20.169 15.7709C20.118 15.7709 20.073 15.8349 20.0256 15.8681L20.1227 15.9333ZM20.7698 25.8879C20.8411 25.895 20.913 25.895 20.9843 25.8879C21.0481 25.8661 21.109 25.8367 21.1656 25.8002C21.1127 25.7628 21.0538 25.7348 20.9914 25.7172C20.7449 25.699 20.4984 25.6892 20.2519 25.6876C20.2021 25.6876 20.1512 25.735 20.1014 25.7611C20.1488 25.7919 20.1939 25.844 20.246 25.8511C20.419 25.8748 20.5944 25.8819 20.7698 25.895V25.8879ZM20.2093 17.7275L20.2211 17.6907C20.4759 17.6777 20.7307 17.6694 20.9843 17.6492C21.0305 17.6492 21.072 17.5947 21.1158 17.5651C21.0744 17.5355 21.0305 17.4798 20.989 17.481C20.7212 17.4916 20.4534 17.5094 20.1879 17.5367C20.1405 17.5367 20.1002 17.6066 20.0564 17.6445L20.2093 17.7275ZM20.2839 16.7687V16.7545C20.5209 16.7427 20.752 16.7344 20.9855 16.7166C21.027 16.7166 21.0649 16.6704 21.104 16.6467C21.0732 16.6123 21.04 16.5471 21.0104 16.5495C20.7177 16.5637 20.4261 16.5874 20.1358 16.6147C20.1192 16.6215 20.1047 16.6325 20.0937 16.6466C20.0827 16.6608 20.0755 16.6775 20.073 16.6953C20.073 16.7213 20.1168 16.7569 20.1476 16.7664C20.1924 16.7755 20.2383 16.7787 20.2839 16.7758V16.7687Z" fill="white"/>
  <path d="M20.9831 28.834C24.1484 28.6384 26.4416 27.2092 27.7676 24.3224C27.7721 24.3096 27.7785 24.2976 27.7866 24.2868C27.8388 24.2347 27.8933 24.1837 27.9466 24.1328C27.9565 24.209 27.9537 24.2862 27.9383 24.3615C27.6265 25.1274 27.1855 25.834 26.6347 26.4508C25.4473 27.8154 23.7958 28.6908 21.9999 28.9074C20.5428 29.101 19.061 28.8632 17.7376 28.2235C16.4142 27.5839 15.3074 26.5704 14.5538 25.3084C13.8003 24.0464 13.4332 22.5912 13.4979 21.1227C13.5626 19.6543 14.0562 18.237 14.9178 17.0461C15.7793 15.8553 16.9711 14.943 18.3455 14.4222C19.72 13.9014 21.217 13.7948 22.6514 14.1157C24.0858 14.4366 25.3947 15.1708 26.4163 16.2277C27.4379 17.2845 28.1273 18.6176 28.3993 20.0621C28.41 20.0929 28.414 20.1256 28.4111 20.1581C28.3952 20.202 28.3745 20.2441 28.3495 20.2837C28.314 20.2529 28.2571 20.2268 28.2464 20.1889C28.2061 20.0372 28.1848 19.8807 28.1492 19.7291C27.7536 18.1034 26.815 16.6614 25.4887 15.6415C24.1623 14.6217 22.5275 14.0851 20.8548 14.1205C19.182 14.1559 17.5714 14.7611 16.2893 15.8361C15.0072 16.9111 14.1304 18.3915 13.8039 20.0324C13.0123 23.9989 15.6384 27.9155 19.5978 28.661C20.0659 28.7439 20.5446 28.7783 20.9831 28.834Z" fill="white"/>
  <path d="M20.9831 28.1242C19.7593 28.1228 18.5595 27.7846 17.5151 27.1468C16.4706 26.5089 15.6219 25.596 15.0617 24.5079C14.5016 23.4198 14.2517 22.1986 14.3394 20.9779C14.4271 19.7573 14.849 18.5843 15.5589 17.5875C16.2688 16.5906 17.2394 15.8084 18.3642 15.3264C19.4891 14.8444 20.7249 14.6812 21.9364 14.8548C23.1478 15.0283 24.2881 15.5319 25.2324 16.3103C26.1767 17.0888 26.8885 18.1121 27.29 19.2681C27.3126 19.3744 27.3213 19.4831 27.3161 19.5916C27.1395 19.5916 27.1751 19.4257 27.1383 19.3309C26.1974 16.8695 24.4328 15.4107 21.8351 15.0101C19.2706 14.6131 16.5841 15.9878 15.3279 18.2857C14.8956 19.0603 14.6265 19.9153 14.5371 20.7979C14.4477 21.6804 14.5398 22.572 14.808 23.4176C15.0761 24.2632 15.5144 25.045 16.096 25.7148C16.6776 26.3846 17.3902 26.9283 18.1898 27.3124C20.9487 28.6669 24.3522 27.8267 26.2116 25.3333C26.2742 25.2721 26.3452 25.2202 26.4226 25.1793C26.4085 25.2719 26.3793 25.3616 26.336 25.4447C25.7145 26.2778 24.9068 26.954 23.9773 27.4192C23.0478 27.8845 22.0225 28.1259 20.9831 28.1242Z" fill="white"/>
  <path d="M15.8588 22.1289C15.6763 21.9558 15.5033 21.8101 15.3563 21.6477C15.2984 21.5817 15.2638 21.4984 15.258 21.4107C15.2473 19.0465 16.9538 16.7072 19.1948 16.0032C19.2594 15.9975 19.3245 16.004 19.3868 16.0222C19.3406 16.072 19.305 16.1407 19.2481 16.1668C17.1849 16.943 15.9418 18.4184 15.5068 20.5729C15.4631 20.8311 15.4366 21.092 15.4274 21.3538C15.4306 21.4169 15.4534 21.4774 15.4926 21.5268C15.5934 21.6855 15.737 21.8123 15.9069 21.8927C16.0768 21.973 16.266 22.0035 16.4525 21.9807C17.1043 21.9357 17.7561 21.9665 18.4162 21.9712C18.498 21.9712 18.6343 21.9084 18.6354 22.0791C18.6354 22.2296 18.6189 22.3339 18.4044 22.3291C17.6388 22.3114 16.8721 22.3208 16.1053 22.322C16.0272 22.3177 15.9492 22.3322 15.8779 22.3645C15.8067 22.3967 15.7442 22.4457 15.696 22.5073C15.6477 22.5688 15.615 22.6411 15.6006 22.718C15.5863 22.7949 15.5907 22.8741 15.6135 22.9489C16.1717 24.7822 17.3366 26.0609 19.1166 26.772C19.1552 26.7802 19.1923 26.7942 19.2268 26.8135C19.2775 26.8595 19.3254 26.9085 19.3702 26.9604C19.3005 26.9755 19.2286 26.9779 19.1581 26.9675C17.7987 26.5001 16.6655 25.5374 15.9844 24.2715C15.7368 23.8164 15.5945 23.3045 15.4026 22.8198C15.375 22.7636 15.3684 22.6995 15.3838 22.639C15.3992 22.5784 15.4357 22.5253 15.4867 22.4891C15.6064 22.386 15.7131 22.2699 15.8588 22.1289Z" fill="white"/>
  <path d="M17.6815 21.2461H17.4077C16.705 21.2461 16.7038 21.2461 16.2475 20.7223C16.2256 20.6931 16.2098 20.6598 16.201 20.6243C16.1923 20.5889 16.1908 20.5521 16.1966 20.516C16.3401 19.8156 16.6305 19.1536 17.0486 18.5737C17.0771 18.5322 17.147 18.5192 17.1968 18.4919C17.1968 18.5536 17.211 18.6306 17.1814 18.6744C16.8039 19.2097 16.5346 19.8136 16.3886 20.4521C16.3801 20.5361 16.4024 20.6203 16.4514 20.6891C16.5425 20.8314 16.6734 20.9438 16.8278 21.0125C16.9822 21.0811 17.1533 21.103 17.32 21.0754C17.6854 21.0511 18.052 21.0511 18.4174 21.0754C18.5009 21.0913 18.5811 21.1213 18.6544 21.1643C18.5751 21.2025 18.491 21.2296 18.4044 21.2449C18.1662 21.2532 17.9244 21.2461 17.6815 21.2461Z" fill="white"/>
  <path d="M21.9062 26.2649L21.8185 26.2009C21.8541 26.1641 21.8814 26.1072 21.924 26.0918C22.3032 25.952 22.7002 25.8548 23.0641 25.6782C23.943 25.2653 24.6689 24.5851 25.1379 23.7347C25.1794 23.6576 25.2362 23.5899 25.3049 23.5356C25.3736 23.4814 25.4527 23.4419 25.5373 23.4195C25.5823 23.4065 25.638 23.4337 25.6878 23.442C25.6665 23.4835 25.6523 23.5522 25.6203 23.5605C25.3939 23.6257 25.3062 23.8165 25.1924 23.9919C24.4904 25.117 23.3738 25.9207 22.084 26.2293C22.033 26.2423 21.9809 26.2506 21.9062 26.2649Z" fill="white"/>
  <path d="M17.3568 24.7728C17.1814 24.5358 16.9942 24.2988 16.8354 24.0464C16.707 23.8411 16.596 23.6254 16.5035 23.4017C16.4932 23.3615 16.4917 23.3195 16.499 23.2786C16.5064 23.2377 16.5225 23.1988 16.5462 23.1647C16.6166 23.0554 16.7169 22.9686 16.8351 22.9146C16.9534 22.8606 17.0847 22.8417 17.2134 22.8601C17.6377 22.8898 18.0655 22.8601 18.4909 22.8708C18.5513 22.8708 18.6094 22.9277 18.6722 22.9573C18.613 22.9834 18.5537 23.032 18.4956 23.032C18.0216 23.032 17.5393 23.0438 17.0617 23.032C16.8591 23.026 16.7761 23.1718 16.6742 23.2891C16.6481 23.3188 16.6742 23.4171 16.7074 23.4681C16.9254 23.8236 17.1518 24.1791 17.3722 24.5346C17.4054 24.5964 17.434 24.6606 17.4575 24.7266L17.3568 24.7728Z" fill="white"/>
  <path d="M18.2384 20.2694C17.9528 20.3761 17.8284 20.1118 17.6637 19.9281C17.4267 19.6686 17.4267 19.6603 17.6175 19.3747C17.7869 19.1258 17.973 18.8936 18.1697 18.6637C18.197 18.6305 18.2752 18.6376 18.3297 18.6257C18.3247 18.6772 18.3106 18.7273 18.2882 18.7739C18.1057 19.0212 17.9197 19.2657 17.73 19.5074C17.7104 19.525 17.6952 19.547 17.6856 19.5716C17.6761 19.5961 17.6725 19.6226 17.6751 19.6489C17.6778 19.6751 17.6866 19.7004 17.7009 19.7225C17.7152 19.7447 17.7345 19.7632 17.7573 19.7764C17.7789 19.7917 17.7974 19.8111 17.8118 19.8333C17.8698 19.94 17.9615 20.0244 18.0725 20.0735C18.1836 20.1226 18.3078 20.1336 18.4257 20.1047C18.4773 20.0946 18.5305 20.0946 18.5821 20.1047C18.6189 20.1154 18.6473 20.1533 18.6793 20.1782C18.6437 20.2078 18.6117 20.2576 18.5738 20.2623C18.4622 20.271 18.3503 20.2733 18.2384 20.2694Z" fill="white"/>
  <path d="M18.754 25.505C19.1937 25.511 19.1332 25.4387 19.1356 25.9305C19.1356 26.2161 19.1036 26.2398 18.8488 26.1165C18.6768 26.0372 18.5105 25.9461 18.3511 25.844C18.3181 25.8184 18.2913 25.7857 18.2726 25.7484C18.2539 25.7111 18.2439 25.67 18.2432 25.6283C18.2432 25.5809 18.3617 25.5276 18.434 25.5098C18.5403 25.4976 18.6474 25.496 18.754 25.505ZM18.946 25.6816H18.4719L18.4613 25.7231L18.9436 25.9601L18.946 25.6816Z" fill="white"/>
  <path d="M20.2815 27.5471H20.765C20.7585 27.4165 20.7585 27.2855 20.765 27.1549C20.765 27.1134 20.8243 27.0766 20.8575 27.0364C20.8835 27.0755 20.9096 27.1146 20.9345 27.1549C20.9363 27.1611 20.9363 27.1676 20.9345 27.1738C20.9191 27.3516 20.9025 27.5293 20.8859 27.7083C20.6584 27.7142 20.4308 27.7261 20.2045 27.7213C20.1725 27.7213 20.118 27.6419 20.1144 27.5957C20.1042 27.4379 20.1042 27.2795 20.1144 27.1217C20.1144 27.0826 20.1642 27.0458 20.1903 27.0032C20.2187 27.047 20.2685 27.0873 20.2732 27.1323C20.2886 27.2686 20.2815 27.399 20.2815 27.5471Z" fill="white"/>
  <path d="M19.3963 16.9667C19.3603 16.9995 19.3205 17.0277 19.2778 17.0509C18.7882 17.2551 18.3304 17.5284 17.9185 17.8626C17.8818 17.8935 17.8059 17.8769 17.749 17.8828C17.768 17.8342 17.7739 17.7643 17.8095 17.7382C18.2286 17.3822 18.7034 17.0975 19.215 16.8956C19.2702 16.8851 19.3269 16.8851 19.3821 16.8956L19.3963 16.9667Z" fill="white"/>
  <path d="M20.1227 15.9368L20.0232 15.8716C20.0706 15.8384 20.1156 15.7791 20.1666 15.7744C20.4708 15.7428 20.7765 15.7183 21.0838 15.7009C21.1253 15.7009 21.1703 15.7543 21.2142 15.7827C21.1751 15.8088 21.1395 15.8538 21.0957 15.8574C20.7935 15.8846 20.4877 15.9083 20.1227 15.9368Z" fill="white"/>
  <path d="M20.7698 25.8951C20.5944 25.8821 20.4142 25.875 20.246 25.8513C20.1938 25.8442 20.1488 25.792 20.1014 25.7612C20.1512 25.7351 20.2021 25.6877 20.2519 25.6877C20.4984 25.6877 20.7449 25.6976 20.9914 25.7174C21.0537 25.7349 21.1126 25.763 21.1656 25.8003C21.1089 25.8368 21.048 25.8663 20.9843 25.888C20.9129 25.8952 20.8411 25.8952 20.7698 25.888V25.8951Z" fill="white"/>
  <path d="M20.2093 17.7345L20.0564 17.6516C20.1002 17.6137 20.1405 17.5485 20.1879 17.5437C20.4534 17.5165 20.7212 17.4987 20.9891 17.488C21.0305 17.488 21.0744 17.5426 21.1159 17.5722C21.072 17.6018 21.0305 17.6528 20.9843 17.6563C20.7307 17.6765 20.4759 17.6848 20.2211 17.6978L20.2093 17.7345Z" fill="white"/>
  <path d="M20.2839 16.776C20.2386 16.7819 20.1928 16.7819 20.1476 16.776C20.1168 16.7665 20.0753 16.7309 20.0729 16.7048C20.0755 16.6871 20.0826 16.6704 20.0937 16.6562C20.1047 16.6421 20.1192 16.6311 20.1357 16.6243C20.4261 16.597 20.7176 16.5733 21.0103 16.5591C21.04 16.5591 21.0731 16.6219 21.104 16.6563C21.0637 16.68 21.0257 16.7226 20.9854 16.7262C20.7484 16.744 20.5185 16.7522 20.2839 16.7641V16.776Z" fill="white"/>
  <path d="M18.9459 25.6818V25.9579L18.4636 25.7209L18.4743 25.6794L18.9459 25.6818Z" fill="white"/>
</svg>
