<svg width="1440" height="2045" viewBox="0 0 1440 2045" fill="none" xmlns="http://www.w3.org/2000/svg">
<g opacity="0.17" clip-path="url(#clip0_3_1167)">
<g opacity="0.3">
<path d="M487.441 580.712C492.871 579.853 496.582 574.756 495.725 569.326C494.868 563.896 489.771 560.187 484.341 561.045C478.911 561.904 475.201 567.001 476.058 572.431C476.915 577.861 482.011 581.57 487.441 580.712Z" fill="#B49657"/>
<path d="M83.0197 730.862C88.4498 730.003 92.1602 724.906 91.3031 719.476C90.446 714.046 85.3497 710.337 79.9196 711.196C74.4895 712.054 70.779 717.151 71.6361 722.581C72.4932 728.011 77.5896 731.72 83.0197 730.862Z" fill="#B49657"/>
<path d="M289.8 1625.23C295.23 1624.38 298.94 1619.28 298.083 1613.85C298.015 1613.42 297.919 1613.02 297.8 1612.62L595.652 1504.42L595.921 1504.84L596.341 1504.17L598.778 1503.29L597.016 1503.11L697.333 1344.98C699.194 1346.01 701.394 1346.44 703.652 1346.09C708.051 1345.4 711.314 1341.92 711.945 1337.74L859.054 1350.23C859.045 1350.8 859.072 1351.39 859.168 1351.97C860.025 1357.4 865.122 1361.11 870.552 1360.26C875.982 1359.4 879.692 1354.3 878.835 1348.87C878.666 1347.82 878.338 1346.83 877.882 1345.93L1050.79 1243.73C1052.87 1246.9 1056.67 1248.75 1060.67 1248.11C1063.84 1247.61 1066.41 1245.66 1067.84 1243.05L1230.46 1322.12C1229.79 1323.75 1229.54 1325.57 1229.83 1327.44C1230.69 1332.87 1235.78 1336.57 1241.21 1335.72C1246.64 1334.86 1250.35 1329.76 1249.5 1324.33C1248.8 1319.89 1245.26 1316.61 1241.02 1316.02L1253.17 1148.47C1253.7 1148.48 1254.25 1148.44 1254.8 1148.36C1260.23 1147.5 1263.94 1142.41 1263.08 1136.98C1262.85 1135.54 1262.33 1134.24 1261.58 1133.1L1380.23 1044.34C1382.4 1046.73 1385.7 1048.01 1389.13 1047.47C1394.56 1046.61 1398.28 1041.52 1397.42 1036.09C1396.56 1030.66 1391.46 1026.95 1386.03 1027.81C1383.42 1028.22 1381.21 1029.62 1379.71 1031.56L1275.29 961.275C1276.41 959.363 1276.9 957.067 1276.52 954.713C1275.67 949.283 1270.57 945.574 1265.14 946.433C1262.38 946.871 1260.07 948.395 1258.57 950.508L1083.5 842.658C1084.47 840.819 1084.89 838.665 1084.55 836.452C1083.69 831.022 1078.6 827.313 1073.17 828.172C1067.74 829.03 1064.03 834.128 1064.88 839.557C1065.25 841.916 1066.43 843.951 1068.09 845.425L984.144 952.626C982.122 951.244 979.594 950.596 976.984 951.007C972.011 951.793 968.496 956.137 968.596 961.029L644.044 988.377L644.098 989.025C643.241 983.595 638.145 979.886 632.715 980.745C627.285 981.603 623.574 986.701 624.431 992.131C624.664 993.605 625.22 994.946 625.996 996.114L544.834 1064.31C544.478 1063.95 544.099 1063.62 543.688 1063.32L673.735 858.159C675.596 859.181 677.795 859.618 680.054 859.267C685.484 858.408 689.195 853.311 688.338 847.881C687.48 842.451 682.384 838.742 676.954 839.6C673.532 840.139 670.794 842.367 669.452 845.296L410.66 746.843C411.025 745.52 411.126 744.105 410.902 742.659C410.045 737.229 404.949 733.52 399.519 734.378C394.613 735.15 391.122 739.39 391.126 744.204L260.951 758.047C260.025 752.695 254.979 749.054 249.599 749.908C244.169 750.767 240.458 755.864 241.316 761.294C241.922 765.131 244.65 768.106 248.118 769.219L223.542 867.624C222.552 867.473 221.521 867.464 220.48 867.629C215.05 868.487 211.34 873.585 212.197 879.014C213.054 884.444 218.15 888.153 223.58 887.295C223.635 887.286 223.685 887.272 223.731 887.263L260.318 1017.52C255.641 1018.94 252.606 1023.62 253.385 1028.59C253.631 1030.17 254.247 1031.6 255.119 1032.81L152.745 1116.46C150.565 1114.13 147.302 1112.88 143.912 1113.42C138.482 1114.28 134.771 1119.37 135.628 1124.8C136.485 1130.23 141.582 1133.94 147.012 1133.08C148.367 1132.87 149.613 1132.39 150.708 1131.71L219.975 1228.74C217.328 1230.9 215.863 1234.37 216.433 1237.99C216.862 1240.72 218.363 1243.01 220.434 1244.5L131.318 1386.27C129.461 1385.26 127.275 1384.83 125.03 1385.18C119.6 1386.04 115.889 1391.14 116.746 1396.57C117.604 1402 122.7 1405.71 128.13 1404.85C131.653 1404.29 134.446 1401.95 135.737 1398.88L363.823 1478.19C363.453 1479.51 363.352 1480.94 363.58 1482.39C363.644 1482.79 363.74 1483.18 363.845 1483.56L292.65 1606.48C290.866 1605.59 288.803 1605.23 286.681 1605.56C281.251 1606.42 277.541 1611.52 278.398 1616.94C279.255 1622.37 284.351 1626.08 289.782 1625.23L289.8 1625.23ZM594.644 1502.87L383.379 1481.21C383.402 1480.58 383.37 1479.94 383.265 1479.29C383.165 1478.64 382.996 1478.03 382.782 1477.44L535.05 1410.46L594.639 1502.87L594.644 1502.87ZM312.258 1160.5C314.151 1161.8 316.487 1162.45 318.915 1162.19L371.275 1470.77L371.029 1471.19C370.262 1471.38 369.541 1471.66 368.861 1472.01L238.018 1254.69L312.253 1160.5L312.258 1160.5ZM310.145 1158.54L233.153 1229.25C231.903 1228.06 230.361 1227.19 228.654 1226.77L244.002 1140.51L307.993 1151.29C307.906 1152.12 307.915 1152.98 308.056 1153.85C308.334 1155.63 309.087 1157.23 310.141 1158.54L310.145 1158.54ZM320.188 1161.98C321.507 1161.66 322.707 1161.1 323.747 1160.34L458.435 1322.08L377.722 1471.86C376.176 1471.12 374.423 1470.78 372.612 1470.93L320.188 1161.98ZM323.708 1144.22L403.501 1016.71C405.349 1017.71 407.53 1018.14 409.77 1017.79C410.724 1017.64 411.623 1017.35 412.453 1016.96L458.278 1099.96L326.984 1148.26C326.259 1146.62 325.123 1145.23 323.708 1144.22ZM381.304 1474.75L491.007 1375.64C493.179 1377.75 496.268 1378.85 499.485 1378.34C504.459 1377.55 507.973 1373.21 507.878 1368.31L534.342 1409.35L382.257 1476.25C381.979 1475.71 381.664 1475.21 381.304 1474.75ZM378.845 1472.5L459.329 1323.15L491.087 1361.29C488.796 1363.47 487.573 1366.7 488.102 1370.06C488.38 1371.81 489.101 1373.38 490.132 1374.68L380.871 1473.39L380.437 1473.78C379.953 1473.3 379.415 1472.87 378.84 1472.49L378.845 1472.5ZM496.385 1358.67C494.77 1358.93 493.314 1359.56 492.082 1360.47L459.986 1321.93L515.518 1218.87C516.18 1219.18 516.887 1219.4 517.617 1219.56L498.635 1358.58C497.895 1358.53 497.142 1358.55 496.38 1358.68L496.385 1358.67ZM518.954 1219.74C519.693 1219.8 520.446 1219.78 521.213 1219.66C523.978 1219.22 526.287 1217.68 527.784 1215.57L574.61 1248.2L502.764 1359.81C501.883 1359.32 500.925 1358.97 499.917 1358.76L518.954 1219.74ZM528.455 1214.46C529.423 1212.62 529.843 1210.48 529.492 1208.27C529.282 1206.94 528.817 1205.73 528.169 1204.65L658.254 1113.62C658.793 1114.3 659.413 1114.89 660.098 1115.4L575.308 1247.11L528.45 1214.45L528.455 1214.46ZM536.34 1081.22L519.162 1199.88C518.815 1199.9 518.464 1199.93 518.108 1199.99C517.154 1200.14 516.255 1200.42 515.425 1200.82L460.126 1100.65L528.743 1075.4C530.116 1078.51 532.995 1080.7 536.34 1081.21L536.34 1081.22ZM527.092 1203.2C526.431 1202.46 525.664 1201.82 524.811 1201.3L585.369 1084.69L656.307 1105.26C656.047 1106.44 655.987 1107.68 656.188 1108.95C656.393 1110.26 656.854 1111.47 657.502 1112.54L527.092 1203.2ZM523.666 1200.72C522.666 1200.27 521.59 1200 520.467 1199.91L537.631 1081.32C538.21 1081.34 538.799 1081.3 539.388 1081.21C543.481 1080.56 546.589 1077.51 547.511 1073.72L584.1 1084.33L523.661 1200.71L523.666 1200.72ZM528.009 1072.93C528.077 1073.37 528.182 1073.79 528.3 1074.2L459.501 1099.51L413.585 1016.34C414.94 1015.47 416.063 1014.28 416.857 1012.9L528.653 1067.6C527.977 1069.23 527.721 1071.06 528.018 1072.93L528.009 1072.93ZM458.907 1101.11L514.302 1201.45C512.445 1202.64 511.03 1204.42 510.291 1206.48L327.618 1154.4C327.873 1153.23 327.928 1152 327.728 1150.75C327.659 1150.32 327.554 1149.89 327.436 1149.48L458.916 1101.11L458.907 1101.11ZM509.944 1207.72C509.688 1208.89 509.633 1210.12 509.834 1211.37C510.303 1214.33 512.032 1216.77 514.391 1218.25L459.101 1320.85L324.747 1159.51C325.874 1158.43 326.746 1157.11 327.271 1155.63L509.944 1207.71L509.944 1207.72ZM696.238 1344.31L595.912 1502.45L536.25 1409.93L693.277 1340.85C693.993 1342.24 695.01 1343.41 696.238 1344.31ZM692.752 1339.67L535.533 1408.83L508.845 1367.44L692.406 1338.45C692.497 1338.87 692.611 1339.28 692.752 1339.67ZM692.2 1337.18L507.632 1366.32C507.094 1363.91 505.716 1361.89 503.85 1360.51L575.668 1248.94L693.584 1331.12C692.511 1332.89 691.995 1334.99 692.196 1337.18L692.2 1337.18ZM699.918 1326.57C697.636 1327.08 695.701 1328.35 694.332 1330.06L576.371 1247.85L661.188 1116.1C662.89 1117.04 664.866 1117.49 666.928 1117.3L699.918 1326.57ZM668.201 1117.1C669.566 1116.79 670.816 1116.22 671.884 1115.43L785.795 1251.81L708.674 1328.79C706.676 1327.04 704.006 1326.1 701.191 1326.36L668.201 1117.1ZM672.879 1114.6C674.508 1113.04 675.59 1110.96 675.886 1108.67L905.472 1123.26C905.491 1123.49 905.509 1123.73 905.55 1123.97C905.892 1126.14 906.918 1128.03 908.365 1129.47L786.707 1250.9L672.874 1114.6L672.879 1114.6ZM859.155 1348.94L712.045 1336.46C712.054 1335.88 712.027 1335.3 711.931 1334.71C711.626 1332.78 710.777 1331.07 709.577 1329.71L786.621 1252.81L862.135 1343.22C860.552 1344.73 859.484 1346.74 859.15 1348.94L859.155 1348.94ZM870.358 1340.57C869.414 1340.43 868.437 1340.43 867.447 1340.59C865.832 1340.85 864.371 1341.49 863.13 1342.39L787.542 1251.89L909.341 1130.32C910.431 1131.15 911.691 1131.77 913.041 1132.09L899.987 1195.85L870.358 1340.57ZM871.622 1340.83L873.992 1329.24L914.314 1132.3C915.163 1132.39 916.044 1132.39 916.929 1132.24C919.051 1131.91 920.908 1130.92 922.332 1129.52L990.975 1184.43L874.373 1342.05C873.525 1341.51 872.599 1341.09 871.613 1340.82L871.622 1340.83ZM920.796 1114.07L991.024 988.732L1042.01 1096.46C1038.76 1098.27 1036.71 1101.79 1036.9 1105.63L925.253 1121.23C925.24 1121.11 925.235 1120.99 925.212 1120.86C924.756 1117.96 923.078 1115.56 920.796 1114.07ZM1059.14 1228.34L1055.12 1161.23L1052.26 1113.5C1053.52 1112.68 1054.57 1111.59 1055.34 1110.33L1131.75 1200.1L1067.56 1233.01C1065.77 1230.16 1062.61 1228.34 1059.15 1228.34L1059.14 1228.34ZM1037.05 1106.92C1037.66 1110.31 1039.92 1112.99 1042.88 1114.29L991.746 1183.4L923.194 1128.57C924.523 1126.87 925.303 1124.77 925.326 1122.53L1037.05 1106.92ZM1049.28 1239.84C1049.43 1240.82 1049.73 1241.75 1050.14 1242.61L877.216 1344.82C876.705 1344.07 876.103 1343.41 875.423 1342.83L991.992 1185.24L1051.04 1232.47C1049.56 1234.52 1048.85 1237.14 1049.28 1239.84L1049.28 1239.84ZM1051.86 1231.48L992.759 1184.2L1044.15 1114.73C1045.48 1115.11 1046.93 1115.22 1048.39 1114.98C1049.32 1114.84 1050.19 1114.56 1051.01 1114.18L1054.61 1174.33L1057.85 1228.41C1057.76 1228.43 1057.66 1228.43 1057.56 1228.44C1055.29 1228.8 1053.32 1229.91 1051.86 1231.47L1051.86 1231.48ZM1231.02 1320.96L1068.38 1241.88C1069 1240.29 1069.23 1238.53 1068.95 1236.73C1068.8 1235.81 1068.53 1234.95 1068.16 1234.15L1132.61 1201.11L1232.74 1318.75C1232.07 1319.4 1231.49 1320.15 1231.03 1320.96L1231.02 1320.96ZM1239.73 1315.94C1239.2 1315.94 1238.66 1315.97 1238.11 1316.05C1236.46 1316.32 1234.96 1316.97 1233.72 1317.91L1133.78 1200.5L1244.7 1143.64C1246.24 1146.21 1248.88 1147.98 1251.88 1148.39L1239.74 1315.94L1239.73 1315.94ZM1243.42 1140.09C1243.55 1140.93 1243.79 1141.73 1244.12 1142.49L1132.92 1199.5L1055.97 1109.09C1056.4 1108.1 1056.67 1107.04 1056.75 1105.93L1128.43 1118.06L1243.36 1137.52C1243.27 1138.36 1243.28 1139.22 1243.42 1140.09ZM1243.57 1136.24L1056.78 1104.62C1056.76 1104.29 1056.73 1103.95 1056.68 1103.61C1056.47 1102.34 1056.04 1101.17 1055.43 1100.13L1179.69 1015.98L1247.62 1130.34C1245.59 1131.73 1244.13 1133.84 1243.56 1136.24L1243.57 1136.24ZM1251.7 1128.7C1250.64 1128.87 1249.65 1129.2 1248.73 1129.67L1180.76 1015.25L1258.84 962.372C1260.41 964.398 1262.73 965.766 1265.33 966.127L1253.34 1128.59C1252.79 1128.58 1252.25 1128.61 1251.7 1128.69L1251.7 1128.7ZM1274.57 962.347L1379 1032.64C1377.88 1034.55 1377.39 1036.84 1377.76 1039.2C1378.01 1040.74 1378.6 1042.14 1379.44 1043.34L1260.81 1132.07C1259.25 1130.24 1257.06 1129.01 1254.62 1128.68L1266.61 966.218C1267.16 966.222 1267.7 966.19 1268.25 966.103C1270.87 965.688 1273.08 964.291 1274.57 962.347ZM1082.85 843.767L1257.92 951.617C1256.95 953.456 1256.53 955.61 1256.87 957.823C1257.07 959.092 1257.51 960.26 1258.12 961.3L1180.1 1014.13L1080.36 846.213C1081.33 845.542 1082.17 844.716 1082.85 843.767ZM1074.35 847.952C1074.98 847.979 1075.63 847.943 1076.28 847.838C1077.35 847.669 1078.34 847.335 1079.25 846.87L1179.04 1014.85L1054.71 1099.04C1053.19 1097.1 1050.99 1095.75 1048.52 1095.34L1074.35 847.943L1074.35 847.952ZM1073.06 847.811L1047.24 1095.21C1046.6 1095.18 1045.95 1095.22 1045.3 1095.32C1044.56 1095.44 1043.85 1095.64 1043.18 1095.9L991.805 987.34L1070.44 846.985C1071.26 847.378 1072.14 847.656 1073.06 847.815L1073.06 847.811ZM988.386 959.287C988.012 956.924 986.84 954.893 985.184 953.42L1069.13 846.219C1069.19 846.264 1069.26 846.305 1069.32 846.351L991.125 985.912L983.375 969.537C986.925 967.565 989.047 963.535 988.382 959.292L988.386 959.287ZM980.103 970.673C980.842 970.554 981.545 970.354 982.216 970.093L990.354 987.295L919.678 1113.43C919.678 1113.43 919.633 1113.4 919.605 1113.39L975.535 970.323C976.968 970.779 978.515 970.929 980.098 970.678L980.103 970.673ZM644.18 989.664L968.71 962.32C968.71 962.32 968.715 962.37 968.719 962.393C969.253 965.783 971.443 968.502 974.331 969.857L918.401 1112.93C916.968 1112.47 915.421 1112.32 913.838 1112.57C910.434 1113.11 907.709 1115.32 906.358 1118.22L643.349 994.647C644.034 993.123 644.34 991.421 644.176 989.66L644.18 989.664ZM642.747 995.788L905.897 1119.43C905.646 1120.24 905.477 1121.08 905.441 1121.95L868.978 1119.63L675.96 1107.37C675.96 1106.86 675.932 1106.35 675.846 1105.83C674.989 1100.4 669.892 1096.69 664.462 1097.55C664.293 1097.57 664.129 1097.62 663.965 1097.65L636.755 1000.2C639.315 999.539 641.419 997.91 642.733 995.783L642.747 995.788ZM629.664 999.381C631.398 1000.29 633.415 1000.69 635.496 1000.44L662.737 1098C659.872 1099 657.672 1101.24 656.672 1104L585.985 1083.51L629.673 999.381H629.664ZM545.71 1065.27L626.794 997.132C627.319 997.729 627.908 998.263 628.551 998.715L584.707 1083.15L547.721 1072.43C547.812 1071.58 547.808 1070.7 547.662 1069.81C547.388 1068.1 546.695 1066.55 545.7 1065.27L545.71 1065.27ZM410.258 748.066L669.018 846.505C668.58 847.911 668.447 849.43 668.689 850.986C669.117 853.697 670.6 855.983 672.658 857.474L542.612 1062.64C540.75 1061.61 538.551 1061.18 536.297 1061.53C535.713 1061.62 535.151 1061.77 534.613 1061.96L405.512 753.131C407.675 752.063 409.345 750.238 410.263 748.061L410.258 748.066ZM401.848 754.131C402.112 754.113 402.377 754.086 402.642 754.049C403.226 753.958 403.778 753.807 404.316 753.624L533.417 1062.45C531.628 1063.34 530.182 1064.74 529.21 1066.42L417.414 1011.72C418.09 1010.09 418.345 1008.27 418.049 1006.39C417.292 1001.61 413.25 998.169 408.586 997.996L401.843 754.127L401.848 754.131ZM231.887 875.914C231.267 871.98 228.415 868.955 224.829 867.916L249.4 769.534C250.472 769.73 251.59 769.762 252.731 769.579C257.778 768.784 261.328 764.321 261.119 759.338L391.24 745.495C391.249 745.586 391.254 745.673 391.272 745.764C392.02 750.491 395.975 753.908 400.57 754.15L407.318 998.042C407.108 998.06 406.898 998.078 406.688 998.106C404.133 998.508 401.97 999.859 400.477 1001.73L230.384 882.9C231.694 880.906 232.297 878.441 231.896 875.904L231.887 875.914ZM225.602 886.761C227.181 886.158 228.545 885.177 229.599 883.94L399.72 1002.78C398.542 1004.73 398.013 1007.07 398.396 1009.49C398.829 1012.22 400.33 1014.52 402.41 1016.02L322.618 1143.52C320.77 1142.52 318.589 1142.09 316.349 1142.45C315.965 1142.51 315.591 1142.59 315.226 1142.69L225.597 886.756L225.602 886.761ZM227.887 897.187L271.328 1021.24C269.202 1018.28 265.534 1016.6 261.696 1017.2C261.664 1017.21 261.637 1017.22 261.605 1017.22L227.891 897.191L227.887 897.187ZM273.184 1026.54L311.321 1135.44L268.173 1035.67C271.367 1033.85 273.38 1030.35 273.189 1026.54L273.184 1026.54ZM262.442 1036.94C263.213 1037 263.998 1036.98 264.796 1036.86C265.576 1036.74 266.316 1036.52 267.009 1036.23L313.373 1143.42C310.772 1144.76 308.887 1147.17 308.225 1149.99L244.249 1139.22L262.446 1036.94L262.442 1036.94ZM155.323 1121.69C155.072 1120.1 154.456 1118.68 153.585 1117.46L255.958 1033.81C257.336 1035.29 259.156 1036.32 261.164 1036.75L242.971 1139L155.382 1124.25C155.468 1123.41 155.459 1122.55 155.318 1121.68L155.323 1121.69ZM159.842 1142.23L151.781 1130.94C153.46 1129.56 154.669 1127.66 155.172 1125.53L242.743 1140.27L227.395 1226.54C226.533 1226.44 225.643 1226.44 224.744 1226.59C223.389 1226.8 222.143 1227.28 221.048 1227.96L159.846 1142.23L159.842 1142.23ZM236.127 1234.87C235.849 1233.08 235.101 1231.49 234.043 1230.18L311.035 1159.47C311.108 1159.54 311.176 1159.61 311.249 1159.68L237.32 1253.48L231.965 1244.59C234.999 1242.47 236.738 1238.76 236.127 1234.87ZM221.561 1245.16C223.418 1246.17 225.604 1246.6 227.849 1246.25C228.93 1246.08 229.943 1245.73 230.869 1245.25L236.472 1254.56L133.613 1385.07L221.561 1245.16ZM136.198 1397.65C136.568 1396.32 136.673 1394.89 136.441 1393.44C136.072 1391.09 134.904 1389.07 133.261 1387.6L237.174 1255.75L367.766 1472.65C366.214 1473.72 365.009 1475.22 364.279 1476.94L136.194 1397.64L136.198 1397.65ZM293.795 1607.11L364.46 1485.1C366.308 1488.98 370.538 1491.35 374.991 1490.65C379.326 1489.97 382.557 1486.58 383.251 1482.47L593.06 1503.98L297.372 1611.38C296.601 1609.62 295.346 1608.15 293.795 1607.11Z" fill="#B49657"/>
<path d="M96.7786 483.91C102.209 483.051 105.919 477.954 105.062 472.524C104.205 467.094 99.1084 463.385 93.6783 464.243C88.2482 465.102 84.5379 470.199 85.395 475.629C86.2521 481.059 91.3485 484.768 96.7786 483.91Z" fill="#B49657"/>
</g>
<path d="M-2.23292 1083.8C0.541302 1085.01 3.67149 1084.27 5.63848 1082.19L132.965 1182.04C132.764 1182.35 132.582 1182.68 132.426 1183.03C130.884 1186.57 132.498 1190.68 136.035 1192.23C139.571 1193.78 143.691 1192.16 145.239 1188.62C145.485 1188.05 145.645 1187.47 145.736 1186.89L235.472 1192.34C235.558 1194.95 237.1 1197.4 239.655 1198.52C243.191 1200.06 247.312 1198.44 248.859 1194.91C249.539 1193.34 249.603 1191.66 249.161 1190.14L340.955 1153.72C341.667 1155.11 342.844 1156.28 344.391 1156.96C346.07 1157.69 347.872 1157.71 349.474 1157.15L445.93 1369.63C444.666 1370.34 443.612 1371.46 442.982 1372.89C441.435 1376.43 443.054 1380.55 446.59 1382.1C450.126 1383.64 454.247 1382.02 455.794 1378.49C456.242 1377.45 456.415 1376.38 456.361 1375.33L735.554 1334.69C734.486 1338.06 736.114 1341.76 739.422 1343.21C742.958 1344.75 747.079 1343.13 748.626 1339.6C748.768 1339.27 748.873 1338.95 748.959 1338.62L851.187 1356.18C850.963 1359.07 852.55 1361.9 855.352 1363.13C856.762 1363.74 858.263 1363.85 859.659 1363.54L899.692 1488.47L897.944 1488.2L900.084 1489.68L900.326 1490.43L900.691 1490.09L1083.8 1616.27C1083.69 1616.47 1083.59 1616.67 1083.49 1616.89C1081.94 1620.42 1083.56 1624.54 1087.1 1626.09C1090.64 1627.64 1094.76 1626.02 1096.3 1622.48C1097.85 1618.94 1096.23 1614.82 1092.7 1613.28C1091.38 1612.7 1089.98 1612.57 1088.67 1612.81L1062.03 1516.47C1062.12 1516.3 1062.21 1516.13 1062.29 1515.96C1062.67 1515.07 1062.86 1514.15 1062.87 1513.25L1231.96 1499.72C1232.36 1501.96 1233.82 1503.95 1236.05 1504.93C1239.59 1506.48 1243.71 1504.86 1245.26 1501.32C1246.8 1497.78 1245.18 1493.66 1241.65 1492.12C1240.25 1491.51 1238.76 1491.4 1237.37 1491.7L1201.95 1379.54C1203.54 1378.87 1204.89 1377.62 1205.64 1375.9C1206.65 1373.6 1206.31 1371.07 1204.99 1369.14L1269.3 1315.45C1269.9 1316.05 1270.61 1316.55 1271.43 1316.9C1274.97 1318.45 1279.09 1316.83 1280.64 1313.29C1282.18 1309.76 1280.56 1305.64 1277.03 1304.09C1274.88 1303.15 1272.52 1303.39 1270.65 1304.5L1215.89 1229.5C1216.64 1228.85 1217.25 1228.03 1217.68 1227.06C1219.07 1223.88 1217.9 1220.25 1215.09 1218.41L1263.07 1136.34C1266.6 1137.83 1270.67 1136.21 1272.2 1132.7C1273.75 1129.16 1272.13 1125.04 1268.59 1123.5C1267.98 1123.23 1267.34 1123.06 1266.7 1122.98L1267.46 1051.71C1269.93 1051.51 1272.23 1049.98 1273.29 1047.54C1273.57 1046.91 1273.74 1046.26 1273.81 1045.6L1382.1 1048.9C1382.26 1051.43 1383.79 1053.79 1386.28 1054.87C1389.81 1056.42 1393.93 1054.8 1395.48 1051.26C1397.03 1047.73 1395.41 1043.61 1391.87 1042.06C1391.61 1041.95 1391.35 1041.86 1391.09 1041.78L1422.79 885.153C1425.75 885.472 1428.7 883.865 1429.95 881C1431.5 877.463 1429.88 873.343 1426.34 871.797C1422.81 870.25 1418.69 871.871 1417.14 875.407C1416.7 876.416 1416.52 877.474 1416.57 878.506L1184.83 910.113C1184.26 908.192 1182.89 906.527 1180.92 905.664C1177.38 904.118 1173.26 905.738 1171.71 909.275C1170.16 912.812 1171.78 916.932 1175.32 918.478C1175.67 918.629 1176.03 918.743 1176.39 918.838L1167.99 1000.67C1165.22 1000.58 1162.53 1002.16 1161.35 1004.86C1160.97 1005.73 1160.78 1006.65 1160.77 1007.55L967.396 1028.65C966.958 1026.49 965.512 1024.58 963.349 1023.63C959.813 1022.09 955.693 1023.71 954.145 1027.24C952.598 1030.78 954.217 1034.9 957.753 1036.45C958.566 1036.8 959.41 1036.98 960.24 1037.02L964.599 1126.88C962.281 1127.21 960.178 1128.69 959.173 1131L959.388 1130.4L743.659 1054.35C744.481 1051.09 742.861 1047.63 739.686 1046.24C738.048 1045.53 736.286 1045.5 734.712 1046.01L696.664 958.268C697.974 957.552 699.069 956.42 699.708 954.941C701.251 951.4 699.636 947.285 696.1 945.738C692.564 944.192 688.443 945.812 686.896 949.349C686.293 950.727 686.174 952.196 686.466 953.565L548.329 995.874C547.663 994.249 546.399 992.876 544.665 992.119C541.129 990.572 537.009 992.193 535.461 995.729C534.818 997.203 534.726 998.773 535.096 1000.22L451.625 1029.52C450.936 1028.01 449.714 1026.74 448.076 1026.02C444.539 1024.47 440.419 1026.1 438.872 1029.63C438.707 1030.01 438.589 1030.39 438.493 1030.77L277.658 1010.06C277.7 1007.32 276.126 1004.71 273.466 1003.54C271.463 1002.67 269.273 1002.81 267.466 1003.74L205.891 911.043C206.785 910.349 207.525 909.428 208.013 908.319C209.561 904.782 207.941 900.662 204.405 899.116C200.864 897.574 196.748 899.19 195.201 902.726C195.192 902.754 195.183 902.781 195.169 902.804L111.472 884.86L67.2304 875.374C67.3039 872.609 65.7346 869.945 63.0425 868.768C59.5064 867.221 55.3858 868.842 53.8384 872.378C52.638 875.13 53.3494 878.224 55.3842 880.195L2.04045 964.408C1.9537 964.367 1.86704 964.316 1.77123 964.275C-1.76491 962.729 -5.8855 964.349 -7.43281 967.886C-8.98013 971.423 -7.36091 975.543 -3.82477 977.089C-2.98525 977.454 -2.11363 977.641 -1.25124 977.664L-0.164078 1070.44C-2.5825 1070.7 -4.80032 1072.21 -5.84096 1074.6C-7.38827 1078.13 -5.76906 1082.25 -2.23292 1083.8ZM61.4391 882.06C63.675 881.667 65.6739 880.207 66.6506 877.971C66.8377 877.537 66.9747 877.099 67.0752 876.661L117.239 887.414L194.776 904.036C194.63 904.702 194.589 905.373 194.639 906.035L69.8309 946.429L61.4436 882.065L61.4391 882.06ZM545.973 1004.18L589.548 1053.81L523.179 1119.43C522.677 1119.01 522.112 1118.64 521.482 1118.37C521.185 1118.23 520.88 1118.14 520.574 1118.05L541.25 1005.49C542.943 1005.64 544.623 1005.16 545.973 1004.18ZM688.816 957.493C689.317 957.913 689.883 958.278 690.513 958.552C690.882 958.712 691.248 958.83 691.622 958.921L665.284 1131.66C663.664 1131.56 662.067 1132.04 660.771 1132.98L591.318 1053.87L688.811 957.489L688.816 957.493ZM1188.79 1382.42L1155.72 1306.8L1194.93 1367.61C1194.05 1368.3 1193.32 1369.21 1192.84 1370.31C1191.75 1372.79 1192.23 1375.55 1193.82 1377.51L1188.79 1382.42ZM1232.44 1495.73C1232.06 1496.61 1231.87 1497.53 1231.86 1498.44L1062.77 1511.95C1062.56 1510.78 1062.06 1509.68 1061.31 1508.75L1188.34 1384.65L1235.47 1492.41C1234.17 1493.12 1233.09 1494.25 1232.44 1495.72L1232.44 1495.73ZM454.395 1370.8C453.838 1370.23 453.181 1369.76 452.433 1369.39L492.844 1261.24C496.133 1262.14 499.675 1260.51 501.08 1257.29L567.442 1279.17L454.395 1370.8ZM3.82298 975.719C3.92794 975.614 4.03756 975.505 4.13337 975.39L77.0456 1044.59C76.6849 1045.05 76.3746 1045.55 76.1281 1046.11C75.4845 1047.57 75.3977 1049.14 75.7534 1050.58L56.5239 1057.26L3.82298 975.719ZM210.62 1137.35L235.6 1154.45C235.49 1154.64 235.39 1154.84 235.299 1155.05C234.728 1156.36 234.591 1157.75 234.819 1159.05L213.103 1164.96L90.3498 1055.04L210.62 1137.35ZM236.326 1153.39L148.975 1093.6L88.6391 1052.3C88.7486 1052.11 88.849 1051.91 88.9404 1051.7C89.4515 1050.53 89.6115 1049.3 89.4747 1048.12L219.022 1021.21L239.958 1151.08C238.553 1151.44 237.275 1152.24 236.326 1153.38L236.326 1153.39ZM76.1776 1051.8C76.8665 1053.32 78.0891 1054.59 79.7362 1055.31C81.3287 1056.01 83.0397 1056.06 84.5821 1055.58L135.575 1179.59L57.2447 1058.38L76.1821 1051.79L76.1776 1051.8ZM141.63 1179.42C140.038 1178.72 138.327 1178.67 136.785 1179.14L85.7731 1055.1C86.3162 1054.81 86.8273 1054.45 87.2837 1054.03L211.611 1165.36L145.372 1183.38C144.729 1181.67 143.433 1180.21 141.626 1179.42L141.63 1179.42ZM145.718 1184.62L212.761 1166.38L236.841 1187.95C236.535 1188.36 236.262 1188.82 236.047 1189.31C235.801 1189.87 235.641 1190.45 235.549 1191.03L145.814 1185.59C145.805 1185.26 145.778 1184.93 145.718 1184.61L145.718 1184.62ZM241.655 1185.17C240.186 1185.34 238.794 1185.96 237.704 1186.98L214.248 1165.98L235.157 1160.29C235.8 1162 237.095 1163.46 238.902 1164.25C239.651 1164.58 240.431 1164.76 241.206 1164.81L241.655 1185.17ZM247.961 1154.73L323.389 1108.09L343.302 1144.75C342.23 1145.46 341.34 1146.48 340.778 1147.75C340.404 1148.61 340.221 1149.51 340.198 1150.39L248.6 1156.72C248.486 1156.03 248.271 1155.36 247.961 1154.73ZM440.979 1037.93C441.43 1038.28 441.932 1038.59 442.484 1038.83C443.566 1039.3 444.693 1039.48 445.788 1039.4L466.542 1131.95L353.974 1148.87C353.669 1147.64 353.035 1146.5 352.122 1145.59L440.983 1037.92L440.979 1037.93ZM969.343 1139.68L1012.37 1200.36C1011.54 1201.04 1010.84 1201.92 1010.38 1202.98C1010.16 1203.49 1010.01 1204.02 1009.91 1204.55L983.001 1205.28L968.211 1140.27C968.608 1140.11 968.987 1139.91 969.352 1139.68H969.343ZM1260.16 1042.89C1259.56 1045.05 1260.05 1047.32 1261.36 1049.02L1227.39 1080.76L1172.81 1012.46C1173.36 1011.89 1173.82 1011.21 1174.16 1010.45L1260.15 1042.9L1260.16 1042.89ZM1171.84 1013.31L1226.45 1081.65L1120.77 1180.39C1120.24 1179.92 1119.62 1179.51 1118.93 1179.21C1118.85 1179.18 1118.77 1179.15 1118.69 1179.12L1166.55 1014.53C1168.43 1014.85 1170.33 1014.39 1171.84 1013.32L1171.84 1013.31ZM497.481 1248.09C497.185 1247.95 496.888 1247.86 496.583 1247.77L518.053 1131.72C520.034 1131.91 522 1131.23 523.447 1129.88L588.572 1188.01L500.014 1249.98C499.343 1249.19 498.494 1248.53 497.481 1248.09ZM524.305 1128.91C524.611 1128.5 524.876 1128.05 525.095 1127.56C525.318 1127.05 525.464 1126.53 525.56 1126L657.982 1137.57C657.886 1138.21 657.877 1138.84 657.954 1139.45L589.662 1187.24L524.31 1128.91L524.305 1128.91ZM658.255 1140.82C658.543 1141.67 658.985 1142.47 659.574 1143.16L636.694 1213.32L634.48 1220.11C632.245 1219.6 629.936 1220.23 628.265 1221.72L590.639 1188.13L658.246 1140.83L658.255 1140.82ZM635.726 1220.52C635.726 1220.52 635.721 1220.51 635.717 1220.51L637.922 1213.74L660.618 1144.14C661.061 1144.48 661.554 1144.79 662.092 1145.02C662.982 1145.41 663.908 1145.6 664.816 1145.61L687.373 1201.81L638.974 1223.41C638.254 1222.17 637.15 1221.13 635.731 1220.51L635.726 1220.52ZM500.753 1251.04L589.562 1188.89L627.394 1222.66C627.051 1223.11 626.755 1223.59 626.522 1224.13C626.038 1225.24 625.865 1226.41 625.965 1227.54L501.382 1252.5C501.232 1251.99 501.017 1251.5 500.753 1251.04ZM737.79 1331.4L638.371 1231.29C638.75 1230.82 639.079 1230.3 639.334 1229.72C640.074 1228.02 640.083 1226.2 639.508 1224.58L687.847 1203.02L739.045 1330.57C738.598 1330.8 738.183 1331.08 737.795 1331.4L737.79 1331.4ZM689.024 1202.49L745.267 1177.39C745.988 1178.52 747.037 1179.45 748.36 1180.02C748.876 1180.25 749.405 1180.4 749.934 1180.49L745.09 1271.16L741.956 1329.81C741.368 1329.83 740.793 1329.92 740.241 1330.09L689.024 1202.49ZM1052.54 1507.01L1017.32 1453.38L995.556 1420.22C996.419 1419.53 997.131 1418.64 997.606 1417.55C998.537 1415.42 998.313 1413.09 997.228 1411.23L1025.36 1391.09L1053.5 1506.58C1053.17 1506.7 1052.85 1506.84 1052.54 1507.01L1052.54 1507.01ZM927.303 1213.27L999.584 1298.19C999.013 1298.78 998.52 1299.47 998.178 1300.27C997.58 1301.64 997.461 1303.1 997.744 1304.47L960.275 1318.31L926.076 1213.96C926.509 1213.77 926.925 1213.54 927.313 1213.27H927.303ZM998.113 1305.71C998.779 1307.33 1000.04 1308.72 1001.79 1309.47C1002.22 1309.67 1002.67 1309.81 1003.12 1309.9L991.392 1407.77C990.803 1407.75 990.219 1407.82 989.654 1407.95L960.677 1319.53L998.118 1305.71L998.113 1305.71ZM996.48 1410.18C995.818 1409.42 994.988 1408.78 993.997 1408.35C993.564 1408.16 993.117 1408.01 992.674 1407.92L996.877 1372.96L1004.44 1310.06C1004.83 1310.07 1005.22 1310.03 1005.61 1309.98L1025.04 1389.74L996.48 1410.19L996.48 1410.18ZM1006.86 1309.67C1008.64 1309.05 1010.17 1307.73 1010.99 1305.86C1011.32 1305.11 1011.5 1304.33 1011.55 1303.55L1144.97 1300.49C1145.09 1301.46 1145.4 1302.38 1145.89 1303.21L1026.17 1388.92L1006.86 1309.66L1006.86 1309.67ZM1145.5 1296.9C1145.18 1297.65 1145 1298.43 1144.94 1299.21L1011.52 1302.27C1011.36 1300.87 1010.77 1299.54 1009.84 1298.47L1065.19 1240.19L1145.83 1296.25C1145.71 1296.46 1145.6 1296.68 1145.5 1296.9ZM1008.91 1297.58C1008.45 1297.22 1007.94 1296.91 1007.38 1296.66C1007.21 1296.58 1007.04 1296.53 1006.87 1296.47L1016.25 1212.73C1018.49 1212.9 1020.69 1211.98 1022.14 1210.27L1064.12 1239.45L1008.91 1297.58ZM1014 1212.18C1014.32 1212.32 1014.65 1212.42 1014.98 1212.51L1005.61 1296.16C1004.95 1296.07 1004.31 1296.07 1003.67 1296.15L983.288 1206.57L1009.8 1205.84C1009.83 1208.51 1011.39 1211.04 1013.99 1212.18H1014ZM1002.41 1296.44C1001.87 1296.61 1001.35 1296.85 1000.87 1297.15L928.303 1212.41C928.869 1211.83 929.348 1211.14 929.695 1210.35C930.028 1209.59 930.206 1208.8 930.256 1208.01L981.974 1206.59L1002.41 1296.43L1002.41 1296.44ZM757.56 1176.42C757.601 1176.32 757.633 1176.23 757.669 1176.13L851.583 1194.32L916.326 1206.86C916.179 1208.34 916.517 1209.81 917.247 1211.07L815.865 1283.44L754.835 1179.56C756.003 1178.84 756.971 1177.77 757.56 1176.42ZM921.093 1214.2C922.339 1214.61 923.625 1214.65 924.835 1214.37L959.052 1318.77L864.466 1353.69C863.854 1352.42 862.855 1351.32 861.541 1350.59L921.093 1214.2ZM864.917 1354.9L959.458 1319.99L988.421 1408.36C987.039 1408.95 985.848 1409.99 985.081 1411.39L864.802 1358.9C865.245 1357.57 865.264 1356.18 864.917 1354.9ZM988.402 1421.17C990.437 1422.05 992.659 1421.89 994.479 1420.93L1010.35 1445.1L1051.46 1507.73C1051.25 1507.92 1051.03 1508.11 1050.83 1508.32L959.507 1436.07L984.383 1413.22C983.652 1416.43 985.271 1419.8 988.402 1421.17ZM1058.02 1506.48C1056.93 1506.14 1055.82 1506.07 1054.75 1506.25L1026.5 1390.28L1146.64 1304.27C1147.15 1304.86 1147.76 1305.37 1148.46 1305.78L1058.02 1506.49L1058.02 1506.48ZM1146.56 1295.2L1066.08 1239.25L1111.81 1191.1C1112.27 1191.46 1112.77 1191.78 1113.33 1192.03C1114.73 1192.64 1116.21 1192.75 1117.59 1192.44L1149.21 1293.26C1148.2 1293.68 1147.29 1294.34 1146.56 1295.2ZM1110.87 1190.21L1065.01 1238.5L1022.88 1209.21C1022.99 1209 1023.1 1208.78 1023.2 1208.56C1023.7 1207.41 1023.86 1206.19 1023.73 1205.01L1109.44 1187.62C1109.72 1188.57 1110.21 1189.45 1110.87 1190.2V1190.21ZM966.966 1140.64L981.682 1205.32L930.22 1206.72C929.988 1204.8 928.97 1203.02 927.346 1201.87L963.183 1140.35C964.433 1140.81 965.738 1140.89 966.961 1140.64L966.966 1140.64ZM962.015 1139.79L926.228 1201.22C926.178 1201.2 926.132 1201.17 926.082 1201.15C922.546 1199.6 918.425 1201.22 916.878 1204.76C916.759 1205.03 916.659 1205.32 916.577 1205.6L771.76 1177.54L758.021 1174.88C758.108 1174.41 758.144 1173.94 758.135 1173.47L958.963 1136.02C959.487 1137.57 960.537 1138.93 962.015 1139.8L962.015 1139.79ZM744.674 1176.24L688.541 1201.28L666.144 1145.49C668.243 1145.1 670.119 1143.75 671.132 1141.71L744.328 1172.11C744.017 1173.52 744.158 1174.95 744.674 1176.23V1176.24ZM515.881 1131.17C516.178 1131.3 516.475 1131.39 516.78 1131.48L495.309 1247.53C494.798 1247.49 494.287 1247.49 493.79 1247.56L468.107 1133.02L511.903 1126.43C512.409 1128.47 513.815 1130.26 515.891 1131.17L515.881 1131.17ZM353.595 1153.33C354.051 1152.29 354.22 1151.2 354.161 1150.14L466.82 1133.2L492.526 1247.84C491.312 1248.23 490.208 1248.96 489.359 1249.95L353.248 1154.02C353.376 1153.8 353.495 1153.57 353.595 1153.33ZM501.487 1256.05C501.66 1255.29 501.706 1254.51 501.624 1253.75L626.184 1228.8C626.38 1229.51 626.695 1230.18 627.105 1230.8L568.633 1278.19L501.482 1256.06L501.487 1256.05ZM627.922 1231.8C628.533 1232.43 629.272 1232.95 630.126 1233.33C632.667 1234.43 635.501 1233.91 637.472 1232.22L736.873 1332.31C736.59 1332.64 736.334 1333.01 736.115 1333.41L570.098 1278.68L627.926 1231.81L627.922 1231.8ZM745.027 1330.38C744.443 1330.12 743.845 1329.96 743.248 1329.87L751.221 1180.6C752.07 1180.59 752.905 1180.43 753.681 1180.13L814.816 1284.18L747.518 1332.22C746.857 1331.45 746.022 1330.81 745.027 1330.38ZM816.522 1284.55L917.995 1212.12C918.524 1212.73 919.158 1213.26 919.907 1213.68L860.355 1350.07C858.607 1349.49 856.773 1349.64 855.194 1350.38L816.518 1284.55L816.522 1284.55ZM864.287 1360.08L983.625 1412.16L958.48 1435.25L864.017 1360.51C864.113 1360.37 864.2 1360.23 864.287 1360.08ZM1050.04 1509.34C1049.83 1509.66 1049.64 1509.99 1049.48 1510.35C1049.32 1510.71 1049.21 1511.08 1049.11 1511.45L902.069 1488.82L958.544 1436.95L1050.03 1509.33L1050.04 1509.34ZM1060.42 1507.82C1060.12 1507.57 1059.81 1507.34 1059.47 1507.14L1059.34 1506.69L1149.64 1306.3C1151.13 1306.82 1152.69 1306.79 1154.11 1306.32L1187.81 1383.37L1060.43 1507.82L1060.42 1507.82ZM1268.48 1314.45L1204.18 1368.15C1203.58 1367.55 1202.87 1367.05 1202.04 1366.69C1201.52 1366.46 1200.98 1366.31 1200.44 1366.22L1205.29 1305.05L1267.24 1310.52C1267.25 1311.93 1267.69 1313.29 1268.48 1314.44L1268.48 1314.45ZM1199.15 1366.12C1198.05 1366.13 1196.97 1366.4 1196.02 1366.91L1156.23 1305.2C1157.11 1304.51 1157.83 1303.59 1158.32 1302.49C1158.54 1301.99 1158.69 1301.47 1158.79 1300.95L1204.01 1304.94L1199.15 1366.12ZM1158.9 1299.67C1158.89 1297.76 1158.1 1295.93 1156.71 1294.62L1207.24 1229.97C1207.62 1230.24 1208.04 1230.47 1208.48 1230.67C1208.94 1230.87 1209.41 1231.01 1209.88 1231.11L1204.12 1303.66L1158.91 1299.67L1158.9 1299.67ZM1206.26 1229.12L1162.54 1285.06L1204.46 1222.73C1203.94 1225.05 1204.65 1227.45 1206.26 1229.12ZM1155.27 1293.57C1155.09 1293.47 1154.9 1293.38 1154.72 1293.3C1153.32 1292.68 1151.83 1292.58 1150.46 1292.88L1118.84 1192.07C1120.44 1191.39 1121.8 1190.14 1122.55 1188.42C1123.21 1186.91 1123.29 1185.29 1122.89 1183.81L1259.62 1133.15C1260.09 1134.05 1260.76 1134.85 1261.6 1135.48L1155.27 1293.58V1293.57ZM1122.44 1182.6C1122.22 1182.16 1121.97 1181.73 1121.66 1181.34L1227.27 1082.66L1260.98 1124.85C1260.33 1125.47 1259.79 1126.23 1259.4 1127.11C1258.7 1128.7 1258.66 1130.41 1259.13 1131.95L1122.44 1182.6L1122.44 1182.6ZM1261.99 1124.05L1228.22 1081.79L1262.26 1049.98C1262.8 1050.45 1263.41 1050.86 1264.11 1051.16C1264.79 1051.45 1265.49 1051.63 1266.19 1051.71L1265.43 1122.93C1264.2 1123 1263.02 1123.39 1262 1124.06L1261.99 1124.05ZM1269.7 1038.34C1266.25 1036.83 1262.26 1038.34 1260.63 1041.69L1174.99 1009.37L1380.69 1047.57L1273.86 1044.31C1273.7 1041.78 1272.18 1039.42 1269.69 1038.34L1269.7 1038.34ZM1382.69 1045.68C1382.56 1045.97 1382.46 1046.27 1382.38 1046.57L1174.75 1008.02C1174.81 1006.97 1174.62 1005.93 1174.23 1004.98L1256.46 963.408L1382.92 1045.24C1382.84 1045.39 1382.76 1045.53 1382.7 1045.68L1382.69 1045.68ZM1164.97 1014.06C1165.09 1014.11 1165.2 1014.15 1165.32 1014.19L1117.46 1178.76C1115.39 1178.35 1113.26 1178.93 1111.68 1180.25L1069.33 1137.9L1164.07 1013.58C1164.36 1013.76 1164.65 1013.92 1164.97 1014.06ZM1110.76 1181.16C1110.35 1181.65 1110 1182.21 1109.73 1182.83C1109.23 1183.99 1109.07 1185.2 1109.19 1186.38L1023.49 1203.77C1023.13 1202.58 1022.46 1201.5 1021.53 1200.64L1068.54 1138.95L1110.76 1181.17V1181.16ZM1020.5 1199.85C1020.21 1199.68 1019.91 1199.51 1019.59 1199.37C1018.18 1198.75 1016.68 1198.65 1015.29 1198.96L963.288 1036.47C963.909 1036.2 964.488 1035.85 965.018 1035.42L1067.62 1138.01L1020.49 1199.85L1020.5 1199.85ZM962.061 1036.87L1014.06 1199.35C1013.85 1199.44 1013.65 1199.53 1013.45 1199.65L970.365 1138.9C971.041 1138.27 971.598 1137.49 971.99 1136.6C973.533 1133.06 971.918 1128.94 968.382 1127.4C967.57 1127.04 966.726 1126.86 965.895 1126.83L961.541 1036.97C961.719 1036.94 961.892 1036.91 962.065 1036.87L962.061 1036.87ZM958.671 1134.77L757.994 1172.2C757.547 1170.06 756.105 1168.16 753.952 1167.22C752.984 1166.8 751.971 1166.62 750.977 1166.65L738.342 1059.48C740.428 1059.04 742.276 1057.65 743.23 1055.57L958.945 1131.61C958.598 1132.66 958.516 1133.74 958.666 1134.78L958.671 1134.77ZM734.099 1059.06C735.066 1059.48 736.079 1059.66 737.069 1059.63L749.426 1164.44L724.392 1068.59L732.922 1058.41C733.282 1058.66 733.679 1058.88 734.099 1059.06V1059.06ZM748.773 1167.06C747.034 1167.7 745.546 1169 744.748 1170.83C744.738 1170.85 744.734 1170.88 744.72 1170.9L671.598 1140.53C672.296 1138.07 671.58 1135.47 669.837 1133.71L723.37 1069.79L748.768 1167.06L748.773 1167.06ZM668.852 1132.88C668.491 1132.63 668.094 1132.41 667.674 1132.22C667.309 1132.07 666.94 1131.94 666.566 1131.85L692.904 959.117C693.424 959.145 693.94 959.122 694.451 959.04L722.973 1068.27L668.852 1132.88ZM659.808 1133.83C659.265 1134.4 658.808 1135.07 658.47 1135.83C658.402 1135.99 658.347 1136.16 658.288 1136.32L525.67 1124.74C525.661 1123.13 525.095 1121.58 524.087 1120.34L590.406 1054.78L659.808 1133.83ZM513.839 1119.73C513.195 1120.35 512.657 1121.11 512.278 1121.98C511.821 1123.02 511.653 1124.11 511.712 1125.17L467.828 1131.77L447.065 1039.19C447.723 1039.01 448.348 1038.74 448.927 1038.39L513.839 1119.74V1119.73ZM440.039 1037.04L351.123 1144.77C350.772 1144.53 350.393 1144.32 349.991 1144.14C348.148 1143.34 346.154 1143.4 344.443 1144.14L324.494 1107.42L439.477 1036.32C439.651 1036.57 439.838 1036.81 440.043 1037.05L440.039 1037.04ZM322.774 1106.96L247.286 1153.64C246.583 1152.71 245.648 1151.94 244.503 1151.44C244.229 1151.32 243.955 1151.23 243.677 1151.14L264.699 1043.91L269.992 1016.9C271.215 1017.02 272.433 1016.8 273.523 1016.32L322.769 1106.95L322.774 1106.96ZM267.87 1016.36C268.148 1016.48 268.436 1016.58 268.728 1016.66L242.413 1150.89C242.016 1150.85 241.628 1150.85 241.236 1150.87L220.291 1020.95L263.951 1011.88C264.507 1013.82 265.885 1015.5 267.87 1016.36ZM218.822 1019.94L89.2148 1046.86C88.8773 1045.77 88.2751 1044.76 87.4447 1043.94L196.847 910.634C197.408 911.158 198.061 911.601 198.805 911.925C199.681 912.308 200.598 912.495 201.497 912.508L218.813 1019.94H218.822ZM194.858 907.321C195.086 908.161 195.465 908.959 195.985 909.662L86.4547 1043.13C86.108 1042.89 85.7338 1042.68 85.3368 1042.51C84.3376 1042.08 83.3018 1041.9 82.2796 1041.94L70.0041 947.734L194.863 907.326L194.858 907.321ZM80.9975 1042.1C79.8659 1042.35 78.8163 1042.88 77.9355 1043.65L4.91834 974.359C5.09183 974.076 5.25152 973.789 5.38851 973.478C6.09596 971.858 6.1373 970.12 5.63554 968.559L68.7493 948.132L80.9975 1042.1ZM2.80539 976.527L55.2645 1057.7L6.92175 1074.5C6.23286 1072.98 5.01018 1071.7 3.36308 1070.99C2.63293 1070.67 1.88016 1070.49 1.12722 1070.43L0.0400609 977.586C1.02571 977.431 1.9657 977.075 2.80539 976.527ZM6.43259 1081.17C6.63345 1080.86 6.81593 1080.54 6.97112 1080.19C7.6147 1078.72 7.70171 1077.16 7.346 1075.72L55.9853 1058.81L134.512 1180.33C134.247 1180.54 133.992 1180.78 133.759 1181.03L6.43259 1081.17ZM248.687 1188.94C247.975 1187.54 246.798 1186.37 245.251 1185.69C244.503 1185.37 243.723 1185.19 242.947 1185.13L242.498 1164.78C244.889 1164.5 247.075 1163 248.106 1160.64C248.481 1159.78 248.663 1158.89 248.686 1158.01L340.285 1151.67C340.33 1151.95 340.394 1152.23 340.472 1152.51L248.677 1188.94H248.687ZM350.647 1156.61C351.341 1156.22 351.97 1155.71 352.504 1155.08L488.615 1251.01C488.487 1251.23 488.369 1251.46 488.268 1251.7C486.757 1255.15 488.272 1259.16 491.639 1260.78L451.228 1368.94C449.836 1368.56 448.408 1368.63 447.108 1369.08L350.651 1156.6L350.647 1156.61ZM456.183 1374.04C455.991 1373.24 455.658 1372.48 455.202 1371.8L568.897 1279.64L733.012 1333.75L456.178 1374.04L456.183 1374.04ZM749.188 1337.33C749.302 1335.9 748.965 1334.49 748.262 1333.27L815.463 1285.31L854.08 1351.04C853.095 1351.75 852.273 1352.72 851.753 1353.92C851.611 1354.24 851.506 1354.56 851.42 1354.9L749.192 1337.33L749.188 1337.33ZM860.896 1363.13C861.758 1362.76 862.548 1362.22 863.21 1361.53L957.508 1436.14L900.938 1488.1L860.891 1363.14L860.896 1363.13ZM1087.42 1613.14C1086.32 1613.56 1085.31 1614.26 1084.54 1615.19L903.324 1490.32L1048.91 1512.72C1048.74 1515.57 1050.33 1518.34 1053.09 1519.55C1055.92 1520.79 1059.11 1519.99 1061.08 1517.82L1087.43 1613.14L1087.42 1613.14ZM1234.58 1487.15L1189.33 1383.68L1194.71 1378.43C1195.22 1378.86 1195.8 1379.23 1196.44 1379.51C1197.84 1380.12 1199.33 1380.23 1200.72 1379.93L1234.58 1487.15ZM1269.6 1305.25C1268.86 1305.91 1268.24 1306.73 1267.82 1307.7C1267.6 1308.2 1267.45 1308.72 1267.35 1309.24L1205.39 1303.77L1211.15 1231.24C1212.46 1231.27 1213.73 1230.91 1214.85 1230.25L1269.6 1305.25ZM1213.95 1217.81C1211.67 1216.86 1209.17 1217.21 1207.28 1218.53L1255.09 1147.43L1213.95 1217.8L1213.95 1217.81ZM1389.83 1041.51C1387.45 1041.26 1385.08 1042.25 1383.59 1044.15L1257.77 962.728L1417.62 881.919C1418.34 883.068 1419.4 884.022 1420.74 884.61C1421 884.724 1421.26 884.816 1421.52 884.893L1389.82 1041.52L1389.83 1041.51ZM1416.74 879.783C1416.82 880.116 1416.91 880.449 1417.04 880.769L1256.52 961.912L1184.35 915.205C1184.41 915.091 1184.47 914.977 1184.52 914.858C1185.02 913.722 1185.19 912.527 1185.07 911.372L1416.74 879.783ZM1177.66 919.039C1179.97 919.189 1182.24 918.176 1183.66 916.305L1255.18 962.587L1173.6 1003.82C1172.88 1002.72 1171.85 1001.8 1170.55 1001.24C1170.13 1001.06 1169.7 1000.92 1169.27 1000.82L1177.66 919.039ZM1160.87 1008.83C1161.13 1010.34 1161.88 1011.74 1163.03 1012.79L1068.39 1136.97L965.917 1034.5C966.328 1034.01 966.679 1033.45 966.948 1032.83C967.359 1031.88 967.542 1030.89 967.528 1029.92L1160.86 1008.83L1160.87 1008.83ZM730.477 1049.85C729.299 1052.55 729.965 1055.59 731.923 1057.56L723.982 1067.05L696.052 960.093L733.526 1046.53C732.216 1047.24 731.121 1048.37 730.477 1049.86V1049.85ZM686.845 954.792C687.109 955.431 687.465 956.033 687.908 956.567L590.465 1052.9L546.941 1003.32C547.484 1002.75 547.945 1002.08 548.278 1001.32C548.881 999.939 548.999 998.47 548.708 997.101L686.845 954.792ZM535.52 1001.44C536.209 1002.95 537.431 1004.22 539.069 1004.93C539.366 1005.06 539.672 1005.16 539.977 1005.25L519.301 1117.81C517.718 1117.67 516.152 1118.08 514.843 1118.93L449.954 1037.61C450.67 1036.97 451.273 1036.16 451.679 1035.22C452.323 1033.75 452.414 1032.18 452.045 1030.73L535.515 1001.43L535.52 1001.44ZM438.301 1032.05C438.241 1033.13 438.437 1034.2 438.857 1035.18L323.873 1106.28L274.655 1015.69C275.687 1014.97 276.545 1013.98 277.079 1012.74C277.279 1012.28 277.425 1011.81 277.521 1011.33L438.31 1032.04L438.301 1032.05ZM266.375 1004.43C265.48 1005.12 264.741 1006.05 264.253 1007.16C263.76 1008.29 263.591 1009.47 263.705 1010.61L220.081 1019.67L202.793 912.399C203.491 912.276 204.171 912.052 204.796 911.728L266.375 1004.43ZM56.3971 881.007C56.7256 881.226 57.0724 881.417 57.4465 881.581C58.3271 881.969 59.2443 882.156 60.1524 882.17L68.5806 946.831L5.12921 967.369C4.65481 966.484 3.98405 965.694 3.1491 965.078L56.4017 881.011L56.3971 881.007Z" fill="#B49657"/>
</g>
<defs>
<clipPath id="clip0_3_1167">
<rect width="1341" height="1550" fill="white" transform="translate(1651.25 1096.02) rotate(135)"/>
</clipPath>
</defs>
</svg>
