<svg width="28" height="28" viewBox="0 0 28 28" fill="none" xmlns="http://www.w3.org/2000/svg">
<path d="M9.62585 0C8.16623 0 7.00427 1.18245 7.00427 2.62156V9.62329C7.00427 10.8164 8.75427 10.8164 8.75427 9.62329V2.62156C8.75427 2.12169 9.14989 1.74998 9.62585 1.74998H25.381C25.8809 1.74998 26.2526 2.15586 26.2526 2.62156V25.3784C26.2526 25.851 25.8809 26.25 25.381 26.25H9.62585C9.12597 26.25 8.75427 25.851 8.75427 25.3784V18.3767C8.75427 17.2182 7.00427 17.2012 7.00427 18.3767V25.3784C7.00427 26.8346 8.18674 28 9.62585 28H25.381C26.8201 28 28.0026 26.8346 28.0026 25.3784V2.62156C28.0026 1.18245 26.8372 0 25.381 0H9.62585ZM13.3856 10.2505L16.2601 13.125H0.874145C-0.291382 13.125 -0.291382 14.875 0.874145 14.875H16.2653L13.3856 17.7495C12.5585 18.5766 13.7992 19.8174 14.6263 18.9902L18.9996 14.6169C19.3399 14.2766 19.3399 13.7233 18.9996 13.383L14.6263 9.00976C13.7493 8.2109 12.6059 9.40148 13.3856 10.2505Z" fill="white"/>
</svg>
