<svg xmlns="http://www.w3.org/2000/svg" width="46" height="46" viewBox="0 0 46 46" fill="none">
  <g clip-path="url(#clip0_10_19180)">
    <path d="M29.6582 24.8677L25.8894 28.6493C24.3611 30.1829 21.672 30.216 20.1106 28.6493L16.3416 24.8677L2.80502 38.4482C3.3089 38.6812 3.86446 38.8202 4.45508 38.8202H41.5449C42.1355 38.8202 42.6909 38.6814 43.1946 38.4483L29.6582 24.8677Z" fill="#B39557"/>
    <path d="M41.5449 7.17969H4.45507C3.86445 7.17969 3.30889 7.31873 2.80519 7.55173L17.27 22.0645C17.2709 22.0655 17.2721 22.0656 17.273 22.0666C17.274 22.0676 17.2742 22.0689 17.2742 22.0689L21.9775 26.7877C22.477 27.2873 23.5231 27.2873 24.0227 26.7877L28.725 22.0697C28.725 22.0697 28.7262 22.0676 28.7271 22.0666C28.7271 22.0666 28.7292 22.0655 28.7302 22.0645L43.1946 7.55164C42.6909 7.31855 42.1355 7.17969 41.5449 7.17969Z" fill="#B39557"/>
    <path d="M0.920645 9.39551C0.659961 9.92268 0.5 10.5079 0.5 11.1347V34.8652C0.5 35.492 0.659785 36.0772 0.920557 36.6043L14.4806 23.0004L0.920645 9.39551Z" fill="#B39557"/>
    <path d="M45.0794 9.39551L31.5195 23.0005L45.0794 36.6047C45.34 36.0775 45.5 35.4923 45.5 34.8653V11.1349C45.5 10.5079 45.34 9.92268 45.0794 9.39551Z" fill="#B39557"/>
  </g>
  <defs>
    <clipPath id="clip0_10_19180">
      <rect width="45" height="45" fill="white" transform="translate(0.5 0.5)"/>
    </clipPath>
  </defs>
</svg>
