<svg xmlns="http://www.w3.org/2000/svg" width="46" height="46" viewBox="0 0 46 46" fill="none">
  <path d="M34.8421 30.349C33.3556 28.8814 31.4999 28.8814 30.0229 30.349C28.8962 31.4662 27.7695 32.5834 26.6617 33.7196C26.3587 34.032 26.1031 34.0983 25.7338 33.89C25.0048 33.4924 24.2284 33.1705 23.5277 32.7349C20.2612 30.6803 17.525 28.0387 15.1011 25.0657C13.8987 23.5887 12.8288 22.0075 12.0808 20.2275C11.9293 19.8678 11.9577 19.631 12.2512 19.3375C13.3779 18.2487 14.4762 17.1315 15.584 16.0142C17.1273 14.4615 17.1273 12.6436 15.5745 11.0813C14.694 10.1913 13.8135 9.32027 12.9329 8.43027C12.024 7.52133 11.1245 6.60292 10.2061 5.70345C8.71961 4.25483 6.86386 4.25483 5.38684 5.71292C4.25066 6.83016 3.16183 7.9758 2.00672 9.0741C0.936823 10.0872 0.397141 11.3275 0.283523 12.7761C0.103629 15.1337 0.681184 17.3587 1.49544 19.5269C3.16183 24.0148 5.69929 28.0009 8.77642 31.6556C12.9329 36.5979 17.8942 40.5082 23.6982 43.3297C26.3114 44.5985 29.0193 45.5737 31.9638 45.7346C33.99 45.8483 35.7511 45.337 37.1618 43.7558C38.1276 42.6764 39.2164 41.6918 40.239 40.6597C41.7539 39.1259 41.7633 37.2701 40.2579 35.7552C38.459 33.9468 36.6506 32.1479 34.8421 30.349Z" fill="#B39557"/>
  <path d="M33.0338 22.803L36.5275 22.2065C35.9783 18.9968 34.4634 16.0901 32.1627 13.7799C29.7294 11.3466 26.6523 9.81276 23.2627 9.33936L22.7703 12.852C25.393 13.2213 27.779 14.4048 29.6631 16.289C31.4431 18.069 32.6077 20.3224 33.0338 22.803Z" fill="#B39557"/>
  <path d="M38.4969 7.61619C34.4634 3.58278 29.3601 1.03585 23.7266 0.25L23.2343 3.76267C28.1009 4.44437 32.513 6.65045 35.9973 10.1252C39.3016 13.4296 41.4698 17.6051 42.2557 22.1971L45.7494 21.6006C44.831 16.2795 42.322 11.4508 38.4969 7.61619Z" fill="#B39557"/>
</svg>
