<svg xmlns="http://www.w3.org/2000/svg" width="46" height="46" viewBox="0 0 46 46" fill="none">
  <g clip-path="url(#clip0_10_19133)">
    <path d="M38.91 7.09014C34.6603 2.84036 29.01 0.5 23 0.5C16.9901 0.5 11.3397 2.84036 7.09014 7.09005C2.84036 11.3397 0.5 16.9901 0.5 23C0.5 29.01 2.84036 34.6603 7.09014 38.91C11.3397 43.1596 16.9901 45.5 23 45.5C29.0101 45.5 34.6603 43.1596 38.91 38.9099C43.1596 34.6603 45.5001 29.0099 45.5001 23C45.5001 16.99 43.1596 11.3397 38.91 7.09014ZM8.9565 8.9565C10.935 6.97799 13.2577 5.46891 15.7893 4.48391C15.115 5.32573 14.484 6.29332 13.9058 7.38159C13.2342 8.64546 12.6548 10.0335 12.1722 11.5161C10.5003 11.2387 8.95123 10.8975 7.5673 10.4971C8.00104 9.96391 8.46379 9.44922 8.9565 8.9565ZM5.96936 12.7682C7.58804 13.2865 9.4392 13.7236 11.4591 14.0698C10.8966 16.4575 10.5655 19.0268 10.4865 21.6804H3.18383C3.39126 18.4958 4.34768 15.4566 5.96936 12.7682ZM5.82565 32.9878C4.29152 30.3599 3.38502 27.4084 3.18375 24.3197H10.4915C10.5778 26.8975 10.9023 29.3937 11.4458 31.7189C9.38444 32.0531 7.48679 32.4791 5.82565 32.9878ZM8.9565 37.0436C8.39576 36.4828 7.87351 35.8939 7.38932 35.2809C8.82396 34.8831 10.4278 34.5463 12.1542 34.2761C12.6403 35.7793 13.226 37.1857 13.9057 38.4651C14.5359 39.651 15.2287 40.6931 15.972 41.5857C13.3696 40.6028 10.9826 39.0695 8.9565 37.0436ZM21.6803 42.5219C19.6757 41.9604 17.7793 40.1298 16.2367 37.2266C15.6971 36.2113 15.2232 35.1036 14.8172 33.923C16.9908 33.6838 19.3036 33.5424 21.6803 33.5091V42.5219ZM21.6803 30.8695C19.0446 30.9055 16.4756 31.071 14.0698 31.3535C13.5391 29.1597 13.2198 26.7851 13.1322 24.3198H21.6804V30.8695H21.6803ZM21.6803 21.6803H13.1272C13.2073 19.146 13.5317 16.7052 14.0789 14.4556C16.4693 14.7544 19.0329 14.9362 21.6803 14.9882V21.6803ZM21.6803 12.3484C19.2944 12.3003 16.9866 12.1447 14.8285 11.8909C15.232 10.7227 15.7022 9.62614 16.2367 8.62006C17.7792 5.71685 19.6757 3.88626 21.6803 3.32472V12.3484ZM40.1139 12.9084C41.6848 15.5621 42.6123 18.5509 42.8164 21.6803H35.5138C35.4356 19.0573 35.1109 16.5168 34.5601 14.1527C36.5933 13.8243 38.4674 13.4066 40.1139 12.9084ZM37.0435 8.9565C37.5734 9.48639 38.0684 10.0419 38.5301 10.6185C37.1174 11.0043 35.5443 11.3317 33.8539 11.5952C33.3663 10.0827 32.7779 8.66796 32.0944 7.38159C31.5161 6.29332 30.8852 5.32573 30.2109 4.48391C32.7423 5.46891 35.0651 6.97799 37.0435 8.9565ZM24.3198 24.3198H32.868C32.7797 26.8043 32.4561 29.1969 31.9179 31.4049C29.5278 31.1077 26.9653 30.9276 24.3198 30.877V24.3198ZM24.3198 21.6803V14.997C26.957 14.9623 29.528 14.7983 31.9361 14.5167C32.4744 16.7494 32.7935 19.169 32.8729 21.6803H24.3198ZM24.3196 3.32472H24.3197C26.3243 3.88626 28.2207 5.71685 29.7633 8.62006C30.3063 9.64196 30.783 10.7574 31.1907 11.9465C29.0142 12.1849 26.6988 12.3253 24.3196 12.3573V3.32472ZM24.3198 42.5219V33.5168C26.7034 33.5636 29.0094 33.7177 31.1668 33.97C30.7643 35.1329 30.2957 36.2247 29.7634 37.2266C28.2208 40.1298 26.3244 41.9604 24.3198 42.5219ZM37.0435 37.0436C35.0175 39.0696 32.6305 40.6028 30.028 41.5856C30.7713 40.693 31.4641 39.651 32.0943 38.4651C32.764 37.2047 33.3422 35.8207 33.824 34.3425C35.5348 34.6249 37.1175 34.9741 38.5274 35.3848C38.0666 35.9602 37.5724 36.5146 37.0435 37.0436ZM40.1041 33.1083C38.4663 32.5817 36.5885 32.1387 34.5383 31.789C35.0917 29.4441 35.4215 26.9234 35.5088 24.3198H42.8165C42.6119 27.4556 41.6811 30.4505 40.1041 33.1083Z" fill="#B39557"/>
  </g>
  <defs>
    <clipPath id="clip0_10_19133">
      <rect width="45" height="45" fill="white" transform="translate(0.5 0.5)"/>
    </clipPath>
  </defs>
</svg>
