<svg xmlns="http://www.w3.org/2000/svg" width="363" height="7" viewBox="0 0 363 7" fill="none">
  <path d="M357.333 3.5C357.333 4.97276 358.527 6.16667 360 6.16667C361.473 6.16667 362.667 4.97276 362.667 3.5C362.667 2.02724 361.473 0.833333 360 0.833333C358.527 0.833333 357.333 2.02724 357.333 3.5ZM0 4H7.5V3H0L0 4ZM22.5 4H37.5V3H22.5V4ZM52.5 4H67.5V3H52.5V4ZM82.5 4H97.5V3H82.5V4ZM112.5 4H127.5V3H112.5V4ZM142.5 4H157.5V3H142.5V4ZM172.5 4L187.5 4V3H172.5V4ZM202.5 4H217.5V3H202.5V4ZM232.5 4H247.5V3H232.5V4ZM262.5 4H277.5V3H262.5V4ZM292.5 4H307.5V3H292.5V4ZM322.5 4H337.5V3H322.5V4ZM352.5 4H360V3H352.5V4Z" fill="#E5B346"/>
</svg>
