<svg width="1440" height="827" viewBox="0 0 1440 827" fill="none" xmlns="http://www.w3.org/2000/svg">
<mask id="mask0_9_18783" style="mask-type:luminance" maskUnits="userSpaceOnUse" x="-21" y="0" width="1461" height="827">
<path d="M1440 0H-21V826.981H1440V0Z" fill="white"/>
</mask>
<g mask="url(#mask0_9_18783)">
<path d="M2.18993 686.039H-21V1057.28H2.18993V686.039Z" fill="#E8E8E8"/>
<path d="M34.1493 570.812H10.9594V942.054H34.1493V570.812Z" fill="#E4E4E4"/>
<path d="M66.0915 644.48H42.9016V1015.72H66.0915V644.48Z" fill="#F2F2F2"/>
<path d="M98.0508 630.859H74.8609V1002.1H98.0508V630.859Z" fill="#D4D4D4"/>
<path d="M129.993 579.053H106.803V950.282H129.993V579.053Z" fill="#F2F2F2"/>
<path d="M161.952 554.068H138.762V925.297H161.952V554.068Z" fill="#DCDCDC"/>
<path d="M193.895 601.098H170.705V972.341H193.895V601.098Z" fill="#DFDFDF"/>
<path d="M225.854 521.958H202.664V893.187H225.854V521.958Z" fill="#EDEDED"/>
<path d="M257.796 653.062H234.606V1024.3H257.796V653.062Z" fill="#DBDBDB"/>
<path d="M289.755 596.964H266.566V968.207H289.755V596.964Z" fill="#E9E9E9"/>
<path d="M321.698 501.815H298.508V873.057H321.698V501.815Z" fill="#DADADA"/>
<path d="M353.657 642.394H330.467V1013.64H353.657V642.394Z" fill="#DEDEDE"/>
<path d="M385.599 523.939H362.409V895.182H385.599V523.939Z" fill="#E7E7E7"/>
<path d="M417.558 542.402H394.368V913.631H417.558V542.402Z" fill="#DDDDDD"/>
<path d="M449.501 625.82H426.311V997.05H449.501V625.82Z" fill="#F0F0F0"/>
<path d="M481.46 601.229H458.27V972.472H481.46V601.229Z" fill="#FAFAFA"/>
<path d="M513.419 597.713H490.229V968.942H513.419V597.713Z" fill="#F0F0F0"/>
<path d="M545.361 484.729H522.172V855.959H545.361V484.729Z" fill="#E5E5E5"/>
<path d="M577.321 535.605H554.131V906.834H577.321V535.605Z" fill="#E0E0E0"/>
<path d="M609.263 446.649H586.073V942.054H609.263V446.649Z" fill="#E2E2E2"/>
<path d="M641.222 596.794H618.032V968.036H641.222V596.794Z" fill="#E4E4E4"/>
<path d="M673.165 593.592H649.975V964.822H673.165V593.592Z" fill="#E2E2E2"/>
<path d="M705.124 586.598H681.934V957.827H705.124V586.598Z" fill="#EEEEEE"/>
<path d="M737.066 557.821H713.876V929.05H737.066V557.821Z" fill="#DFDFDF"/>
<path d="M769.025 485.543H745.836V856.773H769.025V485.543Z" fill="#ECECEC"/>
<path d="M800.968 445.35H777.778V872.545H800.968V445.35Z" fill="#D5D5D5"/>
<path d="M832.927 449.273H809.737V876.469H832.927V449.273Z" fill="#E6E6E6"/>
<path d="M864.869 532.18H841.679V903.422H864.869V532.18Z" fill="#F3F3F3"/>
<path d="M896.828 495.529H873.639V866.772H896.828V495.529Z" fill="#E4E4E4"/>
<path d="M928.771 466.319H905.581V837.561H928.771V466.319Z" fill="#E2E2E2"/>
<path d="M960.73 460.493H937.54V831.722H960.73V460.493Z" fill="#DADADA"/>
<path d="M992.672 417.543H969.482V906.834H992.672V417.543Z" fill="#D4D4D4"/>
<path d="M1024.63 473.431H1001.44V844.674H1024.63V473.431Z" fill="#D4D4D4"/>
<path d="M1056.59 434.865H1033.4V1148.26H1056.59V434.865Z" fill="#DCDCDC"/>
<path d="M1088.53 450.126H1065.34V986.408H1088.53V450.126Z" fill="#E9E9E9"/>
<path d="M1120.49 486.094H1097.3V857.324H1120.49V486.094Z" fill="#EAEAEA"/>
<path d="M1152.43 532.81H1129.24V904.039H1152.43V532.81Z" fill="#D1D1D1"/>
<path d="M1184.39 496.986H1161.2V868.215H1184.39V496.986Z" fill="#EAEAEA"/>
<path d="M1216.34 342.183H1193.15V878.477H1216.34V342.183Z" fill="#F2F2F2"/>
<path d="M1248.3 513.284H1225.11V884.513H1248.3V513.284Z" fill="#E8E8E8"/>
<path d="M1280.24 452.672H1257.05V823.915H1280.24V452.672Z" fill="#DEDEDE"/>
<path d="M1312.2 319.507H1289.01V855.801H1312.2V319.507Z" fill="#DADADA"/>
<path d="M1344.14 437.555H1320.95V973.836H1344.14V437.555Z" fill="#E7E7E7"/>
<path d="M1376.1 345.253H1352.91V881.534H1376.1V345.253Z" fill="#F6F6F6"/>
<path d="M1408.04 492.708H1384.85V863.937H1408.04V492.708Z" fill="#E8E8E8"/>
<path d="M1440 411.704H1416.81V947.999H1440V411.704Z" fill="#D9D9D9"/>
<path style="mix-blend-mode:screen" d="M1440 493.731H-21V825.856H1440V493.731Z" fill="url(#paint0_linear_9_18783)"/>
<path d="M1425.92 229.081C1423.95 229.088 1422.01 229.517 1420.33 230.319C1418.66 231.121 1417.31 232.264 1416.45 233.618C1415.58 234.973 1415.23 236.485 1415.43 237.984C1415.64 239.483 1416.39 240.908 1417.6 242.098L1336.73 307.408C1334.97 306.488 1332.89 305.998 1330.75 306.004C1328.95 306.006 1327.17 306.357 1325.6 307.026C1324.02 307.694 1322.69 308.657 1321.74 309.824C1320.79 310.991 1320.24 312.323 1320.15 313.696C1320.06 315.069 1320.43 316.436 1321.22 317.67L1243.18 359.726C1241.57 358.47 1239.47 357.646 1237.19 357.379C1234.91 357.113 1232.58 357.419 1230.55 358.25C1228.52 359.082 1226.9 360.394 1225.94 361.988C1224.98 363.583 1224.72 365.373 1225.21 367.088L1149.59 389.501C1148.85 388.561 1147.86 387.746 1146.69 387.106C1145.53 386.465 1144.2 386.013 1142.79 385.775C1141.39 385.538 1139.93 385.522 1138.52 385.726C1137.1 385.931 1135.76 386.353 1134.56 386.966C1133.37 387.58 1132.35 388.371 1131.57 389.294C1130.79 390.216 1130.27 391.25 1130.03 392.331C1129.79 393.413 1129.85 394.521 1130.19 395.586C1130.53 396.651 1131.15 397.653 1132.02 398.529L1051.23 463.826C1050.01 463.19 1048.62 462.757 1047.16 462.554C1045.7 462.352 1044.2 462.384 1042.76 462.65C1041.32 462.916 1039.97 463.409 1038.79 464.097C1037.62 464.786 1036.64 465.654 1035.93 466.647L960.541 446.334C960.659 445.853 960.717 445.366 960.713 444.877C960.717 443.522 960.275 442.187 959.427 440.996C958.578 439.804 957.351 438.794 955.856 438.058C954.362 437.322 952.65 436.883 950.875 436.782C949.1 436.681 947.321 436.921 945.7 437.48C944.078 438.039 942.667 438.899 941.596 439.981C940.524 441.063 939.826 442.333 939.567 443.673C939.307 445.014 939.493 446.383 940.108 447.655C940.723 448.927 941.748 450.061 943.088 450.953L859.08 552.821C857.769 552.39 856.356 552.172 854.928 552.178C852.816 552.175 850.752 552.653 848.998 553.549C847.245 554.445 845.882 555.72 845.085 557.209C844.288 558.698 844.092 560.335 844.522 561.91C844.953 563.484 845.991 564.925 847.502 566.048L764.443 655.581C761.987 654.653 759.154 654.488 756.541 655.119C753.928 655.751 751.739 657.13 750.436 658.967L675.042 638.654C675.153 638.173 675.21 637.685 675.215 637.197C675.216 635.861 674.784 634.546 673.956 633.368C673.128 632.191 671.93 631.187 670.469 630.448C669.009 629.708 667.33 629.256 665.584 629.13C663.838 629.004 662.078 629.21 660.462 629.728C658.845 630.246 657.422 631.061 656.319 632.099C655.216 633.138 654.468 634.369 654.141 635.681C653.814 636.994 653.918 638.347 654.445 639.621C654.972 640.896 655.904 642.051 657.159 642.984L574.099 732.504C572.479 731.901 570.684 731.621 568.883 731.692C567.081 731.763 565.334 732.182 563.803 732.909C562.273 733.636 561.011 734.647 560.136 735.848C559.261 737.049 558.801 738.4 558.8 739.774V739.892L484.285 749.931C483.563 748.343 482.209 746.967 480.412 745.993C478.615 745.019 476.464 744.496 474.258 744.496C472.053 744.496 469.902 745.019 468.105 745.993C466.308 746.967 464.954 748.343 464.231 749.931L389.717 739.892V739.774C389.722 738.077 389.025 736.423 387.727 735.044C386.428 733.666 384.593 732.633 382.482 732.093C380.37 731.553 378.089 731.533 375.961 732.036C373.834 732.538 371.968 733.537 370.627 734.893L293.976 703.911C294.527 702.692 294.687 701.39 294.443 700.114C294.199 698.838 293.559 697.625 292.576 696.576C291.592 695.526 290.294 694.671 288.789 694.081C287.284 693.491 285.616 693.183 283.923 693.183C282.231 693.183 280.562 693.491 279.058 694.081C277.553 694.671 276.254 695.526 275.271 696.576C274.288 697.625 273.648 698.838 273.404 700.114C273.16 701.39 273.32 702.692 273.87 703.911L197.237 734.893C196.246 733.895 194.965 733.086 193.494 732.529C192.023 731.972 190.403 731.682 188.76 731.682C187.118 731.682 185.498 731.972 184.027 732.529C182.556 733.086 181.275 733.895 180.284 734.893L103.65 703.911C104.21 702.689 104.378 701.382 104.139 700.1C103.9 698.818 103.262 697.599 102.278 696.543C101.294 695.488 99.9923 694.627 98.4821 694.033C96.9718 693.439 95.2969 693.13 93.5972 693.13C91.8975 693.13 90.2226 693.439 88.7123 694.033C87.2021 694.627 85.9005 695.488 84.9163 696.543C83.9322 697.599 83.2941 698.818 83.0554 700.1C82.8166 701.382 82.9843 702.689 83.5442 703.911L6.89339 734.893C5.37127 733.361 3.1835 732.291 0.721065 731.874C-1.74137 731.458 -4.31799 731.722 -6.54833 732.619C-8.77868 733.517 -10.5174 734.989 -11.4538 736.773C-12.3901 738.557 -12.4631 740.536 -11.6597 742.357C-10.8562 744.178 -9.22872 745.722 -7.06802 746.714C-4.90731 747.705 -2.3542 748.079 0.135034 747.768C2.62427 747.458 4.88742 746.483 6.52003 745.019C8.15264 743.554 9.04831 741.695 9.04699 739.774C9.04779 738.881 8.85571 737.995 8.47844 737.15L85.1293 706.181C86.1186 707.178 87.3983 707.987 88.8676 708.545C90.3369 709.102 91.9559 709.392 93.5972 709.392C95.2385 709.392 96.8575 709.102 98.3268 708.545C99.7961 707.987 101.076 707.178 102.065 706.181L178.716 737.163C178.325 738.005 178.126 738.893 178.13 739.787C178.13 741.934 179.25 743.994 181.244 745.512C183.237 747.031 185.941 747.884 188.76 747.884C191.58 747.884 194.283 747.031 196.277 745.512C198.271 743.994 199.39 741.934 199.39 739.787C199.394 738.893 199.196 738.005 198.805 737.163L275.456 706.181C276.445 707.178 277.725 707.987 279.194 708.545C280.663 709.102 282.282 709.392 283.923 709.392C285.565 709.392 287.184 709.102 288.653 708.545C290.122 707.987 291.402 707.178 292.391 706.181L369.042 737.163C368.274 739.162 368.548 741.31 369.805 743.159C371.063 745.009 373.208 746.418 375.795 747.094C378.382 747.77 381.212 747.661 383.695 746.789C386.179 745.917 388.126 744.349 389.131 742.412L463.645 752.45C463.645 752.45 463.645 752.529 463.645 752.581C463.645 754.729 464.765 756.788 466.759 758.306C468.752 759.825 471.456 760.678 474.276 760.678C477.095 760.678 479.799 759.825 481.792 758.306C483.786 756.788 484.906 754.729 484.906 752.581C484.915 752.538 484.915 752.494 484.906 752.45L559.437 742.412C559.946 743.576 560.797 744.637 561.925 745.514C563.052 746.39 564.427 747.06 565.945 747.472C567.463 747.884 569.084 748.027 570.685 747.891C572.287 747.755 573.826 747.343 575.187 746.686C576.548 746.029 577.695 745.144 578.541 744.1C579.386 743.055 579.909 741.877 580.068 740.656C580.227 739.435 580.019 738.202 579.459 737.051C578.9 735.9 578.003 734.861 576.838 734.013L659.898 644.48C661.353 645.035 662.958 645.322 664.585 645.32C666.494 645.32 668.368 644.928 670.009 644.184C671.649 643.441 672.996 642.373 673.905 641.094L749.298 661.408C749.174 661.888 749.111 662.375 749.109 662.864C749.108 664.2 749.54 665.516 750.368 666.693C751.196 667.871 752.394 668.874 753.854 669.614C755.315 670.353 756.993 670.806 758.74 670.932C760.486 671.057 762.246 670.852 763.862 670.334C765.479 669.815 766.902 669.001 768.005 667.962C769.108 666.923 769.856 665.693 770.183 664.38C770.51 663.068 770.405 661.714 769.879 660.44C769.352 659.166 768.42 658.011 767.165 657.077L850.242 567.557C852.549 568.412 855.184 568.602 857.66 568.091C860.136 567.58 862.286 566.403 863.711 564.779C865.136 563.154 865.74 561.191 865.411 559.253C865.082 557.315 863.843 555.534 861.923 554.238L945.93 452.383C947.25 452.806 948.668 453.025 950.1 453.026C952.009 453.027 953.883 452.634 955.524 451.891C957.165 451.147 958.511 450.079 959.421 448.801L1034.81 469.114C1034.69 469.594 1034.63 470.081 1034.62 470.57C1034.62 471.858 1035.03 473.126 1035.8 474.272C1036.57 475.417 1037.69 476.405 1039.06 477.155C1040.44 477.905 1042.03 478.394 1043.7 478.583C1045.37 478.771 1047.08 478.654 1048.68 478.239C1050.28 477.825 1051.72 477.126 1052.9 476.2C1054.07 475.275 1054.94 474.149 1055.43 472.917C1055.92 471.685 1056.02 470.382 1055.71 469.116C1055.41 467.849 1054.71 466.657 1053.68 465.636L1134.46 400.34C1136.22 401.252 1138.29 401.741 1140.42 401.745C1142.54 401.75 1144.62 401.268 1146.38 400.364C1148.14 399.459 1149.5 398.173 1150.3 396.672C1151.09 395.17 1151.27 393.522 1150.82 391.942L1226.36 369.476C1227.54 371.008 1229.35 372.201 1231.51 372.872C1233.67 373.543 1236.06 373.654 1238.31 373.189C1240.57 372.723 1242.55 371.707 1243.97 370.296C1245.39 368.885 1246.16 367.159 1246.16 365.382C1246.15 364.144 1245.77 362.924 1245.06 361.813L1323.1 319.822C1324.99 321.322 1327.56 322.212 1330.28 322.307C1333 322.403 1335.67 321.696 1337.73 320.335C1339.79 318.973 1341.08 317.061 1341.34 314.993C1341.59 312.926 1340.79 310.863 1339.11 309.232L1419.89 243.935C1421.27 244.649 1422.85 245.107 1424.5 245.271C1426.15 245.436 1427.83 245.303 1429.4 244.883C1430.97 244.463 1432.39 243.768 1433.54 242.853C1434.69 241.939 1435.55 240.831 1436.04 239.619C1436.53 238.407 1436.64 237.125 1436.35 235.875C1436.07 234.625 1435.41 233.443 1434.42 232.424C1433.43 231.405 1432.14 230.578 1430.65 230.009C1429.16 229.439 1427.52 229.144 1425.86 229.147L1425.92 229.081Z" fill="white"/>
</g>
<defs>
<linearGradient id="paint0_linear_9_18783" x1="709.5" y1="825.869" x2="709.5" y2="493.731" gradientUnits="userSpaceOnUse">
<stop stop-color="#B5B5B5"/>
<stop offset="1"/>
</linearGradient>
</defs>
</svg>
