<svg width="60" height="60" viewBox="0 0 60 60" fill="none" xmlns="http://www.w3.org/2000/svg">
<path d="M50.7273 40.0909C49.2727 39.5455 47.6364 39.7273 46.1818 40.6364L37.4545 45.9091C37.0909 45.6364 36.7273 45.3636 36.3636 45.2727L23.1818 40.5455C22.1818 40.1818 21.0909 40.1818 20.1818 40.6364C20.1818 40.6364 20.0909 40.6364 20.0909 40.7273L14.8182 43.9091V43.6364C14.8182 42.6364 14 41.8182 13 41.8182H8.63637C7.63637 41.8182 6.81818 42.6364 6.81818 43.6364V57.2727C6.81818 58.2727 7.63637 59.0909 8.63637 59.0909H12.9091C13.9091 59.0909 14.7273 58.2727 14.7273 57.2727V56.8182C16.7273 55.7273 17.5455 54.7273 18.9091 54.9091L33.4545 58.0909C34.6364 58.4545 35.9091 58.1818 37 57.4545L51.8182 45.7273C53.8182 44.3636 53.6364 41.1818 50.7273 40.0909ZM8.63637 57.2727V43.6364H12.9091V57.2727H8.63637ZM50.7273 44.2727C35.6364 55.7273 36 56.9091 33.9091 56.2727L19.2727 53.0909H19.1818C17.0909 52.7273 15.6364 54.1818 14.7273 54.6364V45.9091L20.9091 42.1818C21.4545 42 22 42 22.5455 42.1818L35.7273 46.9091C36.9091 47.3636 37.3636 48.8182 36.6364 49.8182C36.0909 50.5455 35.1818 50.8182 34.2727 50.4545L26.4545 47.4545C26 47.2727 25.4545 47.5455 25.2727 48C25.0909 48.4545 25.3636 49 25.8182 49.1818L33.6364 52.1818C35.2727 52.9091 37.0909 52.3636 38.0909 51C38.8182 50 39.0909 48.8182 38.5455 47.4545L47.1818 42.2727C48.0909 41.7273 49.1818 41.5455 50.1818 41.9091C51.5455 42.3636 51.6364 43.6364 50.7273 44.2727Z" fill="#C49C48"/>
<path d="M28.4546 31C29.2727 31.5455 29.8182 32.4545 30 33.3636C29.1818 33.8182 28.7273 34.7273 28.7273 35.6364C28.7273 36.9091 29.6364 38 30.9091 38.2727L31.2727 41.1818C31.3636 41.6364 31.7273 42 32.1818 42H39.2727C39.7273 42 40.0909 41.6364 40.1818 41.1818L40.5455 38.1818C41.6364 37.8182 42.5455 36.8182 42.5455 35.6364C42.5455 34.6364 42 33.8182 41.2727 33.3636C41.3636 32.4545 41.9091 31.5455 42.8182 30.9091C46.1818 28.5455 48.2727 24.7273 48.2727 20.6364C48.2727 13.5455 42.3636 7.81818 35.1818 8.18182C28.7273 8.45454 23.3636 14 23.2727 20.4545C23 24.7273 25 28.6364 28.4546 31ZM32.9091 40.2727L32.7273 38.4545H38.6364L38.4546 40.2727H32.9091ZM39.6364 36.6364H31.3636C30.9091 36.6364 30.4546 36.2727 30.4546 35.7273C30.4546 35.2727 30.8182 34.8182 31.3636 34.8182H39.6364C40.0909 34.8182 40.5455 35.1818 40.5455 35.7273C40.5455 36.1818 40.1818 36.6364 39.6364 36.6364ZM35 10.0909C41.0909 9.81818 46.1818 14.7273 46.1818 20.7273C46.1818 24.2727 44.4546 27.5455 41.5455 29.5455C40.2727 30.3636 39.4546 31.6364 39.2727 33.0909H31.8182C31.6364 31.7273 30.8182 30.4545 29.5455 29.5455C26.6364 27.5455 24.9091 24.1818 24.9091 20.6364C25 15.0909 29.5455 10.3636 35 10.0909Z" fill="#C49C48"/>
<path d="M35.2727 14.6364C38.7273 14.4545 41.6364 17.2727 41.6364 20.7273C41.6364 21.2727 42 21.6364 42.5455 21.6364C43.0909 21.6364 43.4545 21.2727 43.4545 20.7273C43.4545 16.2727 39.7273 12.6364 35.1818 12.8182C34.6364 12.8182 34.2727 13.2727 34.2727 13.7273C34.2727 14.2727 34.7273 14.6364 35.2727 14.6364Z" fill="#C49C48"/>
<path d="M35.5455 6.27272C36.0909 6.27272 36.4545 5.90909 36.4545 5.36363V1.81818C36.4545 1.27272 36.0909 0.909088 35.5455 0.909088C35 0.909088 34.6364 1.27272 34.6364 1.81818V5.36363C34.6364 5.90909 35 6.27272 35.5455 6.27272Z" fill="#C49C48"/>
<path d="M29.0909 6.72727C29.2727 7.0909 29.5455 7.27272 29.9091 7.27272C30 7.27272 30.1818 7.27272 30.2727 7.18181C30.7273 7 31 6.45454 30.7273 5.99999L29.3636 2.72727C29.1818 2.27272 28.6364 2 28.1818 2.27272C27.7273 2.45454 27.4545 3 27.7273 3.45454L29.0909 6.72727Z" fill="#C49C48"/>
<path d="M24.5455 10.1818C24.9091 10.5455 25.4546 10.5455 25.8182 10.1818C26.1818 9.81818 26.1818 9.27273 25.8182 8.90909L23.2727 6.36364C22.9091 6 22.3636 6 22 6.36364C21.6364 6.72728 21.6364 7.27273 22 7.63637L24.5455 10.1818Z" fill="#C49C48"/>
<path d="M46.4545 10.4546L49 7.9091C49.3636 7.54547 49.3636 7.00001 49 6.63637C48.6364 6.27274 48.0909 6.27274 47.7273 6.63637L45.1818 9.09092C44.8182 9.45456 44.8182 10 45.1818 10.3636C45.4545 10.7273 46.0909 10.7273 46.4545 10.4546Z" fill="#C49C48"/>
<path d="M40.7273 7.36362C40.8182 7.45453 41 7.45453 41.0909 7.45453C41.4545 7.45453 41.8182 7.27271 41.9091 6.90908L43.2727 3.63635C43.4545 3.1818 43.2727 2.63635 42.8182 2.45453C42.3636 2.27271 41.8182 2.45453 41.6364 2.90908L40.2727 6.1818C40.0909 6.63635 40.2727 7.1818 40.7273 7.36362Z" fill="#C49C48"/>
</svg>
