<svg width="60" height="60" viewBox="0 0 60 60" fill="none" xmlns="http://www.w3.org/2000/svg">
<path d="M30 45.9375C38.7881 45.9375 45.9375 38.7881 45.9375 30C45.9375 21.2119 38.7881 14.0625 30 14.0625C21.2119 14.0625 14.0625 21.2119 14.0625 30C14.0625 38.7881 21.2119 45.9375 30 45.9375ZM30 15.9375C37.7541 15.9375 44.0625 22.2459 44.0625 30C44.0625 37.7541 37.7541 44.0625 30 44.0625C22.2459 44.0625 15.9375 37.7541 15.9375 30C15.9375 22.2459 22.2459 15.9375 30 15.9375Z" fill="#C49C48"/>
<path d="M35.625 36.5625H39.375C39.8925 36.5625 40.3125 36.1425 40.3125 35.625V23.4375C40.3125 22.92 39.8925 22.5 39.375 22.5H35.625C35.1075 22.5 34.6875 22.92 34.6875 23.4375V35.625C34.6875 36.1425 35.1075 36.5625 35.625 36.5625ZM36.5625 24.375H38.4375V34.6875H36.5625V24.375Z" fill="#C49C48"/>
<path d="M28.125 36.5625H31.875C32.3925 36.5625 32.8125 36.1425 32.8125 35.625V26.25C32.8125 25.7325 32.3925 25.3125 31.875 25.3125H28.125C27.6075 25.3125 27.1875 25.7325 27.1875 26.25V35.625C27.1875 36.1425 27.6075 36.5625 28.125 36.5625ZM29.0625 27.1875H30.9375V34.6875H29.0625V27.1875Z" fill="#C49C48"/>
<path d="M24.375 36.5625C24.8925 36.5625 25.3125 36.1425 25.3125 35.625V30C25.3125 29.4825 24.8925 29.0625 24.375 29.0625H20.625C20.1075 29.0625 19.6875 29.4825 19.6875 30V35.625C19.6875 36.1425 20.1075 36.5625 20.625 36.5625H24.375ZM21.5625 30.9375H23.4375V34.6875H21.5625V30.9375Z" fill="#C49C48"/>
<path d="M11.1347 24.1687C10.9509 24.8062 10.4878 25.3012 9.89531 25.4934L7.38281 26.31C7.035 26.4234 6.78562 26.7272 6.74156 27.09C6.6225 28.0847 6.5625 29.0634 6.5625 30C6.5625 30.9365 6.6225 31.9153 6.7425 32.91C6.78562 33.2728 7.03594 33.5765 7.38375 33.69L9.89625 34.5065C10.4887 34.6987 10.9519 35.1947 11.1356 35.8322C11.2266 36.1472 11.325 36.4594 11.43 36.7687C11.6475 37.41 11.55 38.1122 11.1675 38.6465L9.66938 40.7409C9.45844 41.0362 9.43594 41.4262 9.61312 41.744C10.5703 43.455 11.7384 45.0459 13.0838 46.4728C13.3388 46.7437 13.7278 46.8365 14.0766 46.7137L16.3425 45.9178C16.9209 45.7153 17.5622 45.8297 18.0572 46.2234C18.3047 46.4203 18.5569 46.6115 18.8128 46.7962C19.3397 47.175 19.6491 47.7975 19.6416 48.4612L19.6153 50.7497C19.6116 51.1172 19.8216 51.4528 20.1534 51.6094C21.9441 52.4531 23.8425 53.0634 25.7944 53.4234C25.8497 53.4328 25.9059 53.4375 25.9622 53.4375C26.2688 53.4375 26.5603 53.2865 26.7366 53.0278L27.9497 51.2484C28.3088 50.7215 28.9003 50.4412 29.5172 50.4309C29.8378 50.4394 30.1603 50.4394 30.4828 50.4309C31.1072 50.3962 31.6903 50.7215 32.0494 51.2484L33.2616 53.0278C33.4706 53.3353 33.84 53.49 34.2066 53.4216C36.1584 53.0616 38.0559 52.4512 39.8475 51.6075C40.1794 51.4509 40.3894 51.1153 40.3856 50.7487L40.3594 48.4603C40.3519 47.7966 40.6612 47.174 41.1872 46.7953C41.4431 46.6106 41.6953 46.4203 41.9428 46.2234C42.4378 45.8297 43.0781 45.7134 43.6584 45.9178L45.9244 46.7137C46.2731 46.8356 46.6631 46.7428 46.9172 46.4728C48.2625 45.0469 49.4297 43.4559 50.3869 41.744C50.5641 41.4272 50.5425 41.0362 50.3316 40.7409L48.8334 38.6465C48.4509 38.1122 48.3525 37.41 48.5709 36.7687C48.6759 36.4594 48.7744 36.1472 48.8653 35.8322C49.0491 35.1947 49.5122 34.6997 50.1047 34.5075L52.6172 33.6909C52.965 33.5775 53.2144 33.2737 53.2584 32.9109C53.3775 31.9153 53.4375 30.9365 53.4375 30C53.4375 29.0634 53.3775 28.0847 53.2575 27.09C53.2144 26.7272 52.9641 26.4234 52.6162 26.31L50.1038 25.4934C49.5112 25.3012 49.0481 24.8053 48.8644 24.1678C48.7734 23.8528 48.675 23.5406 48.57 23.2312C48.3525 22.59 48.45 21.8878 48.8325 21.3534L50.3306 19.259C50.5416 18.9637 50.5641 18.5737 50.3869 18.2559C49.4297 16.545 48.2616 14.954 46.9162 13.5272C46.6622 13.2572 46.2713 13.1625 45.9234 13.2862L43.6575 14.0822C43.08 14.2865 42.4387 14.1712 41.9428 13.7765C41.6953 13.5797 41.4431 13.3884 41.1872 13.2037C40.6603 12.825 40.3509 12.2025 40.3584 11.5387L40.3847 9.2503C40.3884 8.8828 40.1784 8.54717 39.8466 8.39061C38.0559 7.54686 36.1575 6.93655 34.2056 6.57655C33.8419 6.51092 33.4697 6.66467 33.2616 6.9703L32.0484 8.74967C31.6894 9.27655 31.11 9.56905 30.4809 9.56717C30.1603 9.55874 29.8378 9.55874 29.5153 9.56717C28.8713 9.58217 28.3078 9.27655 27.9487 8.74967L26.7366 6.9703C26.5275 6.66374 26.1591 6.50905 25.7916 6.57655C23.8397 6.93655 21.9422 7.54686 20.1506 8.39061C19.8187 8.54717 19.6088 8.8828 19.6125 9.24936L19.6388 11.5378C19.6462 12.2015 19.3369 12.824 18.8109 13.2028C18.555 13.3875 18.3028 13.5778 18.0553 13.7747C17.5603 14.1684 16.9191 14.2828 16.3397 14.0803L14.0738 13.2844C13.7241 13.1615 13.335 13.2562 13.0809 13.5253C11.7356 14.9512 10.5684 16.5422 9.61125 18.254C9.43406 18.5709 9.45562 18.9619 9.66656 19.2572L11.1647 21.3515C11.5472 21.8859 11.6447 22.5881 11.4262 23.2294C11.325 23.5415 11.2266 23.8537 11.1347 24.1687ZM12.6928 20.264L11.5453 18.66C12.2653 17.4497 13.1016 16.3106 14.0381 15.2606L15.72 15.8512C16.9116 16.2694 18.2213 16.0415 19.2244 15.2437C19.4484 15.0656 19.6763 14.8931 19.9078 14.7262C20.9288 13.9903 21.5297 12.7912 21.5147 11.5181L21.495 9.84092C22.7934 9.27374 24.1481 8.8378 25.5356 8.54061L26.3981 9.80717C27.1181 10.8637 28.3069 11.4694 29.5612 11.4431C29.8528 11.4365 30.1462 11.4365 30.435 11.4431C31.7044 11.4834 32.8791 10.8637 33.5981 9.80717L34.4625 8.54061C35.8509 8.8378 37.2056 9.27374 38.5041 9.84092L38.4844 11.5181C38.4703 12.7912 39.0713 13.9903 40.0922 14.7262C40.3237 14.8931 40.5516 15.0656 40.7756 15.2437C41.7797 16.0425 43.0894 16.2703 44.2809 15.8512L45.9628 15.2606C46.9003 16.3106 47.7356 17.4506 48.4556 18.66L47.3081 20.2631C46.575 21.2878 46.3838 22.6228 46.7962 23.835C46.8919 24.1172 46.9809 24.4012 47.0644 24.689C47.4206 25.9247 48.3413 26.8922 49.5253 27.2775L51.4603 27.9056C51.5278 28.6219 51.5625 29.324 51.5625 30C51.5625 30.6759 51.5278 31.3781 51.4594 32.0944L49.5253 32.7225C48.3403 33.1069 47.4206 34.0744 47.0634 35.3109C46.9809 35.5987 46.8909 35.8828 46.7953 36.164C46.3828 37.3753 46.575 38.7112 47.3072 39.7359L48.4537 41.34C47.7337 42.5503 46.8975 43.6894 45.9609 44.7394L44.2791 44.1487C43.0856 43.7297 41.7778 43.9575 40.7747 44.7562C40.5506 44.9344 40.3228 45.1069 40.0913 45.2737C39.0703 46.0097 38.4694 47.2087 38.4844 48.4819L38.5041 50.159C37.2056 50.7262 35.8509 51.1622 34.4634 51.4594L33.6009 50.1928C32.8988 49.1625 31.7569 48.5559 30.5325 48.5559C30.5006 48.5559 30.4697 48.5559 30.4378 48.5569C30.1462 48.5634 29.8528 48.5634 29.5641 48.5569C28.2872 48.5278 27.12 49.1362 26.4009 50.1928L25.5375 51.4594C24.1491 51.1622 22.7944 50.7262 21.4959 50.159L21.5156 48.4819C21.5297 47.2087 20.9288 46.0097 19.9078 45.2737C19.6763 45.1069 19.4484 44.9344 19.2244 44.7562C18.2203 43.9575 16.9106 43.7287 15.7191 44.1487L14.0372 44.7394C13.0997 43.6894 12.2644 42.5494 11.5444 41.34L12.6919 39.7369C13.425 38.7122 13.6162 37.3772 13.2037 36.165C13.1081 35.8828 13.0191 35.5987 12.9356 35.3109C12.5794 34.0753 11.6588 33.1078 10.4747 32.7225L8.53969 32.0944C8.47219 31.3781 8.4375 30.6759 8.4375 30C8.4375 29.324 8.47219 28.6219 8.54062 27.9056L10.4756 27.2775C11.6606 26.8922 12.5803 25.9247 12.9366 24.689C13.0191 24.4012 13.1091 24.1172 13.2047 23.8359C13.6172 22.6247 13.4259 21.2887 12.6928 20.264Z" fill="#C49C48"/>
<path d="M57.8288 18.7978L56.0334 19.3959C51.7453 8.88281 41.4169 1.875 30 1.875C18.2541 1.875 7.64157 9.28031 3.59344 20.3016L5.35313 20.9475C9.13219 10.6613 19.0369 3.75 30 3.75C40.6153 3.75 50.2219 10.2403 54.2522 19.9903L52.2038 20.6728C51.8784 20.7816 51.6375 21.06 51.5775 21.3975C51.5175 21.7359 51.6469 22.08 51.915 22.2947L56.6025 26.0447C56.7713 26.1797 56.9775 26.25 57.1875 26.25C57.3009 26.25 57.4144 26.2303 57.5222 26.1881C57.8325 26.0691 58.0575 25.7944 58.1119 25.4662L59.0494 19.8412C59.1038 19.5169 58.9838 19.1878 58.7334 18.9741C58.4831 18.7603 58.14 18.6928 57.8288 18.7978ZM56.5256 23.5819L54.4313 21.9066L56.9447 21.0694L56.5256 23.5819Z" fill="#C49C48"/>
<path d="M2.02967 40.2994L3.72467 40.0172C7.86092 50.8594 18.3703 58.125 30 58.125C41.7459 58.125 52.3584 50.7197 56.4066 39.6984L54.6469 39.0525C50.8678 49.3387 40.9631 56.25 30 56.25C19.2722 56.25 9.57374 49.6237 5.6203 39.7012L7.65374 39.3619C7.98186 39.3075 8.25655 39.0825 8.37561 38.7722C8.49374 38.4609 8.43936 38.1112 8.23217 37.8516L4.48217 33.1641C4.26749 32.895 3.92249 32.7637 3.58499 32.8266C3.24749 32.8866 2.96905 33.1275 2.8603 33.4528L0.985298 39.0778C0.881236 39.39 0.947798 39.7331 1.16155 39.9834C1.34249 40.1944 1.60311 40.3125 1.87499 40.3125C1.92655 40.3125 1.97717 40.3087 2.02967 40.2994ZM4.09405 35.6813L5.76936 37.7756L3.25686 38.1947L4.09405 35.6813Z" fill="#C49C48"/>
</svg>
