<svg width="60" height="60" viewBox="0 0 60 60" fill="none" xmlns="http://www.w3.org/2000/svg">
<path d="M5.00004 30C4.99936 25.3053 6.32082 20.7053 8.8131 16.7267C11.3054 12.7482 14.8677 9.55192 19.0922 7.50397C23.3167 5.45601 28.0325 4.63915 32.6996 5.14692C37.3668 5.65468 41.7966 7.46656 45.4819 10.3751H41.679C41.3496 10.3782 41.0348 10.5113 40.8029 10.7454C40.5711 10.9795 40.4411 11.2956 40.4411 11.625C40.4411 11.9545 40.5711 12.2706 40.8029 12.5047C41.0348 12.7387 41.3496 12.8718 41.679 12.875H48.75C49.0815 12.875 49.3995 12.7433 49.6339 12.5089C49.8683 12.2745 50 11.9565 50 11.625V4.55376C50.0016 4.38859 49.9705 4.22475 49.9084 4.07169C49.8463 3.91863 49.7545 3.7794 49.6382 3.66204C49.522 3.54468 49.3837 3.45151 49.2312 3.38793C49.0788 3.32436 48.9152 3.29162 48.7501 3.29162C48.5849 3.29162 48.4213 3.32436 48.2689 3.38793C48.1164 3.45151 47.9781 3.54468 47.8619 3.66204C47.7456 3.7794 47.6538 3.91863 47.5917 4.07169C47.5296 4.22475 47.4985 4.38859 47.5001 4.55376V8.78657C42.0495 4.29024 35.0774 2.06444 28.0297 2.57082C20.9821 3.0772 14.3997 6.27689 9.64796 11.5063C4.89618 16.7356 2.33959 23.5934 2.50844 30.6572C2.67729 37.721 5.55863 44.4488 10.5548 49.4451C10.6704 49.5634 10.8083 49.6575 10.9605 49.7221C11.1127 49.7867 11.2762 49.8205 11.4416 49.8214C11.6069 49.8224 11.7708 49.7905 11.9238 49.7277C12.0767 49.6649 12.2157 49.5723 12.3326 49.4554C12.4496 49.3385 12.5421 49.1995 12.6049 49.0465C12.6678 48.8936 12.6997 48.7297 12.6987 48.5643C12.6977 48.399 12.664 48.2355 12.5994 48.0833C12.5348 47.931 12.4406 47.7932 12.3224 47.6776C9.99365 45.3615 8.14742 42.6066 6.89054 39.5722C5.63366 36.5379 4.99109 33.2843 5.00004 30Z" fill="#C49C48"/>
<path d="M19.0747 52.4945C18.3655 52.1496 17.6635 51.7657 16.9888 51.3544C16.7058 51.1817 16.3658 51.1284 16.0436 51.2064C15.7214 51.2843 15.4434 51.4871 15.2706 51.77C15.0979 52.053 15.0447 52.3929 15.1226 52.7152C15.2005 53.0374 15.4033 53.3154 15.6862 53.4882C16.4291 53.9417 17.2017 54.3634 17.9824 54.743C18.13 54.8147 18.2904 54.8567 18.4542 54.8665C18.6181 54.8762 18.7822 54.8537 18.9374 54.8C19.0925 54.7463 19.2355 54.6626 19.3583 54.5537C19.4811 54.4447 19.5812 54.3127 19.6529 54.165C19.7247 54.0174 19.7666 53.8571 19.7764 53.6932C19.7862 53.5294 19.7636 53.3652 19.7099 53.2101C19.6562 53.055 19.5725 52.9119 19.4636 52.7891C19.3546 52.6664 19.2226 52.5663 19.075 52.4945H19.0747Z" fill="#C49C48"/>
<path d="M52.5055 19.0979C52.5771 19.2456 52.677 19.3778 52.7997 19.4869C52.9223 19.596 53.0653 19.6799 53.2203 19.7338C53.3754 19.7877 53.5395 19.8105 53.7034 19.8009C53.8673 19.7913 54.0277 19.7495 54.1754 19.678C54.3232 19.6064 54.4554 19.5065 54.5645 19.3838C54.6736 19.2612 54.7574 19.1182 54.8113 18.9632C54.8652 18.8081 54.888 18.6439 54.8784 18.4801C54.8688 18.3162 54.8271 18.1558 54.7555 18.0081C54.3789 17.2298 53.9578 16.4572 53.5043 15.7112C53.419 15.5709 53.3068 15.4488 53.1743 15.3519C53.0418 15.255 52.8915 15.1851 52.732 15.1462C52.4098 15.0678 52.0697 15.1205 51.7864 15.2928C51.5032 15.4651 51.2999 15.7429 51.2215 16.0651C51.143 16.3873 51.1958 16.7274 51.3681 17.0107C51.7803 17.6888 52.1631 18.3911 52.5055 19.0979Z" fill="#C49C48"/>
<path d="M32.9656 54.8249C32.1765 54.9186 31.3781 54.9744 30.592 54.9934C30.2665 55.0059 29.9587 55.1449 29.7342 55.3809C29.5097 55.6169 29.3862 55.9312 29.39 56.257C29.3938 56.5827 29.5246 56.894 29.7545 57.1248C29.9844 57.3555 30.2954 57.4873 30.6211 57.4922C30.6308 57.4922 30.6412 57.4922 30.651 57.4916C31.5152 57.4715 32.3923 57.4096 33.259 57.3073C33.5879 57.2681 33.8879 57.0999 34.0929 56.8397C34.298 56.5795 34.3913 56.2485 34.3525 55.9195C34.3137 55.5905 34.1458 55.2904 33.8859 55.0851C33.6259 54.8797 33.295 54.786 32.966 54.8244L32.9656 54.8249Z" fill="#C49C48"/>
<path d="M25.8516 54.6552C25.074 54.5252 24.2922 54.3561 23.528 54.1513C23.2076 54.0657 22.8664 54.1108 22.5793 54.2768C22.2922 54.4428 22.0828 54.716 21.9972 55.0363C21.9116 55.3567 21.9567 55.698 22.1227 55.985C22.2887 56.2721 22.5619 56.4815 22.8823 56.5671C23.7233 56.7918 24.5839 56.9779 25.4402 57.1207C25.6021 57.1477 25.7678 57.1426 25.9277 57.1056C26.0876 57.0686 26.2387 57.0004 26.3723 56.905C26.5059 56.8096 26.6194 56.6889 26.7063 56.5496C26.7932 56.4104 26.8518 56.2554 26.8788 56.0934C26.9058 55.9315 26.9007 55.7659 26.8637 55.606C26.8267 55.446 26.7585 55.295 26.6631 55.1614C26.5677 55.0278 26.447 54.9143 26.3077 54.8274C26.1685 54.7405 26.0135 54.6819 25.8516 54.6548V54.6552Z" fill="#C49C48"/>
<path d="M56.2726 29.3973C55.9412 29.3892 55.6202 29.5131 55.3801 29.7416C55.14 29.9701 55.0004 30.2847 54.9921 30.616C54.9719 31.4065 54.9146 32.2047 54.8205 32.9897C54.7814 33.3189 54.8745 33.6502 55.0795 33.9108C55.2844 34.1714 55.5845 34.3399 55.9137 34.3794C55.9635 34.385 56.0136 34.3878 56.0638 34.3879C56.3693 34.3875 56.6641 34.2752 56.8925 34.0722C57.1208 33.8693 57.267 33.5897 57.3034 33.2864C57.4059 32.424 57.4694 31.5469 57.4909 30.6784C57.4951 30.5143 57.4669 30.3509 57.4079 30.1977C57.3489 30.0445 57.2603 29.9044 57.1472 29.7854C57.034 29.6664 56.8986 29.5709 56.7485 29.5043C56.5984 29.4377 56.4367 29.4014 56.2726 29.3973Z" fill="#C49C48"/>
<path d="M52.4359 43.6951C52.1616 43.5092 51.8247 43.4396 51.4991 43.5017C51.1736 43.5639 50.886 43.7526 50.6994 44.0265C50.255 44.6802 49.7747 45.3205 49.2705 45.9289C49.1634 46.055 49.0823 46.2011 49.032 46.3588C48.9818 46.5165 48.9633 46.6825 48.9778 46.8474C48.9922 47.0122 49.0392 47.1726 49.1161 47.3191C49.193 47.4656 49.2983 47.5954 49.4257 47.701C49.5532 47.8065 49.7004 47.8857 49.8587 47.9339C50.017 47.9821 50.1833 47.9983 50.3479 47.9818C50.5126 47.9652 50.6723 47.916 50.8178 47.8372C50.9633 47.7584 51.0917 47.6515 51.1956 47.5227C51.7498 46.8538 52.279 46.15 52.7672 45.431C52.8594 45.2953 52.924 45.1427 52.9573 44.982C52.9906 44.8213 52.9918 44.6556 52.9611 44.4944C52.9303 44.3332 52.8681 44.1797 52.778 44.0425C52.6879 43.9054 52.5716 43.7873 52.4359 43.6951Z" fill="#C49C48"/>
<path d="M54.1583 23.5511C54.3609 24.3122 54.5295 25.0941 54.6594 25.8752C54.7079 26.167 54.8582 26.4322 55.0837 26.6237C55.3092 26.8151 55.5953 26.9204 55.8911 26.9208C55.96 26.9207 56.0287 26.9149 56.0967 26.9037C56.2587 26.8768 56.4138 26.8183 56.5531 26.7315C56.6925 26.6447 56.8134 26.5313 56.9089 26.3977C57.0044 26.2642 57.0726 26.1132 57.1097 25.9532C57.1469 25.7933 57.1521 25.6276 57.1252 25.4657C56.9829 24.6063 56.797 23.7454 56.5744 22.9077C56.4891 22.5873 56.28 22.314 55.9931 22.1478C55.7063 21.9816 55.3651 21.9362 55.0448 22.0215C54.7244 22.1068 54.4511 22.3159 54.2849 22.6027C54.1187 22.8896 54.0732 23.2307 54.1586 23.5511H54.1583Z" fill="#C49C48"/>
<path d="M45.9076 49.2878C45.2966 49.7932 44.6564 50.2734 44.0052 50.7148C43.8693 50.8069 43.753 50.9248 43.6627 51.0619C43.5724 51.199 43.51 51.3525 43.4791 51.5137C43.4481 51.6749 43.4492 51.8406 43.4823 52.0013C43.5154 52.1621 43.5799 52.3148 43.672 52.4506C43.7641 52.5865 43.882 52.7029 44.0191 52.7931C44.1562 52.8834 44.3097 52.9458 44.4709 52.9767C44.6321 53.0077 44.7978 53.0066 44.9585 52.9735C45.1193 52.9404 45.272 52.8759 45.4078 52.7838C46.1244 52.2986 46.8281 51.7706 47.5007 51.2153C47.7563 51.004 47.9175 50.6999 47.9488 50.3698C47.9802 50.0397 47.8791 49.7106 47.6679 49.455C47.4566 49.1994 47.1525 49.0382 46.8224 49.0068C46.4923 48.9755 46.1632 49.0765 45.9076 49.2878Z" fill="#C49C48"/>
<path d="M55.3808 36.8219C55.065 36.7216 54.7223 36.7507 54.4279 36.9028C54.1335 37.0549 53.9115 37.3175 53.8105 37.6331C53.5712 38.3831 53.2917 39.1322 52.9798 39.8603C52.9116 40.0116 52.8742 40.1751 52.8699 40.3411C52.8656 40.507 52.8944 40.6722 52.9546 40.8269C53.0149 40.9816 53.1053 41.1228 53.2207 41.2422C53.3361 41.3615 53.4741 41.4567 53.6267 41.5221C53.7793 41.5876 53.9434 41.622 54.1094 41.6233C54.2754 41.6246 54.44 41.5928 54.5936 41.5298C54.7472 41.4668 54.8867 41.3738 55.004 41.2563C55.1213 41.1388 55.214 40.9991 55.2766 40.8453C55.6209 40.0439 55.9286 39.2182 56.1915 38.3924C56.2415 38.236 56.2601 38.0714 56.2464 37.9078C56.2327 37.7442 56.1869 37.585 56.1116 37.4391C56.0363 37.2933 55.933 37.1637 55.8076 37.0578C55.6822 36.9519 55.5372 36.8718 55.3808 36.8219Z" fill="#C49C48"/>
<path d="M39.8364 52.9901C39.1155 53.2988 38.366 53.5779 37.6086 53.8195C37.4522 53.8694 37.3072 53.9495 37.1818 54.0554C37.0564 54.1613 36.9531 54.2909 36.8778 54.4367C36.8025 54.5825 36.7566 54.7418 36.7428 54.9053C36.729 55.0689 36.7476 55.2336 36.7975 55.3899C36.8473 55.5463 36.9275 55.6913 37.0334 55.8167C37.1393 55.9421 37.2688 56.0454 37.4147 56.1208C37.5605 56.1961 37.7197 56.242 37.8833 56.2557C38.0468 56.2695 38.2115 56.251 38.3679 56.2011C39.201 55.9356 40.0262 55.6286 40.8203 55.2887C41.1251 55.1581 41.3656 54.9119 41.4888 54.604C41.612 54.2962 41.6079 53.952 41.4774 53.6472C41.3469 53.3424 41.1006 53.1019 40.7927 52.9787C40.4849 52.8554 40.1407 52.8595 39.8359 52.9901H39.8364Z" fill="#C49C48"/>
<path d="M19.4288 27.4463C19.4288 25.3976 18.0817 23.756 15.9968 23.2638C14.8514 22.9926 13.648 23.1175 12.5828 23.6184C11.5176 24.1192 10.6536 24.9663 10.1319 26.0214C9.98583 26.3177 9.96296 26.6597 10.0683 26.9729C10.1736 27.286 10.3986 27.5446 10.6941 27.6924C10.9896 27.8401 11.3315 27.8649 11.6452 27.7613C11.9589 27.6578 12.2188 27.4342 12.3682 27.1396C12.6351 26.5857 13.084 26.1403 13.6399 25.8777C14.1958 25.6151 14.8251 25.5513 15.4224 25.697C15.7758 25.7803 16.9287 26.1532 16.9287 27.4463C16.9287 28.75 15.4229 29.7556 13.8287 30.8203C12.0336 32.0185 9.99997 33.3764 9.99997 35.625C9.99997 35.9565 10.1317 36.2745 10.3661 36.5089C10.6005 36.7434 10.9185 36.8751 11.25 36.8751H18.1787C18.3439 36.8767 18.5077 36.8455 18.6608 36.7834C18.8139 36.7213 18.9531 36.6295 19.0704 36.5133C19.1878 36.397 19.281 36.2587 19.3445 36.1062C19.4081 35.9538 19.4409 35.7902 19.4409 35.6251C19.4409 35.4599 19.4081 35.2964 19.3445 35.1439C19.281 34.9915 19.1878 34.8531 19.0704 34.7369C18.9531 34.6207 18.8139 34.5288 18.6608 34.4667C18.5077 34.4046 18.3439 34.3735 18.1787 34.3751H13.2264C13.7501 33.8789 14.4904 33.3845 15.2167 32.8992C17.1914 31.5809 19.4288 30.0867 19.4288 27.4463Z" fill="#C49C48"/>
<path d="M31.25 31.5625C31.25 31.231 31.1183 30.913 30.8839 30.6786C30.6495 30.4442 30.3315 30.3125 30 30.3125H28.9843V23.6719C28.9843 23.413 28.9039 23.1605 28.7542 22.9493C28.6045 22.7381 28.393 22.5785 28.1487 22.4927C27.9045 22.4068 27.6396 22.3989 27.3907 22.4701C27.1418 22.5412 26.9211 22.6878 26.7591 22.8898L20.4309 30.7807C20.2837 30.9645 20.1914 31.1862 20.1647 31.4202C20.1379 31.6542 20.1778 31.891 20.2797 32.1033C20.3817 32.3156 20.5415 32.4948 20.7408 32.6203C20.9401 32.7458 21.1708 32.8124 21.4063 32.8125H26.4844V36.3281C26.4828 36.4933 26.5139 36.6571 26.576 36.8102C26.6381 36.9633 26.73 37.1025 26.8462 37.2198C26.9624 37.3372 27.1008 37.4304 27.2532 37.494C27.4057 37.5575 27.5692 37.5903 27.7344 37.5903C27.8995 37.5903 28.0631 37.5575 28.2155 37.494C28.368 37.4304 28.5063 37.3372 28.6225 37.2198C28.7388 37.1025 28.8306 36.9633 28.8927 36.8102C28.9548 36.6571 28.9859 36.4933 28.9843 36.3281V32.8125H30C30.3315 32.8125 30.6495 32.6808 30.8839 32.4464C31.1183 32.2119 31.25 31.894 31.25 31.5625ZM26.4844 30.3125H24.0117L26.4844 27.2284V30.3125Z" fill="#C49C48"/>
<path d="M37.6477 21.7432C37.4867 21.7107 37.3208 21.7103 37.1597 21.742C36.9985 21.7737 36.8452 21.8369 36.7086 21.928C36.5719 22.0191 36.4546 22.1363 36.3633 22.2728C36.272 22.4094 36.2086 22.5626 36.1767 22.7237L33.3642 36.7862C33.2992 37.1113 33.3659 37.4489 33.5497 37.7247C33.7336 38.0006 34.0194 38.1921 34.3445 38.2572C34.4255 38.2733 34.508 38.2815 34.5906 38.2815C34.8793 38.2812 35.159 38.181 35.3822 37.9979C35.6054 37.8147 35.7583 37.56 35.815 37.2769L38.6275 23.2144C38.6598 23.0535 38.6601 22.8877 38.6283 22.7267C38.5966 22.5656 38.5334 22.4124 38.4424 22.2758C38.3514 22.1392 38.2344 22.0218 38.098 21.9304C37.9617 21.8391 37.8086 21.7754 37.6477 21.7432Z" fill="#C49C48"/>
<path d="M44.0619 36.8756C44.3088 36.8755 44.55 36.8023 44.7554 36.6653C44.9608 36.5284 45.1211 36.3337 45.2161 36.1059L49.9036 24.8559C49.9828 24.666 50.014 24.4594 49.9942 24.2545C49.9744 24.0497 49.9043 23.8529 49.7902 23.6816C49.6761 23.5103 49.5214 23.3699 49.3399 23.2728C49.1585 23.1757 48.9558 23.1249 48.75 23.1249H42.4219C42.0924 23.1281 41.7776 23.2612 41.5458 23.4953C41.314 23.7294 41.1839 24.0455 41.1839 24.3749C41.1839 24.7044 41.314 25.0205 41.5458 25.2545C41.7776 25.4886 42.0924 25.6217 42.4219 25.6249H46.875L42.9089 35.1445C42.83 35.3345 42.7992 35.5409 42.8191 35.7456C42.839 35.9503 42.909 36.147 43.023 36.3182C43.137 36.4894 43.2914 36.6298 43.4726 36.7271C43.6538 36.8245 43.8562 36.8756 44.0619 36.8761V36.8756Z" fill="#C49C48"/>
</svg>
