<svg width="60" height="60" viewBox="0 0 60 60" fill="none" xmlns="http://www.w3.org/2000/svg">
<g clip-path="url(#clip0_33_5807)">
<path d="M59.2627 40.0298C58.1279 38.1113 56.1159 37.4328 54.3612 38.392L52.8521 39.2109V26.2728C54.1038 25.875 55.0162 24.7052 55.0162 23.3132V16.5048C55.0162 14.7969 53.6242 13.4048 51.9162 13.4048H43.3415C46.2544 12.1765 48.0325 10.0124 48.1378 7.52069C48.2313 5.43843 47.0849 3.56673 45.2483 2.72446C44.0902 2.19805 40.9551 1.40258 36.9661 5.22786C35.1294 6.99428 33.6087 9.20522 32.591 11.5331C31.5615 9.20522 30.0408 6.99428 28.2159 5.22786C24.2268 1.39088 21.0917 2.19805 19.9336 2.72446C18.0736 3.56673 16.9389 5.45012 17.0208 7.52069C17.126 10.0124 18.9042 12.1648 21.817 13.4048H14.6343C12.9264 13.4048 11.5343 14.7969 11.5343 16.5048V23.3132C11.5343 24.6935 12.4468 25.875 13.6985 26.2728V36.6022L11.0781 37.655C10.6687 36.9649 9.92 36.5086 9.05434 36.5086H2.40981C1.11132 36.4969 0.0584869 37.5498 0.0584869 38.8483V54.6524C0.0584869 55.9509 1.11132 57.0037 2.40981 57.0037H9.06604C9.9434 57.0037 10.7038 56.5241 11.1132 55.8105L15.6404 57.343C16.4125 57.612 17.126 57.729 17.9449 57.729H37.3053C38.4868 57.729 39.5045 57.4249 40.5106 56.7815L58.4321 45.329C60.3038 44.1241 60.257 41.7026 59.2627 40.0298ZM41.2944 45.4928C40.4755 45.9373 39.7151 46.1362 38.8377 46.1362H38.5102L38.6389 46.0543C40.0661 45.1301 40.6978 43.4222 40.2181 41.7962C39.7385 40.1701 38.2762 39.0705 36.58 39.0705H33.5151V26.4132H50.9804V40.2286L41.2944 45.4928ZM53.1445 16.5048V23.3132C53.1445 23.9916 52.5947 24.5415 51.9162 24.5415H33.5151V15.3818C35.3166 15.7913 36.4864 17.3822 37.82 19.1837C38.6974 20.3652 39.5981 21.5935 40.7445 22.4943C40.92 22.6347 41.1189 22.6932 41.3294 22.6932C41.6102 22.6932 41.8793 22.5762 42.0664 22.3422C42.3823 21.9328 42.3238 21.3479 41.9144 21.032C40.9668 20.2716 40.1713 19.2071 39.3408 18.0724C38.6389 17.1248 37.8902 16.1071 37.0011 15.2765H51.9279C52.5947 15.2765 53.1445 15.8264 53.1445 16.5048ZM38.2528 6.58484C39.9257 4.9939 41.6102 4.15163 43.0725 4.15163C43.5638 4.15163 44.0317 4.24522 44.4762 4.44409C45.6227 4.9588 46.3245 6.14031 46.2661 7.4505C46.1842 9.3339 44.6049 11.0067 42.0313 11.9075C39.8789 12.6679 37.083 13.1592 33.8778 13.3464C34.7668 10.8781 36.3577 8.42145 38.2528 6.58484ZM18.8925 7.4505C18.834 6.14031 19.5359 4.9588 20.6823 4.44409C21.1151 4.24522 21.583 4.15163 22.086 4.15163C23.5483 4.15163 25.2328 4.9939 26.894 6.59654C28.8008 8.42145 30.38 10.8781 31.2808 13.3464C28.0755 13.1592 25.2679 12.6679 23.1272 11.9075C20.5536 10.995 18.9743 9.3339 18.8925 7.4505ZM13.406 16.5048C13.406 15.8264 13.9559 15.2765 14.6343 15.2765H28.1691C27.28 16.1071 26.543 17.1131 25.8294 18.0724C24.9872 19.2071 24.2034 20.2833 23.2559 21.032C22.8464 21.3479 22.7879 21.9445 23.1038 22.3422C23.291 22.5762 23.56 22.6932 23.8408 22.6932C24.0396 22.6932 24.2502 22.623 24.4257 22.4943C25.5721 21.5818 26.4728 20.3652 27.3502 19.1837C28.6838 17.3822 29.8536 15.7913 31.6551 15.3818V24.5415H14.6343C13.9559 24.5415 13.406 23.9916 13.406 23.3132V16.5048ZM15.5702 26.4132H31.6434V39.0822H27.8415C27.2683 39.0822 26.7887 38.9652 26.2857 38.6962L20.7291 35.7366C19.3487 34.9996 17.863 34.9177 16.4125 35.5026L15.5702 35.8418V26.4132ZM9.06604 55.132H2.40981C2.15245 55.132 1.93019 54.9098 1.93019 54.6524V38.8483C1.93019 38.5909 2.15245 38.3686 2.40981 38.3686H9.06604C9.3234 38.3686 9.54566 38.5909 9.54566 38.8483V38.8717V54.6407C9.54566 54.9098 9.3234 55.132 9.06604 55.132ZM57.4261 43.7498L39.5045 55.2139C38.8027 55.6584 38.1242 55.869 37.3053 55.869H17.9566C17.3366 55.869 16.8336 55.7871 16.2487 55.5883L11.4174 53.9505V39.5267L17.1143 37.2339C18.0502 36.8596 18.9626 36.9064 19.8517 37.386L25.4083 40.3456C26.1804 40.755 26.9525 40.9539 27.8415 40.9539H36.58C37.4574 40.9539 38.171 41.492 38.4166 42.3343C38.6623 43.1766 38.3464 44.0188 37.6094 44.4867L35.7728 45.6683C35.2698 45.9958 34.7785 46.1362 34.1702 46.1362H33.9479H25.9464C25.4317 46.1362 25.0106 46.5573 25.0106 47.072C25.0106 47.5868 25.4317 48.0079 25.9464 48.0079H33.9479H34.1702H38.826C40.0193 48.0079 41.0838 47.7271 42.1717 47.1422L55.2385 40.0298C56.5604 39.3045 57.4729 40.6966 57.6366 40.9773C58.1046 41.7377 58.4204 43.1181 57.4261 43.7498Z" fill="#C49C48"/>
<path d="M37.3053 57.7875H17.9449C17.1104 57.7875 16.3937 57.6675 15.6212 57.3982L11.1395 55.8813C10.7014 56.611 9.91134 57.0624 9.06603 57.0624H2.4098C1.08102 57.0624 -7.62939e-06 55.9813 -7.62939e-06 54.6524V38.8483C-7.62939e-06 38.2015 0.252438 37.5951 0.71077 37.1408C1.16606 36.6896 1.77062 36.4402 2.41039 36.4502H9.05434C9.89976 36.4502 10.6615 36.8723 11.1023 37.5823L13.64 36.5627V26.3153C12.3636 25.8899 11.4758 24.6616 11.4758 23.3131V16.5047C11.4758 14.7631 12.8927 13.3463 14.6343 13.3463H21.5387C18.7286 12.0706 17.0653 9.96024 16.9624 7.52305C16.8793 5.42394 18.0362 3.51937 19.9095 2.67102C21.0801 2.13899 24.2366 1.31895 28.2564 5.18553C30.046 6.91791 31.5428 9.06053 32.5906 11.3888C33.6272 9.06077 35.1241 6.91826 36.9256 5.18553C40.9541 1.32246 44.1049 2.1404 45.2726 2.67102C47.1426 3.52861 48.2903 5.43318 48.1962 7.52317C48.0928 9.97123 46.4304 12.0813 43.6222 13.3463H51.9162C53.6579 13.3463 55.0747 14.7631 55.0747 16.5047V23.3131C55.0747 24.6833 54.207 25.8843 52.9106 26.3153V39.1126L54.3333 38.3406C56.1118 37.3679 58.1599 38.0505 59.313 40C60.3198 41.6938 60.3644 44.1547 58.4637 45.3782L40.542 56.8307C39.5215 57.4835 38.493 57.7875 37.3053 57.7875ZM11.0864 55.7398L15.6591 57.2875C16.4192 57.5525 17.124 57.6704 17.9449 57.6704H37.3053C38.4696 57.6704 39.4781 57.3722 40.479 56.7321L58.4005 45.2797C60.2395 44.0958 60.1914 41.7066 59.2122 40.0596L59.2121 40.0595C58.0931 38.1672 56.1097 37.5028 54.3891 38.4433L52.7936 39.3092V26.2301L52.8344 26.2171C54.1044 25.8135 54.9578 24.6465 54.9578 23.3132V16.5049C54.9578 14.8278 53.5934 13.4634 51.9162 13.4634H43.0523L43.3188 13.3509C46.2396 12.1194 47.9748 9.99334 48.0793 7.51825C48.1711 5.476 47.0503 3.61518 45.224 2.77771C44.0779 2.25679 40.9832 1.45676 37.0065 5.27011C35.185 7.02202 33.6767 9.196 32.6445 11.5567L32.5913 11.6786L32.5375 11.5569C31.4933 9.19565 29.985 7.02167 28.1753 5.26999C24.2071 1.45313 21.1068 2.25574 19.9578 2.77783C18.128 3.6064 16.9981 5.46722 17.0792 7.51849C17.1834 9.98153 18.9185 12.1075 21.8399 13.3511L22.1037 13.4634H14.6343C12.9573 13.4634 11.5928 14.8278 11.5928 16.5049V23.3132C11.5928 24.6257 12.466 25.8198 13.7162 26.2171L13.757 26.2301V36.6418L11.0534 37.7281L11.0278 37.6849C10.6126 36.9851 9.87496 36.5671 9.05434 36.5671H2.4098C1.79928 36.5573 1.22607 36.7948 0.793008 37.224C0.357136 37.6561 0.116974 38.2329 0.116974 38.8484V54.6525C0.116974 55.9169 1.14547 56.9455 2.4098 56.9455H9.06603C9.88549 56.9455 10.6505 56.4994 11.0624 55.7816L11.0864 55.7398ZM37.3053 55.9276H17.9566C17.3315 55.9276 16.8151 55.8427 16.2298 55.6437L11.3589 53.9925V39.4873L17.0925 37.1798C18.0452 36.7988 18.9828 36.8509 19.8794 37.3345L25.4358 40.294C26.2095 40.7044 26.974 40.8956 27.8415 40.8956H36.58C37.4777 40.8956 38.2207 41.4539 38.4729 42.3181C38.7254 43.1842 38.3988 44.055 37.6408 44.5362L35.8045 45.7176C35.2978 46.0475 34.7936 46.1948 34.1702 46.1948H25.9464C25.4626 46.1948 25.0691 46.5883 25.0691 47.0722C25.0691 47.556 25.4626 47.9495 25.9464 47.9495H38.826C40 47.9495 41.0543 47.6766 42.144 47.0908L55.2104 39.9784C56.6178 39.2062 57.5818 40.7673 57.687 40.948C58.1494 41.6992 58.4967 43.1389 57.4574 43.7991L39.5361 55.2632C38.8107 55.7228 38.1228 55.9276 37.3053 55.9276ZM11.4758 53.9087L16.2674 55.5329C16.8474 55.7303 17.3368 55.8107 17.9565 55.8107H37.3052C38.0991 55.8107 38.7678 55.6114 39.4731 55.1646L57.3945 43.7005C58.3628 43.0853 58.0263 41.7226 57.5867 41.0081C57.4236 40.7287 56.5494 39.3774 55.2665 40.0811L42.1996 47.1937C41.0919 47.7893 40.02 48.0665 38.8259 48.0665H25.9464C25.3981 48.0665 24.9521 47.6205 24.9521 47.0722C24.9521 46.5239 25.3981 46.0778 25.9464 46.0778H34.1702C34.7696 46.0778 35.254 45.9364 35.741 45.6194L37.5779 44.4376C38.2911 43.9848 38.5983 43.1657 38.3605 42.3507C38.1233 41.5378 37.4245 41.0125 36.58 41.0125H27.8415C26.9542 41.0125 26.1722 40.8171 25.3809 40.3973L19.8243 37.4377C18.9593 36.9711 18.055 36.9209 17.1361 37.2883L11.4758 39.5663V53.9087ZM9.06603 55.1907H2.4098C2.11805 55.1907 1.87169 54.9443 1.87169 54.6524V38.8483C1.87169 38.5565 2.11805 38.31 2.4098 38.31H9.06603C9.35779 38.31 9.60415 38.5564 9.60415 38.8483V54.6407C9.60415 54.9388 9.35779 55.1907 9.06603 55.1907ZM2.4098 38.4271C2.18543 38.4271 1.98867 38.624 1.98867 38.8484V54.6525C1.98867 54.8769 2.18543 55.0738 2.4098 55.0738H9.06603C9.29438 55.0738 9.48717 54.8756 9.48717 54.641V38.8485C9.48717 38.6241 9.2904 38.4273 9.06603 38.4273H2.4098V38.4271ZM38.8377 46.1947H38.3095L38.6074 46.0049C40.009 45.0974 40.6339 43.4126 40.162 41.8128C39.6886 40.2075 38.249 39.129 36.58 39.129H33.4566V26.3547H51.0389V40.2634L51.0082 40.2801L41.3222 45.5443C40.4935 45.9942 39.7273 46.1947 38.8377 46.1947ZM38.7098 46.0777H38.8377C39.7068 46.0777 40.4557 45.8814 41.2665 45.4414L50.9219 40.194V26.4717H33.5736V39.012H36.58C38.3014 39.012 39.7859 40.1243 40.2742 41.7797C40.7565 43.4147 40.128 45.1358 38.7098 46.0777ZM31.7019 39.1408H27.8415C27.2545 39.1408 26.7662 39.0196 26.2581 38.7479L20.7016 35.7883C19.3389 35.0608 17.8633 34.9809 16.4342 35.5569L15.5116 35.9285V26.3548H31.7019V39.1408ZM18.3359 35.0594C19.1599 35.0594 19.9763 35.2684 20.7567 35.685L26.3133 38.6447C26.8035 38.907 27.2749 39.0239 27.8416 39.0239H31.585V26.4718H15.6287V35.7554L16.3906 35.4484C17.0343 35.1887 17.6875 35.0594 18.3359 35.0594ZM51.9162 24.6H33.4566V15.3086L33.528 15.3249C35.3414 15.737 36.5022 17.3053 37.8462 19.121L37.9265 19.2292C38.7819 20.3815 39.6663 21.573 40.7806 22.4484C40.9353 22.5722 41.1198 22.6348 41.3293 22.6348C41.6054 22.6348 41.8509 22.5179 42.0206 22.3057C42.1643 22.1194 42.2297 21.8893 42.2041 21.6586C42.1783 21.4266 42.0627 21.2205 41.8784 21.0785C40.958 20.3399 40.1951 19.3389 39.2934 18.1072L39.2545 18.0546C38.5541 17.109 37.8297 16.131 36.961 15.3195L36.8527 15.2183H51.9279C52.631 15.2183 53.2029 15.7956 53.2029 16.5051V23.3134C53.203 24.0228 52.6257 24.6 51.9162 24.6ZM33.5736 24.483H51.9162C52.5613 24.483 53.0861 23.9582 53.0861 23.3132V16.5049C53.0861 15.8598 52.5667 15.3351 51.9281 15.3351H37.1478C37.9771 16.1329 38.674 17.0737 39.3487 17.9849L39.3877 18.0376C40.2845 19.2626 41.0425 20.2574 41.9508 20.9864C42.1595 21.1474 42.2911 21.3817 42.3204 21.6456C42.3494 21.9066 42.2756 22.1668 42.1126 22.378C41.9197 22.6192 41.6418 22.7517 41.3294 22.7517C41.0927 22.7517 40.8835 22.6804 40.7079 22.5399C39.5817 21.6551 38.6925 20.4572 37.8325 19.2987L37.7522 19.1904C36.4399 17.4176 35.3042 15.8832 33.5735 15.4558V24.483H33.5736ZM31.7136 24.6H14.6343C13.9248 24.6 13.3475 24.0227 13.3475 23.3132V16.5049C13.3475 15.7954 13.9248 15.2181 14.6343 15.2181H28.3173L28.209 15.3193C27.3581 16.114 26.6469 17.0707 25.9593 17.9958L25.7863 18.2287C24.9766 19.3203 24.2119 20.3512 23.2921 21.0778C23.1104 21.2179 22.9952 21.4219 22.9671 21.6529C22.9387 21.886 23.0053 22.1241 23.1496 22.3058C23.3193 22.5179 23.5647 22.6347 23.8408 22.6347C24.0279 22.6347 24.2285 22.5664 24.391 22.447C25.5232 21.5459 26.4205 20.3375 27.2883 19.1689L27.3242 19.1206C28.6682 17.3049 29.829 15.7369 31.6422 15.3248L31.7136 15.3085V24.6ZM14.6343 15.3352C13.9893 15.3352 13.4645 15.8599 13.4645 16.505V23.3133C13.4645 23.9583 13.9893 24.4831 14.6343 24.4831H31.5966V15.456C29.8661 15.8835 28.7306 17.4177 27.4183 19.1903L27.3824 19.2388C26.51 20.4136 25.6081 21.6282 24.4622 22.5403C24.2755 22.6773 24.0554 22.7519 23.8408 22.7519C23.5285 22.7519 23.2505 22.6195 23.0582 22.379C22.8944 22.1726 22.8189 21.903 22.851 21.6389C22.8829 21.3768 23.0141 21.1448 23.2202 20.9858C24.1271 20.2692 24.8874 19.2443 25.6923 18.1592L25.8654 17.9262C26.5273 17.0357 27.211 16.1161 28.0224 15.3352H14.6343ZM31.3663 13.41L31.2774 13.4049C28.0599 13.217 25.2348 12.7183 23.1076 11.9627C20.5145 11.0434 18.9169 9.35755 18.8341 7.45321C18.7744 6.11729 19.4905 4.91519 20.6584 4.39088C21.088 4.19342 21.5685 4.09328 22.0862 4.09328C23.5677 4.09328 25.2897 4.96736 26.9347 6.55456C28.8194 8.3583 30.4235 10.8266 31.3359 13.3265L31.3663 13.41ZM22.086 4.21026C21.5854 4.21026 21.1213 4.30689 20.7066 4.49733C19.5824 5.00211 18.8934 6.16022 18.9508 7.44795C19.0314 9.30304 20.6 10.9495 23.1467 11.8524C25.2441 12.5973 28.0254 13.0916 31.195 13.2827C30.2836 10.8278 28.7048 8.41059 26.8535 6.63891C25.2303 5.07265 23.5372 4.21026 22.086 4.21026ZM33.7926 13.41L33.8226 13.3266C34.7123 10.8567 36.3122 8.38415 38.2121 6.54287L38.2125 6.54252C39.8972 4.94022 41.5779 4.09316 43.0725 4.09316C43.5785 4.09316 44.0588 4.1933 44.5001 4.39065C45.6679 4.91496 46.3841 6.11705 46.3245 7.4531C46.2411 9.36925 44.6434 11.0552 42.0506 11.9626C39.9098 12.7189 37.0848 13.2177 33.8811 13.4047L33.7926 13.41ZM38.2933 6.62709C36.4275 8.4355 34.8527 10.8571 33.963 13.2829C37.1192 13.0924 39.9008 12.5982 42.0118 11.8524C44.558 10.9612 46.1265 9.31473 46.2076 7.44795C46.2651 6.16022 45.5762 5.00211 44.4523 4.49745C44.0262 4.30689 43.562 4.21014 43.0725 4.21014C41.6086 4.21026 39.9559 5.04609 38.2933 6.62709Z" fill="#C49C48"/>
</g>
<defs>
<clipPath id="clip0_33_5807">
<rect width="60" height="60" fill="white"/>
</clipPath>
</defs>
</svg>
